<?xml version="1.0" encoding="UTF-8" standalone="no"?><!DOCTYPE svg PUBLIC "-//W3C//DTD SVG 1.1//EN" "http://www.w3.org/Graphics/SVG/1.1/DTD/svg11.dtd"><svg width="100%" height="100%" viewBox="0 0 804 1313" version="1.1" xmlns="http://www.w3.org/2000/svg" xmlns:xlink="http://www.w3.org/1999/xlink" xml:space="preserve" xmlns:serif="http://www.serif.com/" style="fill-rule:evenodd;clip-rule:evenodd;"><g><g id="header-svg"><g id="text-svg"></g></g><g id="footer-svg"><g id="footer-inner-svg"><g id="footer-main-svg"><g id="text-svg1" serif:id="text-svg"></g></g></g></g></g><rect id="Arizona" x="-0" y="-0" width="803.122" height="1312.5" style="fill:none;"/><clipPath id="_clip1"><rect x="-0" y="-0" width="803.122" height="1312.5"/></clipPath><g clip-path="url(#_clip1)"><path d="M805.445,1325.77l0,-1544.36l-875.856,-0l0,1544.36l875.856,0Z" style="fill:#1f3138;"/><text x="316.148px" y="1295.63px" style="font-family:'HelveticaNeue-Bold', 'Helvetica Neue';font-weight:700;font-size:50px;fill:#2f87e4;">0.3%</text><g><text x="18.745px" y="264.52px" style="font-family:'HelveticaNeue', 'Helvetica Neue';font-size:45.833px;fill:#8a969b;">1992</text><text x="17.599px" y="411.415px" style="font-family:'HelveticaNeue', 'Helvetica Neue';font-size:45.833px;fill:#8a969b;">1996</text><text x="17.828px" y="556.178px" style="font-family:'HelveticaNeue', 'Helvetica Neue';font-size:45.833px;fill:#8a969b;">2000</text><text x="17.782px" y="702.523px" style="font-family:'HelveticaNeue', 'Helvetica Neue';font-size:45.833px;fill:#8a969b;">2004</text><text x="17.737px" y="848.868px" style="font-family:'HelveticaNeue', 'Helvetica Neue';font-size:45.833px;fill:#8a969b;">2008</text><text x="18.745px" y="994.686px" style="font-family:'HelveticaNeue', 'Helvetica Neue';font-size:45.833px;fill:#8a969b;">2012</text><text x="17.599px" y="1141.58px" style="font-family:'HelveticaNeue', 'Helvetica Neue';font-size:45.833px;fill:#8a969b;">2016</text><text x="17.828px" y="1287.79px" style="font-family:'HelveticaNeue', 'Helvetica Neue';font-size:45.833px;fill:#8a969b;">2020</text><path d="M284.269,220.926l0,1078.3" style="fill:none;fill-rule:nonzero;stroke:#ebebe8;stroke-width:4.17px;"/><path d="M138.133,220.926l0,1078.3" style="fill:none;fill-rule:nonzero;stroke:#415056;stroke-width:2.85px;"/><text x="126.792px" y="198.798px" style="font-family:'HelveticaNeue', 'Helvetica Neue';font-size:45.833px;fill:#8a969b;">5</text><text x="271.976px" y="199.348px" style="font-family:'HelveticaNeue', 'Helvetica Neue';font-size:45.833px;fill:#8a969b;">0</text><path d="M430.405,220.926l0,1014.33" style="fill:none;fill-rule:nonzero;stroke:#415056;stroke-width:2.68px;"/><text x="418.112px" y="198.798px" style="font-family:'HelveticaNeue', 'Helvetica Neue';font-size:45.833px;fill:#8a969b;">5</text><path d="M576.541,220.926l0,1078.3" style="fill:none;fill-rule:nonzero;stroke:#415056;stroke-width:2.85px;"/><text x="550.475px" y="199.348px" style="font-family:'HelveticaNeue', 'Helvetica Neue';font-size:45.833px;fill:#8a969b;">10</text><path d="M722.677,220.926l0,1078.3" style="fill:none;fill-rule:nonzero;stroke:#415056;stroke-width:2.85px;"/><text x="696.726px" y="199.348px" style="font-family:'HelveticaNeue', 'Helvetica Neue';font-size:45.833px;fill:#8a969b;">15</text><path id="Arizona1" serif:id="Arizona" d="M219.969,394.273c93.284,48.774 186.567,97.548 248.432,146.322c61.864,48.774 122.754,97.548 122.754,146.322c-0,48.774 -58.455,97.548 -58.455,146.322c0,48.774 17.537,97.548 17.537,146.322c-0,48.773 -117.883,97.547 -163.673,146.321c-45.789,48.774 -78.426,97.548 -111.063,146.322" style="fill:none;fill-rule:nonzero;stroke:url(#_Linear2);stroke-width:8.33px;stroke-linecap:round;stroke-linejoin:round;"/><path id="Arizona2" serif:id="Arizona" d="M219.969,371.512c-12.486,0 -22.761,10.275 -22.761,22.761c0,12.486 10.275,22.761 22.761,22.761c12.487,0 22.761,-10.275 22.761,-22.761c0,-12.486 -10.274,-22.761 -22.761,-22.761Z" style="fill:#0084ae;fill-rule:nonzero;"/><path id="Arizona3" serif:id="Arizona" d="M468.401,517.834c-12.487,-0 -22.761,10.275 -22.761,22.761c-0,12.486 10.274,22.761 22.761,22.761c12.486,0 22.761,-10.275 22.761,-22.761c-0,-12.486 -10.275,-22.761 -22.761,-22.761Z" style="fill:#0084ae;fill-rule:nonzero;"/><path id="Arizona4" serif:id="Arizona" d="M591.155,664.156c-12.486,-0 -22.761,10.275 -22.761,22.761c-0,12.486 10.275,22.761 22.761,22.761c12.486,-0 22.761,-10.275 22.761,-22.761c-0,-12.486 -10.275,-22.761 -22.761,-22.761Z" style="fill:#0084ae;fill-rule:nonzero;"/><path id="Arizona5" serif:id="Arizona" d="M532.7,810.478c-12.486,-0 -22.761,10.274 -22.761,22.761c0,12.486 10.275,22.761 22.761,22.761c12.487,-0 22.761,-10.275 22.761,-22.761c0,-12.487 -10.274,-22.761 -22.761,-22.761Z" style="fill:#0084ae;fill-rule:nonzero;"/><path id="Arizona6" serif:id="Arizona" d="M550.237,956.8c-12.487,-0 -22.761,10.274 -22.761,22.761c-0,12.486 10.274,22.761 22.761,22.761c12.486,-0 22.761,-10.275 22.761,-22.761c-0,-12.487 -10.275,-22.761 -22.761,-22.761Z" style="fill:#0084ae;fill-rule:nonzero;"/><path id="Arizona7" serif:id="Arizona" d="M386.564,1103.12c-12.486,0 -22.761,10.275 -22.761,22.761c0,12.487 10.275,22.761 22.761,22.761c12.487,0 22.761,-10.274 22.761,-22.761c0,-12.486 -10.274,-22.761 -22.761,-22.761Z" style="fill:#0084ae;fill-rule:nonzero;"/><path id="Arizona8" serif:id="Arizona" d="M275.501,1249.44c-12.486,0 -22.761,10.275 -22.761,22.761c-0,12.487 10.275,22.761 22.761,22.761c12.486,0 22.761,-10.274 22.761,-22.761c-0,-12.486 -10.275,-22.761 -22.761,-22.761Z" style="fill:#0084ae;fill-rule:nonzero;"/><path id="Arizona9" serif:id="Arizona" d="M219.969,371.512c-12.486,0 -22.761,10.275 -22.761,22.761c0,12.486 10.275,22.761 22.761,22.761c12.487,0 22.761,-10.275 22.761,-22.761c0,-12.486 -10.274,-22.761 -22.761,-22.761Z" style="fill:#2f87e4;fill-rule:nonzero;stroke:#ebebe8;stroke-width:4.17px;stroke-linejoin:round;stroke-miterlimit:2;"/><path id="Arizona10" serif:id="Arizona" d="M468.401,517.834c-12.487,-0 -22.761,10.275 -22.761,22.761c-0,12.486 10.274,22.761 22.761,22.761c12.486,0 22.761,-10.275 22.761,-22.761c-0,-12.486 -10.275,-22.761 -22.761,-22.761Z" style="fill:#9c1515;fill-rule:nonzero;stroke:#ebebe8;stroke-width:4.17px;stroke-linejoin:round;stroke-miterlimit:2;"/><path id="Arizona11" serif:id="Arizona" d="M591.155,664.156c-12.486,-0 -22.761,10.275 -22.761,22.761c-0,12.486 10.275,22.761 22.761,22.761c12.486,-0 22.761,-10.275 22.761,-22.761c-0,-12.486 -10.275,-22.761 -22.761,-22.761Z" style="fill:#9c1515;fill-rule:nonzero;stroke:#ebebe8;stroke-width:4.17px;stroke-linejoin:round;stroke-miterlimit:2;"/><path id="Arizona12" serif:id="Arizona" d="M532.7,810.478c-12.486,-0 -22.761,10.274 -22.761,22.761c0,12.486 10.275,22.761 22.761,22.761c12.487,-0 22.761,-10.275 22.761,-22.761c0,-12.487 -10.274,-22.761 -22.761,-22.761Z" style="fill:#9c1515;fill-rule:nonzero;stroke:#ebebe8;stroke-width:4.17px;stroke-linejoin:round;stroke-miterlimit:2;"/><path id="Arizona13" serif:id="Arizona" d="M550.237,956.8c-12.487,-0 -22.761,10.274 -22.761,22.761c-0,12.486 10.274,22.761 22.761,22.761c12.486,-0 22.761,-10.275 22.761,-22.761c-0,-12.487 -10.275,-22.761 -22.761,-22.761Z" style="fill:#9c1515;fill-rule:nonzero;stroke:#ebebe8;stroke-width:4.17px;stroke-linejoin:round;stroke-miterlimit:2;"/><path id="Arizona14" serif:id="Arizona" d="M386.564,1103.12c-12.486,0 -22.761,10.275 -22.761,22.761c0,12.487 10.275,22.761 22.761,22.761c12.487,0 22.761,-10.274 22.761,-22.761c0,-12.486 -10.274,-22.761 -22.761,-22.761Z" style="fill:#9c1515;fill-rule:nonzero;stroke:#ebebe8;stroke-width:4.17px;stroke-linejoin:round;stroke-miterlimit:2;"/><path id="Arizona15" serif:id="Arizona" d="M275.501,1249.44c-12.486,0 -22.761,10.275 -22.761,22.761c-0,12.487 10.275,22.761 22.761,22.761c12.486,0 22.761,-10.274 22.761,-22.761c-0,-12.486 -10.275,-22.761 -22.761,-22.761Z" style="fill:#2f87e4;fill-rule:nonzero;stroke:#ebebe8;stroke-width:4.17px;stroke-linejoin:round;stroke-miterlimit:2;"/></g></g><defs><linearGradient id="_Linear2" x1="0" y1="0" x2="1" y2="0" gradientUnits="userSpaceOnUse" gradientTransform="matrix(5.37578e-14,877.931,-371.186,2.27286e-14,405.562,394.273)"><stop offset="0" style="stop-color:#2f87e4;stop-opacity:1"/><stop offset="0.11" style="stop-color:#9c1515;stop-opacity:1"/><stop offset="0.92" style="stop-color:#9c1515;stop-opacity:1"/><stop offset="1" style="stop-color:#2f87e4;stop-opacity:1"/></linearGradient></defs></svg>