<?xml version="1.0" encoding="UTF-8" standalone="no"?><!DOCTYPE svg PUBLIC "-//W3C//DTD SVG 1.1//EN" "http://www.w3.org/Graphics/SVG/1.1/DTD/svg11.dtd"><svg width="100%" height="100%" viewBox="0 0 804 1313" version="1.1" xmlns="http://www.w3.org/2000/svg" xmlns:xlink="http://www.w3.org/1999/xlink" xml:space="preserve" xmlns:serif="http://www.serif.com/" style="fill-rule:evenodd;clip-rule:evenodd;stroke-linecap:round;stroke-miterlimit:10;"><g><g id="header-svg"><g id="text-svg"></g></g><g id="footer-svg"><g id="footer-inner-svg"><g id="footer-main-svg"><g id="text-svg1" serif:id="text-svg"></g></g></g></g></g><rect id="Georgia" x="0" y="-0" width="803.122" height="1312.5" style="fill:none;"/><clipPath id="_clip1"><rect x="0" y="-0" width="803.122" height="1312.5"/></clipPath><g clip-path="url(#_clip1)"><path d="M805.445,1325.66l0,-1544.36l-875.856,0l0,1544.36l875.856,-0Z" style="fill:#1f3138;"/><g><path d="M226.11,130.9l-6.25,-6.25l6.25,-6.25" style="fill:none;stroke:#8a969b;stroke-width:4.17px;"/><path d="M279.145,124.65l-59.285,0" style="fill:none;stroke:#8a969b;stroke-width:4.17px;stroke-linejoin:round;stroke-miterlimit:1.5;"/><path d="M348.549,118.4l6.25,6.25l-6.25,6.25" style="fill:none;stroke:#8a969b;stroke-width:4.17px;"/><path d="M295.514,124.65l59.285,0" style="fill:none;stroke:#8a969b;stroke-width:4.17px;stroke-linejoin:round;stroke-miterlimit:1.5;"/><text x="11.464px" y="140.761px" style="font-family:'HelveticaNeue', 'Helvetica Neue';font-size:45.833px;fill:#8a969b;">Dem. win</text><text x="404.529px" y="136.498px" style="font-family:'HelveticaNeue', 'Helvetica Neue';font-size:45.833px;fill:#8a969b;">Rep. win</text></g><g><text x="306.2px" y="1291.75px" style="font-family:'HelveticaNeue-Bold', 'Helvetica Neue';font-weight:700;font-size:50px;fill:#2f87e4;">0.28%</text><text x="20.055px" y="267.135px" style="font-family:'HelveticaNeue', 'Helvetica Neue';font-size:45.833px;fill:#8a969b;">1992</text><text x="18.909px" y="414.03px" style="font-family:'HelveticaNeue', 'Helvetica Neue';font-size:45.833px;fill:#8a969b;">1996</text><text x="19.138px" y="558.793px" style="font-family:'HelveticaNeue', 'Helvetica Neue';font-size:45.833px;fill:#8a969b;">2000</text><text x="19.092px" y="705.138px" style="font-family:'HelveticaNeue', 'Helvetica Neue';font-size:45.833px;fill:#8a969b;">2004</text><text x="19.046px" y="851.483px" style="font-family:'HelveticaNeue', 'Helvetica Neue';font-size:45.833px;fill:#8a969b;">2008</text><text x="20.055px" y="997.3px" style="font-family:'HelveticaNeue', 'Helvetica Neue';font-size:45.833px;fill:#8a969b;">2012</text><text x="18.909px" y="1144.19px" style="font-family:'HelveticaNeue', 'Helvetica Neue';font-size:45.833px;fill:#8a969b;">2016</text><text x="19.138px" y="1290.4px" style="font-family:'HelveticaNeue', 'Helvetica Neue';font-size:45.833px;fill:#8a969b;">2020</text><path d="M282.956,223.541l-0,1078.3" style="fill:none;fill-rule:nonzero;stroke:#ebebe8;stroke-width:4.17px;stroke-linecap:butt;stroke-miterlimit:4;"/><path d="M136.82,223.541l-0,1078.3" style="fill:none;fill-rule:nonzero;stroke:#415056;stroke-width:2.85px;stroke-linecap:butt;stroke-miterlimit:4;"/><text x="125.479px" y="197.246px" style="font-family:'HelveticaNeue', 'Helvetica Neue';font-size:45.833px;fill:#8a969b;">5</text><text x="270.663px" y="197.796px" style="font-family:'HelveticaNeue', 'Helvetica Neue';font-size:45.833px;fill:#8a969b;">0</text><path d="M429.092,223.541l-0,1015.3" style="fill:none;fill-rule:nonzero;stroke:#415056;stroke-width:2.68px;stroke-linecap:butt;stroke-miterlimit:4;"/><text x="416.799px" y="197.246px" style="font-family:'HelveticaNeue', 'Helvetica Neue';font-size:45.833px;fill:#8a969b;">5</text><path d="M575.228,223.541l0,1078.3" style="fill:none;fill-rule:nonzero;stroke:#415056;stroke-width:2.85px;stroke-linecap:butt;stroke-miterlimit:4;"/><text x="549.162px" y="197.796px" style="font-family:'HelveticaNeue', 'Helvetica Neue';font-size:45.833px;fill:#8a969b;">10</text><text x="15.789px" y="55.27px" style="font-family:'HelveticaNeue-Italic', 'Helvetica Neue';font-style:italic;font-size:45.833px;fill:#8a969b;">% mar<tspan x="147.789px 174.097px " y="55.27px 55.27px ">gi</tspan>n</text><path d="M721.364,223.541l0,1078.3" style="fill:none;fill-rule:nonzero;stroke:#415056;stroke-width:2.85px;stroke-linecap:butt;stroke-miterlimit:4;"/><text x="695.413px" y="197.796px" style="font-family:'HelveticaNeue', 'Helvetica Neue';font-size:45.833px;fill:#8a969b;">15</text><path id="Georgia1" serif:id="Georgia" d="M265.42,250.566c8.768,48.774 17.536,97.548 52.609,146.322c35.072,48.774 231.869,97.548 306.885,146.322c75.017,48.774 143.214,97.548 143.214,146.322c-0,48.774 -333.191,97.548 -333.191,146.321c0,48.774 75.991,97.548 75.991,146.322c0,48.774 -39.554,97.548 -78.913,146.322c-39.36,48.774 -98.301,97.548 -157.243,146.322" style="fill:none;fill-rule:nonzero;stroke:url(#_Linear2);stroke-width:8.33px;stroke-linejoin:round;stroke-miterlimit:4;"/><path id="Georgia2" serif:id="Georgia" d="M265.42,227.805c-12.487,0 -22.761,10.275 -22.761,22.761c-0,12.486 10.274,22.761 22.761,22.761c12.486,0 22.761,-10.275 22.761,-22.761c-0,-12.486 -10.275,-22.761 -22.761,-22.761Z" style="fill:#2f87e4;fill-rule:nonzero;stroke:#ebebe8;stroke-width:4.17px;stroke-linecap:butt;stroke-linejoin:round;stroke-miterlimit:2;"/><path id="Georgia3" serif:id="Georgia" d="M318.029,374.127c-12.487,-0 -22.761,10.275 -22.761,22.761c-0,12.486 10.274,22.761 22.761,22.761c12.486,-0 22.761,-10.275 22.761,-22.761c-0,-12.486 -10.275,-22.761 -22.761,-22.761Z" style="fill:#9c1515;fill-rule:nonzero;stroke:#ebebe8;stroke-width:4.17px;stroke-linecap:butt;stroke-linejoin:round;stroke-miterlimit:2;"/><path id="Georgia4" serif:id="Georgia" d="M624.914,520.449c-12.486,-0 -22.761,10.274 -22.761,22.761c0,12.486 10.275,22.761 22.761,22.761c12.487,-0 22.761,-10.275 22.761,-22.761c0,-12.487 -10.274,-22.761 -22.761,-22.761Z" style="fill:#9c1515;fill-rule:nonzero;stroke:#ebebe8;stroke-width:4.17px;stroke-linecap:butt;stroke-linejoin:round;stroke-miterlimit:2;"/><path id="Georgia5" serif:id="Georgia" d="M768.128,666.771c-12.487,-0 -22.761,10.274 -22.761,22.761c-0,12.486 10.274,22.761 22.761,22.761c12.486,-0 22.761,-10.275 22.761,-22.761c-0,-12.487 -10.275,-22.761 -22.761,-22.761Z" style="fill:#9c1515;fill-rule:nonzero;stroke:#ebebe8;stroke-width:4.17px;stroke-linecap:butt;stroke-linejoin:round;stroke-miterlimit:2;"/><path id="Georgia6" serif:id="Georgia" d="M434.937,813.092c-12.486,0 -22.761,10.275 -22.761,22.761c0,12.487 10.275,22.762 22.761,22.762c12.487,-0 22.761,-10.275 22.761,-22.762c0,-12.486 -10.274,-22.761 -22.761,-22.761Z" style="fill:#9c1515;fill-rule:nonzero;stroke:#ebebe8;stroke-width:4.17px;stroke-linecap:butt;stroke-linejoin:round;stroke-miterlimit:2;"/><path id="Georgia7" serif:id="Georgia" d="M510.928,959.414c-12.486,0 -22.761,10.275 -22.761,22.761c0,12.487 10.275,22.761 22.761,22.761c12.487,0 22.761,-10.274 22.761,-22.761c0,-12.486 -10.274,-22.761 -22.761,-22.761Z" style="fill:#9c1515;fill-rule:nonzero;stroke:#ebebe8;stroke-width:4.17px;stroke-linecap:butt;stroke-linejoin:round;stroke-miterlimit:2;"/><path id="Georgia8" serif:id="Georgia" d="M432.015,1105.74c-12.487,0 -22.761,10.275 -22.761,22.761c-0,12.487 10.274,22.761 22.761,22.761c12.486,0 22.761,-10.274 22.761,-22.761c-0,-12.486 -10.275,-22.761 -22.761,-22.761Z" style="fill:#9c1515;fill-rule:nonzero;stroke:#ebebe8;stroke-width:4.17px;stroke-linecap:butt;stroke-linejoin:round;stroke-miterlimit:2;"/><path id="Georgia9" serif:id="Georgia" d="M274.772,1252.06c-12.486,0 -22.761,10.275 -22.761,22.761c0,12.486 10.275,22.761 22.761,22.761c12.487,0 22.761,-10.275 22.761,-22.761c0,-12.486 -10.274,-22.761 -22.761,-22.761Z" style="fill:#2f87e4;fill-rule:nonzero;stroke:#ebebe8;stroke-width:4.17px;stroke-linecap:butt;stroke-linejoin:round;stroke-miterlimit:2;"/></g></g><defs><linearGradient id="_Linear2" x1="0" y1="0" x2="1" y2="0" gradientUnits="userSpaceOnUse" gradientTransform="matrix(6.27174e-14,1024.25,-502.708,3.0782e-14,516.774,250.566)"><stop offset="0" style="stop-color:#2f87e4;stop-opacity:1"/><stop offset="0.12" style="stop-color:#9c1515;stop-opacity:1"/><stop offset="0.94" style="stop-color:#9c1515;stop-opacity:1"/><stop offset="1" style="stop-color:#2f87e4;stop-opacity:1"/></linearGradient></defs></svg>