<?xml version="1.0" encoding="UTF-8" standalone="no"?><!DOCTYPE svg PUBLIC "-//W3C//DTD SVG 1.1//EN" "http://www.w3.org/Graphics/SVG/1.1/DTD/svg11.dtd"><svg width="100%" height="100%" viewBox="0 0 804 1203" version="1.1" xmlns="http://www.w3.org/2000/svg" xmlns:xlink="http://www.w3.org/1999/xlink" xml:space="preserve" xmlns:serif="http://www.serif.com/" style="fill-rule:evenodd;clip-rule:evenodd;"><g><g id="header-svg"><g id="text-svg"></g></g><g id="footer-svg"><g id="footer-inner-svg"><g id="footer-main-svg"><g id="text-svg1" serif:id="text-svg"></g></g></g></g></g><rect id="Artboard2" x="0" y="-0" width="803.122" height="1202.56" style="fill:none;"/><clipPath id="_clip1"><rect x="0" y="-0" width="803.122" height="1202.56"/></clipPath><g clip-path="url(#_clip1)"><path d="M805.445,1259.1l0,-1477.8l-875.856,0l0,1477.8l875.856,0Z" style="fill:#1f3138;"/><g id="chart-svg"><g id="group-svg"><g id="group-svg1" serif:id="group-svg"><g id="x-svg-axis-svg" serif:id="x-svg axis-svg"><path d="M291.506,48.576l0,1136" style="fill:none;fill-rule:nonzero;stroke:#ebebe8;stroke-width:4.26px;"/></g><g id="y-grid-svg"><path d="M147.899,48.576l-0,1136" style="fill:none;fill-rule:nonzero;stroke:#415056;stroke-width:2.84px;"/><g><text x="123.668px" y="39.211px" style="font-family:'HelveticaNeue', 'Helvetica Neue';font-size:41.667px;fill:#8a969b;">−5</text></g><g id="tick-svg-tick-major-svg" serif:id="tick-svg tick-major-svg"><g><text x="280.372px" y="39.649px" style="font-family:'HelveticaNeue-Bold', 'Helvetica Neue';font-weight:700;font-size:41.667px;fill:#ebebe8;">0</text></g></g><path d="M578.537,48.576l-0,1136" style="fill:none;fill-rule:nonzero;stroke:#415056;stroke-width:2.84px;"/><g><text x="554.591px" y="39.52px" style="font-family:'HelveticaNeue', 'Helvetica Neue';font-size:41.667px;fill:#8a969b;">10</text></g><g><text x="355.579px" y="1175.48px" style="font-family:'HelveticaNeue-Bold', 'Helvetica Neue';font-weight:700;font-size:41.667px;fill:#2f87e4;">0.1%</text></g><path d="M434.745,48.576l0,1136" style="fill:none;fill-rule:nonzero;stroke:#415056;stroke-width:2.84px;"/><g><text x="423.55px" y="39.211px" style="font-family:'HelveticaNeue', 'Helvetica Neue';font-size:41.667px;fill:#8a969b;">5</text></g><path d="M722.328,48.576l0,1136" style="fill:none;fill-rule:nonzero;stroke:#415056;stroke-width:2.84px;"/><g><text x="698.484px" y="39.52px" style="font-family:'HelveticaNeue', 'Helvetica Neue';font-size:41.667px;fill:#8a969b;">15</text></g></g><g id="group-svg2" serif:id="group-svg"><g id="group-svg3" serif:id="group-svg"><g id="x-svg-ticks-svg" serif:id="x-svg ticks-svg"><g><g><text x="42.735px" y="78.583px" style="font-family:'HelveticaNeue', 'Helvetica Neue';font-size:41.667px;fill:#8a969b;">1992</text></g></g><g><g><text x="30.55px" y="235.971px" style="font-family:'LucidaGrande', 'Lucida Grande', sans-serif;font-weight:500;font-size:41.667px;fill:#8a969b;">1996</text></g></g><g><g><text x="30.192px" y="391.583px" style="font-family:'LucidaGrande', 'Lucida Grande', sans-serif;font-weight:500;font-size:41.667px;fill:#8a969b;">2000</text></g></g><g><g><text x="30.431px" y="547.88px" style="font-family:'LucidaGrande', 'Lucida Grande', sans-serif;font-weight:500;font-size:41.667px;fill:#8a969b;">2004</text></g></g><g><g><text x="30.172px" y="704.341px" style="font-family:'LucidaGrande', 'Lucida Grande', sans-serif;font-weight:500;font-size:41.667px;fill:#8a969b;">2008</text></g></g><g><g><text x="32.342px" y="860.022px" style="font-family:'LucidaGrande', 'Lucida Grande', sans-serif;font-weight:500;font-size:41.667px;fill:#8a969b;">2012</text></g></g><g><g><text x="30.55px" y="1016.97px" style="font-family:'LucidaGrande', 'Lucida Grande', sans-serif;font-weight:500;font-size:41.667px;fill:#8a969b;">2016</text></g></g><g><g><text x="30.192px" y="1173.45px" style="font-family:'LucidaGrande', 'Lucida Grande', sans-serif;font-weight:500;font-size:41.667px;fill:#8a969b;">2020</text></g></g></g><g id="lines-svg"><g id="Georgia-svg"><path id="Georgia" d="M274.273,69.268c8.617,52.124 17.233,104.248 51.699,156.373c34.466,52.124 227.857,104.248 301.576,156.373c73.718,52.124 140.735,104.248 140.735,156.373c-0,52.124 -327.425,104.248 -327.425,156.373c-0,52.124 74.676,104.248 74.676,156.373c-0,52.124 -40.163,104.248 -77.548,156.373c-21.222,29.587 -48.018,59.174 -77.226,88.761c-22.248,22.537 -45.894,45.075 -69.541,67.612" style="fill:none;fill-rule:nonzero;stroke:url(#_Linear2);stroke-width:5.68px;stroke-linecap:round;stroke-linejoin:round;"/></g></g><g id="line-symbols-svg"><path id="Georgia1" serif:id="Georgia" d="M274.273,52.088c-14.909,0 -27.177,7.755 -27.177,17.18c-0,9.424 12.268,17.179 27.177,17.179c14.909,0 27.177,-7.755 27.177,-17.179c0,-9.425 -12.268,-17.18 -27.177,-17.18Z" style="fill:#2f87e4;fill-rule:nonzero;stroke:#ebebe8;stroke-width:4.17px;stroke-linejoin:round;stroke-miterlimit:2;"/><path id="Georgia2" serif:id="Georgia" d="M325.972,208.461c-14.909,0 -27.178,7.755 -27.178,17.18c0,9.424 12.269,17.179 27.178,17.179c14.909,0 27.177,-7.755 27.177,-17.179c0,-9.425 -12.268,-17.18 -27.177,-17.18Z" style="fill:#9c1515;fill-rule:nonzero;stroke:#ebebe8;stroke-width:4.17px;stroke-linejoin:round;stroke-miterlimit:2;"/><path id="Georgia3" serif:id="Georgia" d="M627.548,364.834c-14.909,0 -27.178,7.755 -27.178,17.18c0,9.424 12.269,17.179 27.178,17.179c14.909,0 27.177,-7.755 27.177,-17.179c-0,-9.425 -12.268,-17.18 -27.177,-17.18Z" style="fill:#9c1515;fill-rule:nonzero;stroke:#ebebe8;stroke-width:4.17px;stroke-linejoin:round;stroke-miterlimit:2;"/><path id="Georgia4" serif:id="Georgia" d="M768.283,521.207c-14.909,0 -27.177,7.755 -27.177,17.18c-0,9.424 12.268,17.179 27.177,17.179c14.909,0 27.177,-7.755 27.177,-17.179c0,-9.425 -12.268,-17.18 -27.177,-17.18Z" style="fill:#9c1515;fill-rule:nonzero;stroke:#ebebe8;stroke-width:4.17px;stroke-linejoin:round;stroke-miterlimit:2;"/><path id="Georgia5" serif:id="Georgia" d="M440.858,677.58c-14.909,0 -27.178,7.755 -27.178,17.18c0,9.424 12.269,17.179 27.178,17.179c14.909,0 27.177,-7.755 27.177,-17.179c0,-9.425 -12.268,-17.18 -27.177,-17.18Z" style="fill:#9c1515;fill-rule:nonzero;stroke:#ebebe8;stroke-width:4.17px;stroke-linejoin:round;stroke-miterlimit:2;"/><path id="Georgia6" serif:id="Georgia" d="M515.534,833.953c-14.909,0 -27.178,7.755 -27.178,17.18c0,9.424 12.269,17.179 27.178,17.179c14.909,0 27.177,-7.755 27.177,-17.179c0,-9.425 -12.268,-17.18 -27.177,-17.18Z" style="fill:#9c1515;fill-rule:nonzero;stroke:#ebebe8;stroke-width:4.17px;stroke-linejoin:round;stroke-miterlimit:2;"/><path id="Georgia7" serif:id="Georgia" d="M437.986,990.326c-14.909,0 -27.178,7.755 -27.178,17.18c0,9.424 12.269,17.179 27.178,17.179c14.909,0 27.177,-7.755 27.177,-17.179c-0,-9.425 -12.268,-17.18 -27.177,-17.18Z" style="fill:#9c1515;fill-rule:nonzero;stroke:#ebebe8;stroke-width:4.17px;stroke-linejoin:round;stroke-miterlimit:2;"/><path id="Georgia8" serif:id="Georgia" d="M291.219,1146.7c-14.909,0 -27.178,7.755 -27.178,17.18c0,9.424 12.269,17.179 27.178,17.179c14.909,0 27.177,-7.755 27.177,-17.179c0,-9.425 -12.268,-17.18 -27.177,-17.18Z" style="fill:#2f87e4;fill-rule:nonzero;stroke:#ebebe8;stroke-width:4.17px;stroke-linejoin:round;stroke-miterlimit:2;"/></g></g><g><path id="Georgia9" serif:id="Georgia" d="M274.156,41.991c-14.909,0 -27.177,12.269 -27.177,27.178c0,14.909 12.268,27.177 27.177,27.177c14.909,-0 27.178,-12.268 27.178,-27.177c-0,-14.909 -12.269,-27.178 -27.178,-27.178Z" style="fill:#2f87e4;fill-rule:nonzero;stroke:#ebebe8;stroke-width:4.17px;stroke-linejoin:round;stroke-miterlimit:2;"/><path id="Georgia10" serif:id="Georgia" d="M325.878,197.948c-14.909,-0 -27.177,12.268 -27.177,27.177c-0,14.909 12.268,27.177 27.177,27.177c14.909,0 27.178,-12.268 27.178,-27.177c-0,-14.909 -12.269,-27.177 -27.178,-27.177Z" style="fill:#9c1515;fill-rule:nonzero;stroke:#ebebe8;stroke-width:4.17px;stroke-linejoin:round;stroke-miterlimit:2;"/><path id="Georgia11" serif:id="Georgia" d="M627.413,354.089c-14.909,0 -27.177,12.268 -27.177,27.177c0,14.909 12.268,27.178 27.177,27.178c14.91,-0 27.178,-12.269 27.178,-27.178c-0,-14.909 -12.268,-27.177 -27.178,-27.177Z" style="fill:#9c1515;fill-rule:nonzero;stroke:#ebebe8;stroke-width:4.17px;stroke-linejoin:round;stroke-miterlimit:2;"/><path id="Georgia12" serif:id="Georgia" d="M768.166,510.897c-14.909,-0 -27.177,12.268 -27.177,27.177c-0,14.909 12.268,27.177 27.177,27.177c14.909,0 27.178,-12.268 27.178,-27.177c-0,-14.909 -12.269,-27.177 -27.178,-27.177Z" style="fill:#9c1515;fill-rule:nonzero;stroke:#ebebe8;stroke-width:4.17px;stroke-linejoin:round;stroke-miterlimit:2;"/><path id="Georgia13" serif:id="Georgia" d="M440.741,667.255c-14.909,0 -27.177,12.269 -27.177,27.178c-0,14.909 12.268,27.177 27.177,27.177c14.909,0 27.177,-12.268 27.177,-27.177c0,-14.909 -12.268,-27.178 -27.177,-27.178Z" style="fill:#9c1515;fill-rule:nonzero;stroke:#ebebe8;stroke-width:4.17px;stroke-linejoin:round;stroke-miterlimit:2;"/><path id="Georgia14" serif:id="Georgia" d="M515.417,824.073c-14.909,0 -27.177,12.269 -27.177,27.178c-0,14.909 12.268,27.177 27.177,27.177c14.909,0 27.177,-12.268 27.177,-27.177c0,-14.909 -12.268,-27.178 -27.177,-27.178Z" style="fill:#9c1515;fill-rule:nonzero;stroke:#ebebe8;stroke-width:4.17px;stroke-linejoin:round;stroke-miterlimit:2;"/><path id="Georgia15" serif:id="Georgia" d="M437.869,980.061c-14.909,-0 -27.177,12.268 -27.177,27.177c-0,14.909 12.268,27.177 27.177,27.177c14.909,0 27.177,-12.268 27.177,-27.177c0,-14.909 -12.268,-27.177 -27.177,-27.177Z" style="fill:#9c1515;fill-rule:nonzero;stroke:#ebebe8;stroke-width:4.17px;stroke-linejoin:round;stroke-miterlimit:2;"/><path id="Georgia16" serif:id="Georgia" d="M291.102,1136.35c-14.909,0 -27.177,12.269 -27.177,27.178c-0,14.909 12.268,27.177 27.177,27.177c14.909,-0 27.177,-12.268 27.177,-27.177c0,-14.909 -12.268,-27.178 -27.177,-27.178Z" style="fill:#2f87e4;fill-rule:nonzero;stroke:#ebebe8;stroke-width:4.17px;stroke-linejoin:round;stroke-miterlimit:2;"/></g></g></g></g></g></g><defs><linearGradient id="_Linear2" x1="0" y1="0" x2="1" y2="0" gradientUnits="userSpaceOnUse" gradientTransform="matrix(1.06032e-13,1094.61,-494.01,1.91214e-14,521.278,69.2678)"><stop offset="0" style="stop-color:#2f87e4;stop-opacity:1"/><stop offset="0.19" style="stop-color:#9c1515;stop-opacity:1"/><stop offset="0.96" style="stop-color:#9c1515;stop-opacity:1"/><stop offset="1" style="stop-color:#2f87e4;stop-opacity:1"/></linearGradient></defs></svg>