<?xml version="1.0" encoding="UTF-8" standalone="no"?><!DOCTYPE svg PUBLIC "-//W3C//DTD SVG 1.1//EN" "http://www.w3.org/Graphics/SVG/1.1/DTD/svg11.dtd"><svg width="100%" height="100%" viewBox="0 0 1334 1626" version="1.1" xmlns="http://www.w3.org/2000/svg" xmlns:xlink="http://www.w3.org/1999/xlink" xml:space="preserve" xmlns:serif="http://www.serif.com/" style="fill-rule:evenodd;clip-rule:evenodd;stroke-linecap:round;stroke-linejoin:round;stroke-miterlimit:1.5;"><rect id="house-flips-mobile" x="0" y="0" width="1333.33" height="1625.42" style="fill:none;"/><clipPath id="_clip1"><rect x="0" y="0" width="1333.33" height="1625.42"/></clipPath><g clip-path="url(#_clip1)"><rect x="-48.953" y="-20.723" width="1478.8" height="1776.55" style="fill:#1f3138;"/><g><rect x="466.791" y="558.855" width="170.071" height="173.935" style="fill:#9c1515;stroke:#ebebe8;stroke-width:6.25px;"/><rect x="689.362" y="558.855" width="170.071" height="173.935" style="fill:#9c1515;stroke:#ebebe8;stroke-width:6.25px;"/><rect x="21.651" y="558.855" width="170.071" height="173.935" style="fill:#9c1515;stroke:#ebebe8;stroke-width:6.25px;"/><rect x="244.221" y="558.855" width="170.071" height="173.935" style="fill:#9c1515;stroke:#ebebe8;stroke-width:6.25px;"/><rect x="911.932" y="558.855" width="170.071" height="173.935" style="fill:#9c1515;stroke:#ebebe8;stroke-width:6.25px;"/><text x="23.055px" y="547.876px" style="font-family:'HelveticaNeue-Bold', 'Helvetica Neue';font-weight:700;font-size:57.16px;fill:#ebebe8;">C<tspan x="63.809px 101.483px 123.867px 154.446px " y="547.876px 547.876px 547.876px 547.876px ">A-39</tspan></text><text x="254.802px" y="547.133px" style="font-family:'HelveticaNeue-Bold', 'Helvetica Neue';font-weight:700;font-size:57.16px;fill:#ebebe8;">C<tspan x="295.556px 333.23px 355.614px 386.193px " y="547.133px 547.133px 547.133px 547.133px ">A-48</tspan></text><text x="483.338px" y="547.876px" style="font-family:'HelveticaNeue-Bold', 'Helvetica Neue';font-weight:700;font-size:57.16px;fill:#ebebe8;">F<tspan x="515.952px 548.566px 570.95px 601.529px " y="547.876px 547.876px 547.876px 547.876px ">L-26</tspan></text><text x="707.636px" y="547.133px" style="font-family:'HelveticaNeue-Bold', 'Helvetica Neue';font-weight:700;font-size:57.16px;fill:#ebebe8;">F<tspan x="740.25px 772.864px 795.248px 825.827px " y="547.133px 547.133px 547.133px 547.133px ">L-27</tspan></text><text x="926.919px" y="547.876px" style="font-family:'HelveticaNeue-Bold', 'Helvetica Neue';font-weight:700;font-size:57.16px;fill:#ebebe8;">I<tspan x="943.143px 980.817px 1003.2px 1033.78px " y="547.876px 547.876px 547.876px 547.876px ">A-01</tspan></text><text x="51.603px" y="666.277px" style="font-family:'HelveticaNeue-Bold', 'Helvetica Neue';font-weight:700;font-size:57.16px;fill:#ebebe8;">+<tspan x="84.602px 115.181px 130.47px " y="666.277px 666.277px 666.277px ">1.2</tspan></text><text x="277.418px" y="666.277px" style="font-family:'HelveticaNeue-Bold', 'Helvetica Neue';font-weight:700;font-size:57.16px;fill:#ebebe8;">+<tspan x="310.417px 340.996px 356.286px " y="666.277px 666.277px 666.277px ">2.1</tspan></text><text x="942.513px" y="666.249px" style="font-family:'HelveticaNeue-Bold', 'Helvetica Neue';font-weight:700;font-size:57.16px;fill:#ebebe8;">+<tspan x="975.512px 1006.09px 1021.38px " y="666.249px 666.249px 666.249px ">2.6</tspan></text><rect x="1134.71" y="558.855" width="170.071" height="173.935" style="fill:#9c1515;stroke:#ebebe8;stroke-width:6.25px;"/><text x="1140.98px" y="547.876px" style="font-family:'HelveticaNeue-Bold', 'Helvetica Neue';font-weight:700;font-size:57.16px;fill:#ebebe8;">N<tspan x="1181.73px 1212.31px 1234.7px 1265.28px " y="547.876px 547.876px 547.876px 547.876px ">Y-11</tspan></text><text x="1150px" y="666.249px" style="font-family:'HelveticaNeue-Bold', 'Helvetica Neue';font-weight:700;font-size:57.16px;fill:#ebebe8;">+<tspan x="1183px 1213.58px 1244.16px 1259.45px " y="666.249px 666.249px 666.249px 666.249px ">15.8</tspan></text><text x="497.943px" y="666.277px" style="font-family:'HelveticaNeue-Bold', 'Helvetica Neue';font-weight:700;font-size:57.16px;fill:#ebebe8;">+<tspan x="530.942px 561.521px 576.811px " y="666.277px 666.277px 666.277px ">3.3</tspan></text><text x="717.622px" y="666.249px" style="font-family:'HelveticaNeue-Bold', 'Helvetica Neue';font-weight:700;font-size:57.16px;fill:#ebebe8;">+<tspan x="750.621px 781.2px 796.49px " y="666.249px 666.249px 666.249px ">2.7</tspan></text></g><g><rect x="466.791" y="855.961" width="170.071" height="173.935" style="fill:#9c1515;stroke:#ebebe8;stroke-width:6.25px;"/><rect x="689.362" y="855.961" width="170.071" height="173.935" style="fill:#9c1515;stroke:#ebebe8;stroke-width:6.25px;"/><rect x="21.651" y="855.961" width="170.071" height="173.935" style="fill:#9c1515;stroke:#ebebe8;stroke-width:6.25px;"/><rect x="244.221" y="855.961" width="170.071" height="173.935" style="fill:#9c1515;stroke:#ebebe8;stroke-width:6.25px;"/><rect x="911.932" y="855.961" width="170.071" height="173.935" style="fill:#9c1515;stroke:#ebebe8;stroke-width:6.25px;"/><text x="29.215px" y="844.983px" style="font-family:'HelveticaNeue-Bold', 'Helvetica Neue';font-weight:700;font-size:57.16px;fill:#ebebe8;">M<tspan x="79.098px 95.323px 117.707px 148.286px " y="844.983px 844.983px 844.983px 844.983px ">I-03</tspan></text><text x="248.698px" y="844.24px" style="font-family:'HelveticaNeue-Bold', 'Helvetica Neue';font-weight:700;font-size:57.16px;fill:#ebebe8;">M<tspan x="298.581px 339.335px 361.719px 392.298px " y="844.24px 844.24px 844.24px 844.24px ">N-07</tspan></text><text x="470.633px" y="844.983px" style="font-family:'HelveticaNeue-Bold', 'Helvetica Neue';font-weight:700;font-size:57.16px;fill:#ebebe8;">N<tspan x="511.387px 561.27px 583.655px 614.234px " y="844.983px 844.983px 844.983px 844.983px ">M-02</tspan></text><text x="699.001px" y="844.24px" style="font-family:'HelveticaNeue-Bold', 'Helvetica Neue';font-weight:700;font-size:57.16px;fill:#ebebe8;">O<tspan x="741.79px 781.499px 803.883px 834.462px " y="844.24px 844.24px 844.24px 844.24px ">K-05</tspan></text><text x="915.644px" y="844.983px" style="font-family:'HelveticaNeue-Bold', 'Helvetica Neue';font-weight:700;font-size:57.16px;fill:#ebebe8;">S<tspan x="951.338px 992.092px 1014.48px 1045.06px " y="844.983px 844.983px 844.983px 844.983px ">C-01</tspan></text><text x="51.603px" y="959.812px" style="font-family:'HelveticaNeue-Bold', 'Helvetica Neue';font-weight:700;font-size:57.16px;fill:#ebebe8;">+<tspan x="84.602px 115.181px 130.47px " y="959.812px 959.812px 959.812px ">5.9</tspan></text><text x="262.129px" y="959.812px" style="font-family:'HelveticaNeue-Bold', 'Helvetica Neue';font-weight:700;font-size:57.16px;fill:#ebebe8;">+<tspan x="295.128px 325.707px 356.286px 371.575px " y="959.812px 959.812px 959.812px 959.812px ">13.6</tspan></text><text x="942.513px" y="959.783px" style="font-family:'HelveticaNeue-Bold', 'Helvetica Neue';font-weight:700;font-size:57.16px;fill:#ebebe8;">+<tspan x="975.512px 1006.09px 1021.38px " y="959.783px 959.783px 959.783px ">1.3</tspan></text><g><rect x="1133.87" y="855.961" width="170.071" height="173.935" style="fill:#9c1515;stroke:#ebebe8;stroke-width:6.25px;"/><text x="1142.17px" y="844.983px" style="font-family:'HelveticaNeue-Bold', 'Helvetica Neue';font-weight:700;font-size:57.16px;fill:#ebebe8;">U<tspan x="1182.93px 1209.44px 1231.82px 1262.4px " y="844.983px 844.983px 844.983px 844.983px ">T-04</tspan></text><text x="1164.45px" y="959.783px" style="font-family:'HelveticaNeue-Bold', 'Helvetica Neue';font-weight:700;font-size:57.16px;fill:#ebebe8;">+<tspan x="1197.45px 1228.03px 1243.32px " y="959.783px 959.783px 959.783px ">1.0</tspan></text></g><text x="497.943px" y="959.812px" style="font-family:'HelveticaNeue-Bold', 'Helvetica Neue';font-weight:700;font-size:57.16px;fill:#ebebe8;">+<tspan x="530.942px 561.521px 576.811px " y="959.812px 959.812px 959.812px ">7.5</tspan></text><text x="717.622px" y="959.783px" style="font-family:'HelveticaNeue-Bold', 'Helvetica Neue';font-weight:700;font-size:57.16px;fill:#ebebe8;">+<tspan x="750.621px 781.2px 796.49px " y="959.783px 959.783px 959.783px ">4.1</tspan></text><rect x="629.535" y="1362.67" width="170.071" height="173.935" style="fill:#337fd8;stroke:#ebebe8;stroke-width:6.25px;"/><rect x="852.105" y="1362.67" width="170.071" height="173.935" style="fill:#337fd8;stroke:#ebebe8;stroke-width:6.25px;"/><rect x="1074.68" y="1362.67" width="170.071" height="173.935" style="fill:#337fd8;stroke:#ebebe8;stroke-width:6.25px;"/><text x="638.987px" y="1351.69px" style="font-family:'HelveticaNeue-Bold', 'Helvetica Neue';font-weight:700;font-size:57.16px;fill:#ebebe8;">G<tspan x="680.73px 718.404px 740.789px 771.368px " y="1351.69px 1351.69px 1351.69px 1351.69px ">A-07</tspan></text><text x="862.24px" y="1350.95px" style="font-family:'HelveticaNeue-Bold', 'Helvetica Neue';font-weight:700;font-size:57.16px;fill:#ebebe8;">N<tspan x="902.994px 943.748px 966.132px 996.711px " y="1350.95px 1350.95px 1350.95px 1350.95px ">C-02</tspan></text><text x="1075.86px" y="1351.69px" style="font-family:'HelveticaNeue-Bold', 'Helvetica Neue';font-weight:700;font-size:57.16px;fill:#ebebe8;">N<tspan x="1116.61px 1157.37px 1179.75px 1210.33px " y="1351.69px 1351.69px 1351.69px 1351.69px ">C-06</tspan></text><text x="1089.97px" y="1466.49px" style="font-family:'HelveticaNeue-Bold', 'Helvetica Neue';font-weight:700;font-size:57.16px;fill:#ebebe8;">+<tspan x="1122.97px 1153.55px 1184.12px 1199.41px " y="1466.49px 1466.49px 1466.49px 1466.49px ">24.5</tspan></text><text x="660.106px" y="1466.52px" style="font-family:'HelveticaNeue-Bold', 'Helvetica Neue';font-weight:700;font-size:57.16px;fill:#ebebe8;">+<tspan x="693.855px 725.128px 740.765px " y="1466.52px 1466.52px 1466.52px ">2.8</tspan></text><text x="865.077px" y="1466.49px" style="font-family:'HelveticaNeue-Bold', 'Helvetica Neue';font-weight:700;font-size:57.16px;fill:#ebebe8;">+<tspan x="898.076px 928.655px 959.234px 974.523px " y="1466.49px 1466.49px 1466.49px 1466.49px ">28.1</tspan></text></g><g transform="matrix(3.49316,0,0,3.57251,-99.4314,-4953.36)"><g transform="matrix(0.984035,0,0,1,0.540511,0)"><text x="33.857px" y="1406.41px" style="font-family:'HelveticaNeue-Light', 'Helvetica Neue';font-weight:300;font-size:16px;fill:#ebebe8;">The Republicans have ﬂipped 12 seats so far<tspan x="341.201px 345.649px " y="1406.41px 1406.41px ">, </tspan>while the</text></g><g transform="matrix(0.984035,0,0,1,0.540511,0)"><text x="33.857px" y="1426.41px" style="font-family:'HelveticaNeue-Light', 'Helvetica Neue';font-weight:300;font-size:16px;fill:#ebebe8;">Democrats have ﬂipped thr<tspan x="219.377px 227.681px " y="1426.41px 1426.41px ">ee</tspan>.</text></g></g><g transform="matrix(3.49316,0,0,3.57251,-2290.46,-4772.97)"><g transform="matrix(0.984035,0,0,1,12.8398,0)"><text x="804.26px" y="1406.41px" style="font-family:'HelveticaNeue', 'Helvetica Neue';font-size:12px;fill:#ebebe8;">Key Florida races in Miami-Dade</text></g><g transform="matrix(0.984035,0,0,1,12.8504,0)"><text x="804.927px" y="1418.75px" style="font-family:'HelveticaNeue', 'Helvetica Neue';font-size:12px;fill:#ebebe8;">County followed the Pr<tspan x="927.375px 933.819px " y="1418.75px 1418.75px ">es</tspan>idential</text></g><g transform="matrix(0.984035,0,0,1,12.8712,0)"><text x="806.226px" y="1431.08px" style="font-family:'HelveticaNeue', 'Helvetica Neue';font-size:12px;fill:#ebebe8;">race and ﬂipped to Republicans</text></g></g><g transform="matrix(3.49316,0,0,3.57251,-2760.39,-3816.34)"><g transform="matrix(0.984035,0,0,1,13.1158,0)"><text x="821.547px" y="1406.41px" style="font-family:'HelveticaNeue', 'Helvetica Neue';font-size:12px;fill:#ebebe8;">After narr<tspan x="871.323px 878.211px " y="1406.41px 1406.41px ">ow</tspan>ly missing out</text></g><g transform="matrix(0.984035,0,0,1,13.0875,0)"><text x="819.776px" y="1418.75px" style="font-family:'HelveticaNeue', 'Helvetica Neue';font-size:12px;fill:#ebebe8;">in 2018, Democrat Car<tspan x="940.712px 947.6px " y="1418.75px 1418.75px ">ol</tspan>yn</text></g><g transform="matrix(0.984035,0,0,1,13.2815,0)"><text x="831.927px" y="1431.08px" style="font-family:'HelveticaNeue', 'Helvetica Neue';font-size:12px;fill:#ebebe8;">Bor<tspan x="850.815px 857.931px " y="1431.08px 1431.08px ">de</tspan>aux secur<tspan x="916.383px 922.827px " y="1431.08px 1431.08px ">ed</tspan> her</text></g><g transform="matrix(0.984035,0,0,1,13.1488,0)"><text x="823.62px" y="1443.42px" style="font-family:'HelveticaNeue', 'Helvetica Neue';font-size:12px;fill:#ebebe8;">victory in GA-07 this year</text></g></g><path d="M684.201,462.805l-11.499,13.427l-13.427,-11.499" style="fill:none;stroke:#ebebe8;stroke-width:4.17px;stroke-linejoin:miter;stroke-miterlimit:10;"/><path d="M722.405,357.505c0,-0 -56.364,24.858 -49.703,118.727" style="fill:none;stroke:#ebebe8;stroke-width:4.17px;"/><path d="M949.145,468.027l-12.406,12.594l-12.594,-12.406" style="fill:none;stroke:#ebebe8;stroke-width:4.17px;stroke-linejoin:miter;stroke-miterlimit:10;"/><path d="M888.529,361.009c0,0 47.04,42.062 48.21,119.612" style="fill:none;stroke:#ebebe8;stroke-width:4.17px;"/><path d="M538.941,1444.82l12.494,12.506l-12.506,12.494" style="fill:none;stroke:#ebebe8;stroke-width:4.17px;stroke-linejoin:miter;stroke-miterlimit:10;"/><path d="M400.888,1373.65c-0,-0 -11.623,83.094 150.547,83.672" style="fill:none;stroke:#ebebe8;stroke-width:4.17px;"/></g></svg>