<?xml version="1.0" encoding="UTF-8" standalone="no"?><!DOCTYPE svg PUBLIC "-//W3C//DTD SVG 1.1//EN" "http://www.w3.org/Graphics/SVG/1.1/DTD/svg11.dtd"><svg width="100%" height="100%" viewBox="0 0 2927 1225" version="1.1" xmlns="http://www.w3.org/2000/svg" xmlns:xlink="http://www.w3.org/1999/xlink" xml:space="preserve" xmlns:serif="http://www.serif.com/" style="fill-rule:evenodd;clip-rule:evenodd;stroke-linecap:round;stroke-linejoin:round;stroke-miterlimit:1.5;"><rect id="house-flips" x="-0" y="0" width="2926.67" height="1225" style="fill:none;"/><clipPath id="_clip1"><rect x="-0" y="0" width="2926.67" height="1225"/></clipPath><g clip-path="url(#_clip1)"><rect x="-45.27" y="-10.326" width="3025.98" height="1343.93" style="fill:#1f3138;"/><rect x="756.907" y="566.791" width="202.327" height="202.327" style="fill:#9c1515;stroke:#ebebe8;stroke-width:6.25px;"/><rect x="212.238" y="924.223" width="202.327" height="202.327" style="fill:#9c1515;stroke:#ebebe8;stroke-width:6.25px;"/><rect x="2452.12" y="718.292" width="202.327" height="202.327" style="fill:#337fd8;stroke:#ebebe8;stroke-width:6.25px;"/><rect x="1029.24" y="566.791" width="202.327" height="202.327" style="fill:#9c1515;stroke:#ebebe8;stroke-width:6.25px;"/><rect x="484.572" y="924.223" width="202.327" height="202.327" style="fill:#9c1515;stroke:#ebebe8;stroke-width:6.25px;"/><rect x="212.238" y="566.791" width="202.327" height="202.327" style="fill:#9c1515;stroke:#ebebe8;stroke-width:6.25px;"/><rect x="1902.65" y="718.292" width="202.327" height="202.327" style="fill:#337fd8;stroke:#ebebe8;stroke-width:6.25px;"/><rect x="1029.24" y="924.223" width="202.327" height="202.327" style="fill:#9c1515;stroke:#ebebe8;stroke-width:6.25px;"/><rect x="484.572" y="566.791" width="202.327" height="202.327" style="fill:#9c1515;stroke:#ebebe8;stroke-width:6.25px;"/><rect x="2174.98" y="718.292" width="202.327" height="202.327" style="fill:#337fd8;stroke:#ebebe8;stroke-width:6.25px;"/><rect x="1301.58" y="924.223" width="202.327" height="202.327" style="fill:#9c1515;stroke:#ebebe8;stroke-width:6.25px;"/><rect x="1301.58" y="566.791" width="202.327" height="202.327" style="fill:#9c1515;stroke:#ebebe8;stroke-width:6.25px;"/><rect x="756.907" y="924.223" width="202.327" height="202.327" style="fill:#9c1515;stroke:#ebebe8;stroke-width:6.25px;"/><text x="164.393px" y="131.863px" style="font-family:'HelveticaNeue-Light', 'Helvetica Neue';font-weight:300;font-size:70.793px;fill:#ebebe8;">T<tspan x="203.126px 240.535px 276.69px 296.056px 342.521px 378.677px 418.663px 456.072px 496.059px 508.946px 521.834px 557.989px 594.144px 631.553px 665.061px 684.428px 721.837px 757.992px 790.246px 826.401px 845.767px 876.698px 889.585px 929.572px 969.558px 1005.71px 1045.7px 1065.07px 1103.8px 1142.53px 1161.9px 1195.41px 1231.56px 1267.72px 1288.34px 1321.84px 1341.21px 1374.72px 1413.45px 1432.82px 1450.86px 1487.02px 1502.55px 1521.92px 1541.28px 1592.9px 1630.31px 1643.2px 1656.09px 1692.24px 1711.61px 1732.23px 1769.64px 1805.79px 1825.16px 1872.88px 1909.03px 1967.06px 2005.8px 2041.95px 2063.89px 2100.05px 2120.67px 2154.18px 2173.55px 2210.95px 2247.11px 2279.36px 2315.52px 2334.88px 2365.82px 2378.7px 2418.69px 2458.68px 2494.83px 2534.82px 2554.18px 2574.8px 2612.21px 2632.9px 2669.06px 2705.21px " y="131.863px 131.863px 131.863px 131.863px 131.863px 131.863px 131.863px 131.863px 131.863px 131.863px 131.863px 131.863px 131.863px 131.863px 131.863px 131.863px 131.863px 131.863px 131.863px 131.863px 131.863px 131.863px 131.863px 131.863px 131.863px 131.863px 131.863px 131.863px 131.863px 131.863px 131.863px 131.863px 131.863px 131.863px 131.863px 131.863px 131.863px 131.863px 131.863px 131.863px 131.863px 131.863px 131.863px 131.863px 131.863px 131.863px 131.863px 131.863px 131.863px 131.863px 131.863px 131.863px 131.863px 131.863px 131.863px 131.863px 131.863px 131.863px 131.863px 131.863px 131.863px 131.863px 131.863px 131.863px 131.863px 131.863px 131.863px 131.863px 131.863px 131.863px 131.863px 131.863px 131.863px 131.863px 131.863px 131.863px 131.863px 131.863px 131.863px 131.863px 131.863px 131.863px ">he Republicans have ﬂipped 10 seats so far, while the Democrats have ﬂipped three.</tspan></text><g transform="matrix(1.41586,0,0,1.41586,-247.678,-1753.66)"><g transform="matrix(0.984035,0,0,1,10.5527,0)"><text x="661.004px" y="1406.41px" style="font-family:'HelveticaNeue', 'Helvetica Neue';font-size:32px;fill:#ebebe8;">Key Florida races in Miami-Dade</text></g><g transform="matrix(0.984035,0,0,1,10.5811,0)"><text x="662.783px" y="1439.31px" style="font-family:'HelveticaNeue', 'Helvetica Neue';font-size:32px;fill:#ebebe8;">County followed the Pr<tspan x="989.311px 1006.5px " y="1439.31px 1439.31px ">es</tspan>idential</text></g><g transform="matrix(0.984035,0,0,1,10.6364,0)"><text x="666.247px" y="1472.2px" style="font-family:'HelveticaNeue', 'Helvetica Neue';font-size:32px;fill:#ebebe8;">race and ﬂipped to Republicans</text></g></g><g transform="matrix(1.41586,0,0,1.41586,830.081,-1643.03)"><g transform="matrix(0.984035,0,0,1,10.3245,0)"><text x="646.708px" y="1406.41px" style="font-family:'HelveticaNeue', 'Helvetica Neue';font-size:32px;fill:#ebebe8;">After narr<tspan x="779.444px 797.812px " y="1406.41px 1406.41px ">ow</tspan>ly missing out in 2018,</text></g><g transform="matrix(0.984035,0,0,1,10.0545,0)"><text x="629.798px" y="1439.31px" style="font-family:'HelveticaNeue', 'Helvetica Neue';font-size:32px;fill:#ebebe8;">Democrat Car<tspan x="829.542px 847.91px " y="1439.31px 1439.31px ">ol</tspan>yn Bor<tspan x="948.07px 967.046px " y="1439.31px 1439.31px ">de</tspan>aux secur<tspan x="1122.92px 1140.1px " y="1439.31px 1439.31px ">ed</tspan></text></g><g transform="matrix(0.984035,0,0,1,10.9486,0)"><text x="685.802px" y="1472.2px" style="font-family:'HelveticaNeue', 'Helvetica Neue';font-size:32px;fill:#ebebe8;">her victory in GA-07 this year</text></g></g><text x="234.909px" y="546.661px" style="font-family:'HelveticaNeue-Bold', 'Helvetica Neue';font-weight:700;font-size:56.635px;fill:#ebebe8;">C<tspan x="276.205px 314.38px 337.063px 368.049px " y="546.661px 546.661px 546.661px 546.661px ">A-39</tspan></text><text x="242.148px" y="695.734px" style="font-family:'HelveticaNeue-Bold', 'Helvetica Neue';font-weight:700;font-size:70.793px;fill:#ebebe8;">+<tspan x="283.946px 322.679px 342.045px " y="695.734px 695.734px 695.734px ">1.2</tspan></text><text x="550.202px" y="695.734px" style="font-family:'HelveticaNeue-Bold', 'Helvetica Neue';font-weight:700;font-size:70.793px;fill:#ebebe8;">+<tspan x="592px " y="695.734px ">2</tspan></text><text x="814.952px" y="695.734px" style="font-family:'HelveticaNeue-Bold', 'Helvetica Neue';font-weight:700;font-size:70.793px;fill:#ebebe8;">+<tspan x="856.75px " y="695.734px ">3</tspan></text><text x="1096.08px" y="695.734px" style="font-family:'HelveticaNeue-Bold', 'Helvetica Neue';font-weight:700;font-size:70.793px;fill:#ebebe8;">+<tspan x="1137.88px " y="695.734px ">3</tspan></text><text x="1368.01px" y="694.011px" style="font-family:'HelveticaNeue-Bold', 'Helvetica Neue';font-weight:700;font-size:70.793px;fill:#ebebe8;">+<tspan x="1409.81px " y="694.011px ">3</tspan></text><text x="1963.15px" y="847.235px" style="font-family:'HelveticaNeue-Bold', 'Helvetica Neue';font-weight:700;font-size:70.793px;fill:#ebebe8;">+<tspan x="2004.94px " y="847.235px ">3</tspan></text><text x="2218.12px" y="847.235px" style="font-family:'HelveticaNeue-Bold', 'Helvetica Neue';font-weight:700;font-size:70.793px;fill:#ebebe8;">+<tspan x="2259.92px 2298.65px " y="847.235px 847.235px ">28</tspan></text><text x="271.198px" y="1051.4px" style="font-family:'HelveticaNeue-Bold', 'Helvetica Neue';font-weight:700;font-size:70.793px;fill:#ebebe8;">+<tspan x="312.996px " y="1051.4px ">6</tspan></text><text x="522.453px" y="1051.4px" style="font-family:'HelveticaNeue-Bold', 'Helvetica Neue';font-weight:700;font-size:70.793px;fill:#ebebe8;">+<tspan x="564.251px 602.984px " y="1051.4px 1051.4px ">13</tspan></text><text x="814.952px" y="1051.4px" style="font-family:'HelveticaNeue-Bold', 'Helvetica Neue';font-weight:700;font-size:70.793px;fill:#ebebe8;">+<tspan x="856.75px " y="1051.4px ">8</tspan></text><text x="1081.83px" y="1051.4px" style="font-family:'HelveticaNeue-Bold', 'Helvetica Neue';font-weight:700;font-size:70.793px;fill:#ebebe8;">+<tspan x="1123.63px " y="1051.4px ">4</tspan></text><text x="1328.96px" y="1051.4px" style="font-family:'HelveticaNeue-Bold', 'Helvetica Neue';font-weight:700;font-size:70.793px;fill:#ebebe8;">+<tspan x="1370.76px 1409.49px 1428.85px " y="1051.4px 1051.4px 1051.4px ">1.3</tspan></text><text x="2492.93px" y="844.734px" style="font-family:'HelveticaNeue-Bold', 'Helvetica Neue';font-weight:700;font-size:70.793px;fill:#ebebe8;">+<tspan x="2534.73px 2573.46px " y="844.734px 844.734px ">25</tspan></text><text x="506.569px" y="546.661px" style="font-family:'HelveticaNeue-Bold', 'Helvetica Neue';font-weight:700;font-size:56.635px;fill:#ebebe8;">C<tspan x="547.865px 586.04px 608.722px 639.709px " y="546.661px 546.661px 546.661px 546.661px ">A-48</tspan></text><text x="785.671px" y="546.661px" style="font-family:'HelveticaNeue-Bold', 'Helvetica Neue';font-weight:700;font-size:56.635px;fill:#ebebe8;">F<tspan x="818.72px 851.768px 874.45px 905.436px " y="546.661px 546.661px 546.661px 546.661px ">L-26</tspan></text><text x="1056.59px" y="546.661px" style="font-family:'HelveticaNeue-Bold', 'Helvetica Neue';font-weight:700;font-size:56.635px;fill:#ebebe8;">F<tspan x="1089.63px 1122.68px 1145.37px 1176.35px " y="546.661px 546.661px 546.661px 546.661px ">L-27</tspan></text><text x="1337.91px" y="546.661px" style="font-family:'HelveticaNeue-Bold', 'Helvetica Neue';font-weight:700;font-size:56.635px;fill:#ebebe8;">I<tspan x="1354.35px 1392.53px 1415.21px 1446.2px " y="546.661px 546.661px 546.661px 546.661px ">A-01</tspan></text><text x="1921.48px" y="698.163px" style="font-family:'HelveticaNeue-Bold', 'Helvetica Neue';font-weight:700;font-size:56.635px;fill:#ebebe8;">G<tspan x="1963.77px 2001.95px 2024.63px 2055.62px " y="698.163px 698.163px 698.163px 698.163px ">A-07</tspan></text><text x="2194.57px" y="698.163px" style="font-family:'HelveticaNeue-Bold', 'Helvetica Neue';font-weight:700;font-size:56.635px;fill:#ebebe8;">N<tspan x="2235.86px 2277.16px 2299.84px 2330.83px " y="698.163px 698.163px 698.163px 698.163px ">C-02</tspan></text><text x="241.151px" y="907.613px" style="font-family:'HelveticaNeue-Bold', 'Helvetica Neue';font-weight:700;font-size:56.635px;fill:#ebebe8;">M<tspan x="291.698px 308.139px 330.821px 361.807px " y="907.613px 907.613px 907.613px 907.613px ">I-03</tspan></text><text x="500.383px" y="907.613px" style="font-family:'HelveticaNeue-Bold', 'Helvetica Neue';font-weight:700;font-size:56.635px;fill:#ebebe8;">M<tspan x="550.93px 592.226px 614.909px 645.895px " y="907.613px 907.613px 907.613px 907.613px ">N-07</tspan></text><text x="772.798px" y="907.613px" style="font-family:'HelveticaNeue-Bold', 'Helvetica Neue';font-weight:700;font-size:56.635px;fill:#ebebe8;">N<tspan x="814.094px 864.641px 887.324px 918.31px " y="907.613px 907.613px 907.613px 907.613px ">M-02</tspan></text><text x="1047.84px" y="907.613px" style="font-family:'HelveticaNeue-Bold', 'Helvetica Neue';font-weight:700;font-size:56.635px;fill:#ebebe8;">O<tspan x="1091.19px 1131.43px 1154.11px 1185.1px " y="907.613px 907.613px 907.613px 907.613px ">K-05</tspan></text><text x="1326.49px" y="907.613px" style="font-family:'HelveticaNeue-Bold', 'Helvetica Neue';font-weight:700;font-size:56.635px;fill:#ebebe8;">S<tspan x="1362.66px 1403.95px 1426.64px 1457.62px " y="907.613px 907.613px 907.613px 907.613px ">C-01</tspan></text><text x="2469.89px" y="698.163px" style="font-family:'HelveticaNeue-Bold', 'Helvetica Neue';font-weight:700;font-size:56.635px;fill:#ebebe8;">N<tspan x="2511.19px 2552.48px 2575.17px 2606.15px " y="698.163px 698.163px 698.163px 698.163px ">C-06</tspan></text><path d="M902.785,451.442l-23.143,26.729l-26.729,-23.143" style="fill:none;stroke:#ebebe8;stroke-width:8.33px;stroke-linejoin:miter;stroke-miterlimit:10;"/><path d="M928.456,367.694c-0,0 -53.869,23.23 -48.814,110.477" style="fill:none;stroke:#ebebe8;stroke-width:8.33px;"/><path d="M1162.61,456.962l-24.593,25.4l-25.401,-24.592" style="fill:none;stroke:#ebebe8;stroke-width:8.33px;stroke-linejoin:miter;stroke-miterlimit:10;"/><path d="M1090.94,371.045c0,0 44.738,39.116 47.08,111.317" style="fill:none;stroke:#ebebe8;stroke-width:8.33px;"/><path d="M1984.93,595.459l31.404,16.242l16.242,-31.404" style="fill:none;stroke:#ebebe8;stroke-width:8.33px;stroke-linejoin:miter;stroke-miterlimit:10;"/><path d="M2016.34,611.701c-4.038,-15.798 -9.898,-63.938 40.851,-131.764" style="fill:none;stroke:#ebebe8;stroke-width:8.33px;"/></g></svg>