<?xml version="1.0" encoding="UTF-8" standalone="no"?><!DOCTYPE svg PUBLIC "-//W3C//DTD SVG 1.1//EN" "http://www.w3.org/Graphics/SVG/1.1/DTD/svg11.dtd"><svg width="100%" height="100%" viewBox="0 0 2927 1225" version="1.1" xmlns="http://www.w3.org/2000/svg" xmlns:xlink="http://www.w3.org/1999/xlink" xml:space="preserve" xmlns:serif="http://www.serif.com/" style="fill-rule:evenodd;clip-rule:evenodd;stroke-linecap:round;stroke-linejoin:round;stroke-miterlimit:1.5;"><rect id="house-uncalled" x="0" y="0" width="2926.81" height="1224.73" style="fill:none;"/><clipPath id="_clip1"><rect x="0" y="0" width="2926.81" height="1224.73"/></clipPath><g clip-path="url(#_clip1)"><g><rect x="-42.203" y="-73.549" width="3032.78" height="1332.59" style="fill:#1f3138;"/><g><rect x="200.411" y="514.25" width="200.619" height="170.534" style="fill:#808080;"/><rect x="200.411" y="485.331" width="200.619" height="200.619" style="fill:none;stroke:#ebebe8;stroke-width:6.25px;"/></g><g><g><rect x="906.705" y="488.688" width="200.619" height="196.548" style="fill:#9c1515;"/><rect x="906.705" y="485.722" width="200.619" height="200.619" style="fill:none;stroke:#ebebe8;stroke-width:6.25px;"/></g><g><rect x="521.411" y="920.21" width="200.619" height="170.534" style="fill:#9c1515;"/><rect x="521.411" y="891.292" width="200.619" height="200.619" style="fill:none;stroke:#ebebe8;stroke-width:6.25px;"/></g><g><rect x="1871.59" y="936.296" width="200.619" height="154.431" style="fill:#9c1515;"/><rect x="1871.59" y="891.292" width="200.619" height="200.619" style="fill:none;stroke:#ebebe8;stroke-width:6.25px;"/></g><g><g><rect x="1176.74" y="492.619" width="200.619" height="192.617" style="fill:#337fd8;"/></g><rect x="1176.74" y="485.722" width="200.619" height="200.619" style="fill:none;stroke:#ebebe8;stroke-width:6.25px;"/></g><g><rect x="791.447" y="924.24" width="200.619" height="166.504" style="fill:#337fd8;"/><rect x="791.447" y="891.292" width="200.619" height="200.619" style="fill:none;stroke:#ebebe8;stroke-width:6.25px;"/></g><g><rect x="2141.63" y="942.262" width="200.619" height="148.464" style="fill:#9c1515;"/><rect x="2141.63" y="891.292" width="200.619" height="200.619" style="fill:none;stroke:#ebebe8;stroke-width:6.25px;"/></g><g><rect x="641.465" y="488.688" width="200.619" height="196.548" style="fill:#9c1515;"/><rect x="641.465" y="485.722" width="200.619" height="200.619" style="fill:none;stroke:#ebebe8;stroke-width:6.25px;"/></g><g><rect x="1716.81" y="504.631" width="200.619" height="180.543" style="fill:#9c1515;"/><rect x="1716.81" y="485.722" width="200.619" height="200.619" style="fill:none;stroke:#ebebe8;stroke-width:6.25px;"/></g><g><rect x="1331.52" y="932.224" width="200.619" height="158.502" style="fill:#9c1515;"/><rect x="1331.52" y="891.292" width="200.619" height="200.619" style="fill:none;stroke:#ebebe8;stroke-width:6.25px;"/></g><g><rect x="1986.85" y="506.597" width="200.619" height="178.578" style="fill:#9c1515;"/><rect x="1986.85" y="485.722" width="200.619" height="200.619" style="fill:none;stroke:#ebebe8;stroke-width:6.25px;"/></g><g><rect x="1601.56" y="932.224" width="200.619" height="158.502" style="fill:#337fd8;"/><rect x="1601.56" y="891.292" width="200.619" height="200.619" style="fill:none;stroke:#ebebe8;stroke-width:6.25px;"/></g><g><rect x="1446.78" y="494.584" width="200.619" height="190.652" style="fill:#9c1515;"/><rect x="1446.78" y="485.722" width="200.619" height="200.619" style="fill:none;stroke:#ebebe8;stroke-width:6.25px;"/></g><g><rect x="1061.48" y="930.276" width="200.619" height="160.468" style="fill:#9c1515;"/><rect x="1061.48" y="891.292" width="200.619" height="200.619" style="fill:none;stroke:#ebebe8;stroke-width:6.25px;"/></g><g><rect x="2583.27" y="891.292" width="200.619" height="200.619" style="fill:#dcdcdc;"/><rect x="2583.27" y="891.292" width="200.619" height="200.619" style="fill:none;stroke:#ebebe8;stroke-width:6.25px;"/></g></g><g transform="matrix(1.40392,0,0,1.40392,24.6577,-1874.75)"><g transform="matrix(0.984035,0,0,1,0.540511,0)"><text x="33.857px" y="1406.41px" style="font-family:'HelveticaNeue-Light', 'Helvetica Neue';font-weight:300;font-size:50px;fill:#ebebe8;">Ther<tspan x="129.307px 155.257px " y="1406.41px 1406.41px ">e </tspan>ar<tspan x="209.957px 235.907px " y="1406.41px 1406.41px ">e </tspan>14 seats still to be called. Some ar<tspan x="988.007px 1013.96px " y="1406.41px 1406.41px ">e </tspan>very close and counting continues,</text></g><g transform="matrix(0.984035,0,0,1,0.540511,0)"><text x="33.857px" y="1471.41px" style="font-family:'HelveticaNeue-Light', 'Helvetica Neue';font-weight:300;font-size:50px;fill:#ebebe8;">but Republicans ar<tspan x="437.657px 463.607px " y="1471.41px 1471.41px ">e </tspan>on track to pick up mor<tspan x="980.457px 1006.41px " y="1471.41px 1471.41px ">e </tspan>of them than Democrats.</text></g></g><g transform="matrix(1.40392,0,0,1.40392,1436.03,-1472.77)"><g transform="matrix(0.984035,0,0,1,12.4525,0)"><text x="780.001px" y="1406.41px" style="font-family:'HelveticaNeue', 'Helvetica Neue';font-size:32px;fill:#ebebe8;">LA-05 will go to</text></g><g transform="matrix(0.984035,0,0,1,12.5724,0)"><text x="787.512px" y="1439.31px" style="font-family:'HelveticaNeue', 'Helvetica Neue';font-size:32px;fill:#ebebe8;">a run-oﬀ as no</text></g><g transform="matrix(0.984035,0,0,1,12.2705,0)"><text x="768.602px" y="1472.2px" style="font-family:'HelveticaNeue', 'Helvetica Neue';font-size:32px;fill:#ebebe8;">candidate gained</text></g><g transform="matrix(0.984035,0,0,1,12.4148,0)"><text x="777.64px" y="1505.1px" style="font-family:'HelveticaNeue', 'Helvetica Neue';font-size:32px;fill:#ebebe8;">50% of the vote</text></g></g><path d="M2710.52,772.013l-25,25l-25,-25" style="fill:none;stroke:#ebebe8;stroke-width:8.33px;stroke-linejoin:miter;stroke-miterlimit:10;"/><path d="M2685.52,668.386l0,128.627" style="fill:none;stroke:#ebebe8;stroke-width:8.33px;"/><path d="M152.65,544.663l18.75,-18.75l18.75,18.75" style="fill:none;stroke:#ebebe8;stroke-width:8.33px;stroke-linejoin:miter;stroke-miterlimit:10;"/><path d="M171.4,687.194l0,-161.281" style="fill:none;stroke:#ebebe8;stroke-width:8.33px;"/><text x="663.945px" y="465.763px" style="font-family:'HelveticaNeue-Bold', 'Helvetica Neue';font-weight:700;font-size:56.157px;fill:#ebebe8;">C<tspan x="704.893px 742.746px 765.237px 795.962px " y="465.763px 465.763px 465.763px 465.763px ">A-21</tspan></text><text x="699.928px" y="613.577px" style="font-family:'HelveticaNeue-Bold', 'Helvetica Neue';font-weight:700;font-size:70.196px;fill:#ebebe8;">+<tspan x="741.373px " y="613.577px ">4</tspan></text><g transform="matrix(1.40392,0,0,1.40392,-946.055,-1375.97)"><g transform="matrix(0.984035,0,0,1,13.4,0)"><text x="839.349px" y="1406.41px" style="font-family:'HelveticaNeue-Bold', 'Helvetica Neue';font-weight:700;font-size:30px;fill:#ebebe8;">curr<tspan x="897.159px 914.379px " y="1406.41px 1406.41px ">en</tspan>t</text></g><g transform="matrix(0.984035,0,0,1,13.7367,0)"><text x="860.441px" y="1437.28px" style="font-family:'HelveticaNeue-Bold', 'Helvetica Neue';font-weight:700;font-size:30px;fill:#ebebe8;">lead</text></g></g><text x="261.518px" y="468.155px" style="font-family:'HelveticaNeue-Bold', 'Helvetica Neue';font-weight:700;font-size:42.117px;fill:#ebebe8;">s<tspan x="283.774px 307.563px 331.353px " y="468.155px 468.155px 468.155px ">eat</tspan></text><g transform="matrix(8.5965e-17,-1.40392,1.40392,8.5965e-17,-1860.87,1860.9)"><g transform="matrix(0.984035,0,0,1,13.9921,0)"><text x="876.437px" y="1406.41px" style="font-family:'HelveticaNeue-Bold', 'Helvetica Neue';font-weight:700;font-size:28px;fill:#ebebe8;">%</text></g><g transform="matrix(0.984035,0,0,1,13.3525,0)"><text x="836.375px" y="1426.41px" style="font-family:'HelveticaNeue-Bold', 'Helvetica Neue';font-weight:700;font-size:28px;fill:#ebebe8;">counted</text></g></g><text x="916.253px" y="613.577px" style="font-family:'HelveticaNeue-Bold', 'Helvetica Neue';font-weight:700;font-size:70.196px;fill:#ebebe8;">+<tspan x="957.698px 996.104px 1015.31px 1053.71px " y="613.577px 613.577px 613.577px 613.577px ">0.52</tspan></text><text x="1243.02px" y="613.577px" style="font-family:'HelveticaNeue-Bold', 'Helvetica Neue';font-weight:700;font-size:70.196px;fill:#ebebe8;">+<tspan x="1284.46px " y="613.577px ">1</tspan></text><text x="1493.45px" y="611.869px" style="font-family:'HelveticaNeue-Bold', 'Helvetica Neue';font-weight:700;font-size:70.196px;fill:#ebebe8;">+<tspan x="1534.9px 1573.3px " y="611.869px 611.869px ">11</tspan></text><text x="1757.6px" y="613.577px" style="font-family:'HelveticaNeue-Bold', 'Helvetica Neue';font-weight:700;font-size:70.196px;fill:#ebebe8;">+<tspan x="1799.04px 1837.45px " y="613.577px 613.577px ">19</tspan></text><text x="2000.82px" y="613.577px" style="font-family:'HelveticaNeue-Bold', 'Helvetica Neue';font-weight:700;font-size:70.196px;fill:#ebebe8;">+<tspan x="2042.27px 2080.67px 2099.87px 2138.28px " y="613.577px 613.577px 613.577px 613.577px ">0.01</tspan></text><text x="560.671px" y="1032.84px" style="font-family:'HelveticaNeue-Bold', 'Helvetica Neue';font-weight:700;font-size:70.196px;fill:#ebebe8;">+<tspan x="602.116px 640.522px " y="1032.84px 1032.84px ">16</tspan></text><text x="848.212px" y="1032.84px" style="font-family:'HelveticaNeue-Bold', 'Helvetica Neue';font-weight:700;font-size:70.196px;fill:#ebebe8;">+<tspan x="889.657px " y="1032.84px ">4</tspan></text><text x="1099.84px" y="1032.84px" style="font-family:'HelveticaNeue-Bold', 'Helvetica Neue';font-weight:700;font-size:70.196px;fill:#ebebe8;">+<tspan x="1141.28px 1179.69px " y="1032.84px 1032.84px ">11</tspan></text><text x="1364.47px" y="1032.84px" style="font-family:'HelveticaNeue-Bold', 'Helvetica Neue';font-weight:700;font-size:70.196px;fill:#ebebe8;">+<tspan x="1405.91px 1444.32px " y="1032.84px 1032.84px ">16</tspan></text><text x="1657.51px" y="1032.84px" style="font-family:'HelveticaNeue-Bold', 'Helvetica Neue';font-weight:700;font-size:70.196px;fill:#ebebe8;">+<tspan x="1698.96px " y="1032.84px ">4</tspan></text><text x="1912.06px" y="1032.84px" style="font-family:'HelveticaNeue-Bold', 'Helvetica Neue';font-weight:700;font-size:70.196px;fill:#ebebe8;">+<tspan x="1953.5px 1991.91px " y="1032.84px 1032.84px ">23</tspan></text><text x="2154.2px" y="1032.84px" style="font-family:'HelveticaNeue-Bold', 'Helvetica Neue';font-weight:700;font-size:70.196px;fill:#ebebe8;">+<tspan x="2195.64px 2234.05px 2253.25px 2291.65px " y="1032.84px 1032.84px 1032.84px 1032.84px ">0.33</tspan></text><text x="934.204px" y="465.763px" style="font-family:'HelveticaNeue-Bold', 'Helvetica Neue';font-weight:700;font-size:56.157px;fill:#ebebe8;">U<tspan x="975.152px 1001.79px 1024.28px 1055px " y="465.763px 465.763px 465.763px 465.763px ">T-04</tspan></text><text x="1200.79px" y="465.763px" style="font-family:'HelveticaNeue-Bold', 'Helvetica Neue';font-weight:700;font-size:56.157px;fill:#ebebe8;">N<tspan x="1241.74px 1272.46px 1294.95px 1325.68px " y="465.763px 465.763px 465.763px 465.763px ">J-07</tspan></text><text x="1470.49px" y="465.763px" style="font-family:'HelveticaNeue-Bold', 'Helvetica Neue';font-weight:700;font-size:56.157px;fill:#ebebe8;">C<tspan x="1511.43px 1549.29px 1571.78px 1602.5px " y="465.763px 465.763px 465.763px 465.763px ">A-25</tspan></text><text x="1739.54px" y="465.763px" style="font-family:'HelveticaNeue-Bold', 'Helvetica Neue';font-weight:700;font-size:56.157px;fill:#ebebe8;">N<tspan x="1780.49px 1811.22px 1833.71px 1864.43px " y="465.763px 465.763px 465.763px 465.763px ">Y-24</tspan></text><text x="2020.14px" y="465.763px" style="font-family:'HelveticaNeue-Bold', 'Helvetica Neue';font-weight:700;font-size:56.157px;fill:#ebebe8;">I<tspan x="2036.44px 2074.29px 2096.78px 2127.51px " y="465.763px 465.763px 465.763px 465.763px ">A-02</tspan></text><text x="547.455px" y="874.822px" style="font-family:'HelveticaNeue-Bold', 'Helvetica Neue';font-weight:700;font-size:56.157px;fill:#ebebe8;">N<tspan x="588.403px 619.127px 641.618px 672.343px " y="874.822px 874.822px 874.822px 874.822px ">Y-11</tspan></text><text x="816.822px" y="874.822px" style="font-family:'HelveticaNeue-Bold', 'Helvetica Neue';font-weight:700;font-size:56.157px;fill:#ebebe8;">N<tspan x="857.77px 888.495px 910.985px 941.71px " y="874.822px 874.822px 874.822px 874.822px ">Y-19</tspan></text><text x="1086.94px" y="874.822px" style="font-family:'HelveticaNeue-Bold', 'Helvetica Neue';font-weight:700;font-size:56.157px;fill:#ebebe8;">N<tspan x="1127.89px 1158.61px 1181.1px 1211.83px " y="874.822px 874.822px 874.822px 874.822px ">Y-22</tspan></text><text x="1355.57px" y="874.822px" style="font-family:'HelveticaNeue-Bold', 'Helvetica Neue';font-weight:700;font-size:56.157px;fill:#ebebe8;">N<tspan x="1396.51px 1427.24px 1449.73px 1480.45px " y="874.822px 874.822px 874.822px 874.822px ">Y-02</tspan></text><text x="1628.83px" y="874.822px" style="font-family:'HelveticaNeue-Bold', 'Helvetica Neue';font-weight:700;font-size:56.157px;fill:#ebebe8;">N<tspan x="1669.78px 1700.5px 1722.99px 1753.72px " y="874.822px 874.822px 874.822px 874.822px ">Y-18</tspan></text><text x="1894.32px" y="874.822px" style="font-family:'HelveticaNeue-Bold', 'Helvetica Neue';font-weight:700;font-size:56.157px;fill:#ebebe8;">N<tspan x="1935.27px 1965.99px 1988.48px 2019.21px " y="874.822px 874.822px 874.822px 874.822px ">Y-01</tspan></text><text x="2166.16px" y="874.822px" style="font-family:'HelveticaNeue-Bold', 'Helvetica Neue';font-weight:700;font-size:56.157px;fill:#ebebe8;">N<tspan x="2207.11px 2237.83px 2260.32px 2291.05px " y="874.822px 874.822px 874.822px 874.822px ">Y-03</tspan></text><text x="2602.93px" y="874.822px" style="font-family:'HelveticaNeue-Bold', 'Helvetica Neue';font-weight:700;font-size:56.157px;fill:#ebebe8;">L<tspan x="2635.7px 2673.55px 2696.05px 2726.77px " y="874.822px 874.822px 874.822px 874.822px ">A-05</tspan></text></g></g></svg>