<?xml version="1.0" encoding="UTF-8" standalone="no"?><!DOCTYPE svg PUBLIC "-//W3C//DTD SVG 1.1//EN" "http://www.w3.org/Graphics/SVG/1.1/DTD/svg11.dtd"><svg width="100%" height="100%" viewBox="0 0 1334 1626" version="1.1" xmlns="http://www.w3.org/2000/svg" xmlns:xlink="http://www.w3.org/1999/xlink" xml:space="preserve" xmlns:serif="http://www.serif.com/" style="fill-rule:evenodd;clip-rule:evenodd;stroke-linecap:round;stroke-linejoin:round;stroke-miterlimit:1.5;"><rect id="house-flips-mobile" x="0" y="0" width="1333.33" height="1625.42" style="fill:none;"/><clipPath id="_clip1"><rect x="0" y="0" width="1333.33" height="1625.42"/></clipPath><g clip-path="url(#_clip1)"><rect x="-48.953" y="-20.723" width="1478.8" height="1776.55" style="fill:#1f3138;"/><g><rect x="598.697" y="558.855" width="170.071" height="173.935" style="fill:#9c1515;stroke:#ebebe8;stroke-width:6.25px;"/><rect x="821.267" y="558.855" width="170.071" height="173.935" style="fill:#9c1515;stroke:#ebebe8;stroke-width:6.25px;"/><rect x="153.556" y="558.855" width="170.071" height="173.935" style="fill:#9c1515;stroke:#ebebe8;stroke-width:6.25px;"/><rect x="376.126" y="558.855" width="170.071" height="173.935" style="fill:#9c1515;stroke:#ebebe8;stroke-width:6.25px;"/><rect x="1043.84" y="558.855" width="170.071" height="173.935" style="fill:#9c1515;stroke:#ebebe8;stroke-width:6.25px;"/><text x="154.96px" y="547.876px" style="font-family:'HelveticaNeue-Bold', 'Helvetica Neue';font-weight:700;font-size:57.16px;fill:#ebebe8;">C<tspan x="195.714px 233.388px 255.772px 286.351px " y="547.876px 547.876px 547.876px 547.876px ">A-39</tspan></text><text x="386.708px" y="547.133px" style="font-family:'HelveticaNeue-Bold', 'Helvetica Neue';font-weight:700;font-size:57.16px;fill:#ebebe8;">C<tspan x="427.461px 465.135px 487.519px 518.098px " y="547.133px 547.133px 547.133px 547.133px ">A-48</tspan></text><text x="615.243px" y="547.876px" style="font-family:'HelveticaNeue-Bold', 'Helvetica Neue';font-weight:700;font-size:57.16px;fill:#ebebe8;">F<tspan x="647.857px 680.471px 702.855px 733.434px " y="547.876px 547.876px 547.876px 547.876px ">L-26</tspan></text><text x="839.541px" y="547.133px" style="font-family:'HelveticaNeue-Bold', 'Helvetica Neue';font-weight:700;font-size:57.16px;fill:#ebebe8;">F<tspan x="872.155px 904.769px 927.154px 957.733px " y="547.133px 547.133px 547.133px 547.133px ">L-27</tspan></text><text x="1058.82px" y="547.876px" style="font-family:'HelveticaNeue-Bold', 'Helvetica Neue';font-weight:700;font-size:57.16px;fill:#ebebe8;">I<tspan x="1075.05px 1112.72px 1135.11px 1165.69px " y="547.876px 547.876px 547.876px 547.876px ">A-01</tspan></text><text x="183.508px" y="666.277px" style="font-family:'HelveticaNeue-Bold', 'Helvetica Neue';font-weight:700;font-size:57.16px;fill:#ebebe8;">+<tspan x="216.507px 247.086px 262.376px " y="666.277px 666.277px 666.277px ">1.2</tspan></text><text x="432.258px" y="666.277px" style="font-family:'HelveticaNeue-Bold', 'Helvetica Neue';font-weight:700;font-size:57.16px;fill:#ebebe8;">+<tspan x="465.257px " y="666.277px ">2</tspan></text><text x="1097.35px" y="666.249px" style="font-family:'HelveticaNeue-Bold', 'Helvetica Neue';font-weight:700;font-size:57.16px;fill:#ebebe8;">+<tspan x="1130.35px " y="666.249px ">3</tspan></text><text x="652.783px" y="666.277px" style="font-family:'HelveticaNeue-Bold', 'Helvetica Neue';font-weight:700;font-size:57.16px;fill:#ebebe8;">+<tspan x="685.782px " y="666.277px ">3</tspan></text><text x="872.462px" y="666.249px" style="font-family:'HelveticaNeue-Bold', 'Helvetica Neue';font-weight:700;font-size:57.16px;fill:#ebebe8;">+<tspan x="905.461px " y="666.249px ">3</tspan></text></g><g><rect x="598.697" y="855.961" width="170.071" height="173.935" style="fill:#9c1515;stroke:#ebebe8;stroke-width:6.25px;"/><rect x="821.267" y="855.961" width="170.071" height="173.935" style="fill:#9c1515;stroke:#ebebe8;stroke-width:6.25px;"/><rect x="153.556" y="855.961" width="170.071" height="173.935" style="fill:#9c1515;stroke:#ebebe8;stroke-width:6.25px;"/><rect x="376.126" y="855.961" width="170.071" height="173.935" style="fill:#9c1515;stroke:#ebebe8;stroke-width:6.25px;"/><rect x="1043.84" y="855.961" width="170.071" height="173.935" style="fill:#9c1515;stroke:#ebebe8;stroke-width:6.25px;"/><text x="165.685px" y="844.983px" style="font-family:'HelveticaNeue-Bold', 'Helvetica Neue';font-weight:700;font-size:57.16px;fill:#ebebe8;">N<tspan x="206.439px 222.663px 245.047px 275.627px " y="844.983px 844.983px 844.983px 844.983px ">I-03</tspan></text><text x="380.603px" y="844.24px" style="font-family:'HelveticaNeue-Bold', 'Helvetica Neue';font-weight:700;font-size:57.16px;fill:#ebebe8;">M<tspan x="430.486px 471.24px 493.624px 524.203px " y="844.24px 844.24px 844.24px 844.24px ">N-07</tspan></text><text x="602.538px" y="844.983px" style="font-family:'HelveticaNeue-Bold', 'Helvetica Neue';font-weight:700;font-size:57.16px;fill:#ebebe8;">N<tspan x="643.292px 693.175px 715.56px 746.139px " y="844.983px 844.983px 844.983px 844.983px ">M-02</tspan></text><text x="830.907px" y="844.24px" style="font-family:'HelveticaNeue-Bold', 'Helvetica Neue';font-weight:700;font-size:57.16px;fill:#ebebe8;">O<tspan x="873.695px 913.404px 935.788px 966.367px " y="844.24px 844.24px 844.24px 844.24px ">K-05</tspan></text><text x="1047.55px" y="844.983px" style="font-family:'HelveticaNeue-Bold', 'Helvetica Neue';font-weight:700;font-size:57.16px;fill:#ebebe8;">S<tspan x="1083.24px 1124px 1146.38px 1176.96px " y="844.983px 844.983px 844.983px 844.983px ">C-01</tspan></text><text x="206.442px" y="959.812px" style="font-family:'HelveticaNeue-Bold', 'Helvetica Neue';font-weight:700;font-size:57.16px;fill:#ebebe8;">+<tspan x="239.441px " y="959.812px ">6</tspan></text><text x="416.968px" y="959.812px" style="font-family:'HelveticaNeue-Bold', 'Helvetica Neue';font-weight:700;font-size:57.16px;fill:#ebebe8;">+<tspan x="449.967px 480.546px " y="959.812px 959.812px ">13</tspan></text><text x="1074.42px" y="959.783px" style="font-family:'HelveticaNeue-Bold', 'Helvetica Neue';font-weight:700;font-size:57.16px;fill:#ebebe8;">+<tspan x="1107.42px 1138px 1153.29px " y="959.783px 959.783px 959.783px ">1.3</tspan></text><text x="652.783px" y="959.812px" style="font-family:'HelveticaNeue-Bold', 'Helvetica Neue';font-weight:700;font-size:57.16px;fill:#ebebe8;">+<tspan x="685.782px " y="959.812px ">8</tspan></text><text x="872.462px" y="959.783px" style="font-family:'HelveticaNeue-Bold', 'Helvetica Neue';font-weight:700;font-size:57.16px;fill:#ebebe8;">+<tspan x="905.461px " y="959.783px ">4</tspan></text><rect x="641.45" y="1362.67" width="170.071" height="173.935" style="fill:#337fd8;stroke:#ebebe8;stroke-width:6.25px;"/><rect x="864.021" y="1362.67" width="170.071" height="173.935" style="fill:#337fd8;stroke:#ebebe8;stroke-width:6.25px;"/><rect x="1086.59" y="1362.67" width="170.071" height="173.935" style="fill:#337fd8;stroke:#ebebe8;stroke-width:6.25px;"/><text x="650.902px" y="1351.69px" style="font-family:'HelveticaNeue-Bold', 'Helvetica Neue';font-weight:700;font-size:57.16px;fill:#ebebe8;">G<tspan x="692.646px 730.319px 752.704px 783.283px " y="1351.69px 1351.69px 1351.69px 1351.69px ">A-07</tspan></text><text x="874.155px" y="1350.95px" style="font-family:'HelveticaNeue-Bold', 'Helvetica Neue';font-weight:700;font-size:57.16px;fill:#ebebe8;">N<tspan x="914.909px 955.663px 978.047px 1008.63px " y="1350.95px 1350.95px 1350.95px 1350.95px ">C-02</tspan></text><text x="1087.77px" y="1351.69px" style="font-family:'HelveticaNeue-Bold', 'Helvetica Neue';font-weight:700;font-size:57.16px;fill:#ebebe8;">N<tspan x="1128.53px 1169.28px 1191.66px 1222.24px " y="1351.69px 1351.69px 1351.69px 1351.69px ">C-06</tspan></text><text x="1124.82px" y="1466.49px" style="font-family:'HelveticaNeue-Bold', 'Helvetica Neue';font-weight:700;font-size:57.16px;fill:#ebebe8;">+<tspan x="1157.82px 1188.39px " y="1466.49px 1466.49px ">25</tspan></text><text x="695.536px" y="1466.52px" style="font-family:'HelveticaNeue-Bold', 'Helvetica Neue';font-weight:700;font-size:57.16px;fill:#ebebe8;">+<tspan x="728.535px " y="1466.52px ">3</tspan></text><text x="899.926px" y="1466.49px" style="font-family:'HelveticaNeue-Bold', 'Helvetica Neue';font-weight:700;font-size:57.16px;fill:#ebebe8;">+<tspan x="932.925px 963.504px " y="1466.49px 1466.49px ">28</tspan></text></g><g transform="matrix(3.49316,0,0,3.57251,-99.4314,-4953.36)"><g transform="matrix(0.984035,0,0,1,0.540511,0)"><text x="33.857px" y="1406.41px" style="font-family:'HelveticaNeue-Light', 'Helvetica Neue';font-weight:300;font-size:16px;fill:#ebebe8;">The Republicans have ﬂipped 10 seats so far<tspan x="341.201px 345.649px " y="1406.41px 1406.41px ">, </tspan>while the</text></g><g transform="matrix(0.984035,0,0,1,0.540511,0)"><text x="33.857px" y="1426.41px" style="font-family:'HelveticaNeue-Light', 'Helvetica Neue';font-weight:300;font-size:16px;fill:#ebebe8;">Democrats have ﬂipped thr<tspan x="219.377px 227.681px " y="1426.41px 1426.41px ">ee</tspan>.</text></g></g><g transform="matrix(3.49316,0,0,3.57251,-2290.46,-4772.97)"><g transform="matrix(0.984035,0,0,1,12.8398,0)"><text x="804.26px" y="1406.41px" style="font-family:'HelveticaNeue', 'Helvetica Neue';font-size:12px;fill:#ebebe8;">Key Florida races in Miami-Dade</text></g><g transform="matrix(0.984035,0,0,1,12.8504,0)"><text x="804.927px" y="1418.75px" style="font-family:'HelveticaNeue', 'Helvetica Neue';font-size:12px;fill:#ebebe8;">County followed the Pr<tspan x="927.375px 933.819px " y="1418.75px 1418.75px ">es</tspan>idential</text></g><g transform="matrix(0.984035,0,0,1,12.8712,0)"><text x="806.226px" y="1431.08px" style="font-family:'HelveticaNeue', 'Helvetica Neue';font-size:12px;fill:#ebebe8;">race and ﬂipped to Republicans</text></g></g><g transform="matrix(3.49316,0,0,3.57251,-2760.39,-3816.34)"><g transform="matrix(0.984035,0,0,1,13.1158,0)"><text x="821.547px" y="1406.41px" style="font-family:'HelveticaNeue', 'Helvetica Neue';font-size:12px;fill:#ebebe8;">After narr<tspan x="871.323px 878.211px " y="1406.41px 1406.41px ">ow</tspan>ly missing out</text></g><g transform="matrix(0.984035,0,0,1,13.0875,0)"><text x="819.776px" y="1418.75px" style="font-family:'HelveticaNeue', 'Helvetica Neue';font-size:12px;fill:#ebebe8;">in 2018, Democrat Car<tspan x="940.712px 947.6px " y="1418.75px 1418.75px ">ol</tspan>yn</text></g><g transform="matrix(0.984035,0,0,1,13.2815,0)"><text x="831.927px" y="1431.08px" style="font-family:'HelveticaNeue', 'Helvetica Neue';font-size:12px;fill:#ebebe8;">Bor<tspan x="850.815px 857.931px " y="1431.08px 1431.08px ">de</tspan>aux secur<tspan x="916.383px 922.827px " y="1431.08px 1431.08px ">ed</tspan> her</text></g><g transform="matrix(0.984035,0,0,1,13.1488,0)"><text x="823.62px" y="1443.42px" style="font-family:'HelveticaNeue', 'Helvetica Neue';font-size:12px;fill:#ebebe8;">victory in GA-07 this year</text></g></g><path d="M684.201,462.805l-11.499,13.427l-13.427,-11.499" style="fill:none;stroke:#ebebe8;stroke-width:4.17px;stroke-linejoin:miter;stroke-miterlimit:10;"/><path d="M722.405,357.505c0,-0 -56.364,24.858 -49.703,118.727" style="fill:none;stroke:#ebebe8;stroke-width:4.17px;"/><path d="M949.145,468.027l-12.406,12.594l-12.594,-12.406" style="fill:none;stroke:#ebebe8;stroke-width:4.17px;stroke-linejoin:miter;stroke-miterlimit:10;"/><path d="M888.529,361.009c0,0 47.04,42.062 48.21,119.612" style="fill:none;stroke:#ebebe8;stroke-width:4.17px;"/><path d="M538.941,1444.82l12.494,12.506l-12.506,12.494" style="fill:none;stroke:#ebebe8;stroke-width:4.17px;stroke-linejoin:miter;stroke-miterlimit:10;"/><path d="M400.888,1373.65c-0,-0 -11.623,83.094 150.547,83.672" style="fill:none;stroke:#ebebe8;stroke-width:4.17px;"/></g></svg>