<?xml version="1.0" encoding="UTF-8" standalone="no"?><!DOCTYPE svg PUBLIC "-//W3C//DTD SVG 1.1//EN" "http://www.w3.org/Graphics/SVG/1.1/DTD/svg11.dtd"><svg width="100%" height="100%" viewBox="0 0 2927 1225" version="1.1" xmlns="http://www.w3.org/2000/svg" xmlns:xlink="http://www.w3.org/1999/xlink" xml:space="preserve" xmlns:serif="http://www.serif.com/" style="fill-rule:evenodd;clip-rule:evenodd;stroke-linecap:round;stroke-linejoin:round;stroke-miterlimit:1.5;"><rect id="house-uncalled" x="0" y="0" width="2926.81" height="1224.73" style="fill:none;"/><clipPath id="_clip1"><rect x="0" y="0" width="2926.81" height="1224.73"/></clipPath><g clip-path="url(#_clip1)"><rect x="-42.203" y="-73.549" width="3032.78" height="1332.59" style="fill:#1f3138;"/><rect x="200.411" y="699.71" width="200.619" height="170.534" style="fill:#808080;"/><rect x="200.411" y="670.791" width="200.619" height="200.619" style="fill:none;stroke:#ebebe8;stroke-width:6.25px;"/><rect x="1863.6" y="715.189" width="200.619" height="154.321" style="fill:#9c1515;"/><rect x="1863.6" y="670.185" width="200.619" height="200.619" style="fill:none;stroke:#ebebe8;stroke-width:6.25px;"/><rect x="641.465" y="674.148" width="200.619" height="196.548" style="fill:#9c1515;"/><rect x="641.465" y="671.182" width="200.619" height="200.619" style="fill:none;stroke:#ebebe8;stroke-width:6.25px;"/><rect x="1253.5" y="680.135" width="200.619" height="191.667" style="fill:#9c1515;"/><rect x="1253.5" y="671.182" width="200.619" height="200.619" style="fill:none;stroke:#ebebe8;stroke-width:6.25px;"/><rect x="949.009" y="680.044" width="200.619" height="190.652" style="fill:#9c1515;"/><rect x="949.009" y="671.182" width="200.619" height="200.619" style="fill:none;stroke:#ebebe8;stroke-width:6.25px;"/><rect x="1559.29" y="679.95" width="200.619" height="191.667" style="fill:#9c1515;"/><rect x="1559.29" y="670.997" width="200.619" height="200.619" style="fill:none;stroke:#ebebe8;stroke-width:6.25px;"/><g><rect x="2315.11" y="670.19" width="200.619" height="200.619" style="fill:#dcdcdc;"/><rect x="2315.11" y="670.19" width="200.619" height="200.619" style="fill:none;stroke:#ebebe8;stroke-width:6.25px;"/><g transform="matrix(1.40392,0,0,1.40392,1167.87,-1640.45)"><g transform="matrix(0.984035,0,0,1,12.4525,0)"><text x="780.001px" y="1406.41px" style="font-family:'HelveticaNeue', 'Helvetica Neue';font-size:32px;fill:#ebebe8;">LA-05 will go to</text></g><g transform="matrix(0.984035,0,0,1,12.5724,0)"><text x="787.512px" y="1439.31px" style="font-family:'HelveticaNeue', 'Helvetica Neue';font-size:32px;fill:#ebebe8;">a run-oﬀ as no</text></g><g transform="matrix(0.984035,0,0,1,12.2705,0)"><text x="768.602px" y="1472.2px" style="font-family:'HelveticaNeue', 'Helvetica Neue';font-size:32px;fill:#ebebe8;">candidate gained</text></g><g transform="matrix(0.984035,0,0,1,12.4148,0)"><text x="777.64px" y="1505.1px" style="font-family:'HelveticaNeue', 'Helvetica Neue';font-size:32px;fill:#ebebe8;">50% of the vote</text></g></g><path d="M2442.36,563.411l-25,25l-25,-25" style="fill:none;stroke:#ebebe8;stroke-width:8.33px;stroke-linejoin:miter;stroke-miterlimit:10;"/><path d="M2417.36,509.166l0,79.245" style="fill:none;stroke:#ebebe8;stroke-width:8.33px;"/><text x="2334.77px" y="653.72px" style="font-family:'HelveticaNeue-Bold', 'Helvetica Neue';font-weight:700;font-size:56.157px;fill:#ebebe8;">L<tspan x="2367.54px 2405.4px 2427.89px 2458.61px " y="653.72px 653.72px 653.72px 653.72px ">A-05</tspan></text></g><g transform="matrix(1.40392,0,0,1.40392,24.6577,-1874.75)"><g transform="matrix(0.984035,0,0,1,0.540511,0)"><text x="33.857px" y="1406.41px" style="font-family:'HelveticaNeue-Light', 'Helvetica Neue';font-weight:300;font-size:50px;fill:#ebebe8;">Ther<tspan x="129.307px 155.257px " y="1406.41px 1406.41px ">e </tspan>ar<tspan x="209.957px 235.907px " y="1406.41px 1406.41px ">e </tspan>6 seats still to be called. Some ar<tspan x="960.207px 986.157px " y="1406.41px 1406.41px ">e </tspan>very close and counting continues,</text></g><g transform="matrix(0.984035,0,0,1,0.540511,0)"><text x="33.857px" y="1471.41px" style="font-family:'HelveticaNeue-Light', 'Helvetica Neue';font-weight:300;font-size:50px;fill:#ebebe8;">but Republicans ar<tspan x="437.657px 463.607px " y="1471.41px 1471.41px ">e </tspan>on track to pick up mor<tspan x="980.457px 1006.41px " y="1471.41px 1471.41px ">e </tspan>of them than Democrats.</text></g></g><path d="M152.65,730.123l18.75,-18.75l18.75,18.75" style="fill:none;stroke:#ebebe8;stroke-width:8.33px;stroke-linejoin:miter;stroke-miterlimit:10;"/><path d="M171.4,872.654l0,-161.281" style="fill:none;stroke:#ebebe8;stroke-width:8.33px;"/><text x="663.945px" y="651.223px" style="font-family:'HelveticaNeue-Bold', 'Helvetica Neue';font-weight:700;font-size:56.157px;fill:#ebebe8;">C<tspan x="704.893px 742.746px 765.237px 795.962px " y="651.223px 651.223px 651.223px 651.223px ">A-21</tspan></text><text x="671.124px" y="799.037px" style="font-family:'HelveticaNeue-Bold', 'Helvetica Neue';font-weight:700;font-size:70.196px;fill:#ebebe8;">+<tspan x="712.569px 750.974px 770.177px " y="799.037px 799.037px 799.037px ">1.1</tspan></text><g transform="matrix(1.40392,0,0,1.40392,-946.055,-1190.51)"><g transform="matrix(0.984035,0,0,1,13.4,0)"><text x="839.349px" y="1406.41px" style="font-family:'HelveticaNeue-Bold', 'Helvetica Neue';font-weight:700;font-size:30px;fill:#ebebe8;">curr<tspan x="897.159px 914.379px " y="1406.41px 1406.41px ">en</tspan>t</text></g><g transform="matrix(0.984035,0,0,1,13.7367,0)"><text x="860.441px" y="1437.28px" style="font-family:'HelveticaNeue-Bold', 'Helvetica Neue';font-weight:700;font-size:30px;fill:#ebebe8;">lead</text></g></g><text x="261.518px" y="653.615px" style="font-family:'HelveticaNeue-Bold', 'Helvetica Neue';font-weight:700;font-size:42.117px;fill:#ebebe8;">s<tspan x="283.774px 307.563px 331.353px " y="653.615px 653.615px 653.615px ">eat</tspan></text><g transform="matrix(8.5965e-17,-1.40392,1.40392,8.5965e-17,-1860.87,2046.36)"><g transform="matrix(0.984035,0,0,1,13.9921,0)"><text x="876.437px" y="1406.41px" style="font-family:'HelveticaNeue-Bold', 'Helvetica Neue';font-weight:700;font-size:28px;fill:#ebebe8;">%</text></g><g transform="matrix(0.984035,0,0,1,13.3525,0)"><text x="836.375px" y="1426.41px" style="font-family:'HelveticaNeue-Bold', 'Helvetica Neue';font-weight:700;font-size:28px;fill:#ebebe8;">counted</text></g></g><text x="962.713px" y="797.329px" style="font-family:'HelveticaNeue-Bold', 'Helvetica Neue';font-weight:700;font-size:70.196px;fill:#ebebe8;">+<tspan x="1004.16px 1042.56px 1061.77px 1100.17px " y="797.329px 797.329px 797.329px 797.329px ">0.12</tspan></text><text x="1267.47px" y="799.037px" style="font-family:'HelveticaNeue-Bold', 'Helvetica Neue';font-weight:700;font-size:70.196px;fill:#ebebe8;">&lt;<tspan x="1308.92px 1347.32px 1366.53px 1404.93px " y="799.037px 799.037px 799.037px 799.037px ">0.01</tspan></text><text x="1568.84px" y="812.548px" style="font-family:'HelveticaNeue-Bold', 'Helvetica Neue';font-weight:700;font-size:70.196px;fill:#ebebe8;">+<tspan x="1610.28px 1648.69px 1667.89px 1706.3px " y="812.548px 812.548px 812.548px 812.548px ">0.09</tspan></text><text x="1904.06px" y="811.735px" style="font-family:'HelveticaNeue-Bold', 'Helvetica Neue';font-weight:700;font-size:70.196px;fill:#ebebe8;">+<tspan x="1945.51px 1983.91px " y="811.735px 811.735px ">23</tspan></text><text x="972.717px" y="651.223px" style="font-family:'HelveticaNeue-Bold', 'Helvetica Neue';font-weight:700;font-size:56.157px;fill:#ebebe8;">C<tspan x="1013.67px 1051.52px 1074.01px 1104.73px " y="651.223px 651.223px 651.223px 651.223px ">A-25</tspan></text><text x="1286.79px" y="651.223px" style="font-family:'HelveticaNeue-Bold', 'Helvetica Neue';font-weight:700;font-size:56.157px;fill:#ebebe8;">I<tspan x="1303.09px 1340.94px 1363.43px 1394.16px " y="651.223px 651.223px 651.223px 651.223px ">A-02</tspan></text><text x="1584.74px" y="654.528px" style="font-family:'HelveticaNeue-Bold', 'Helvetica Neue';font-weight:700;font-size:56.157px;fill:#ebebe8;">N<tspan x="1625.69px 1656.41px 1678.91px 1709.63px " y="654.528px 654.528px 654.528px 654.528px ">Y-22</tspan></text><text x="1886.33px" y="653.715px" style="font-family:'HelveticaNeue-Bold', 'Helvetica Neue';font-weight:700;font-size:56.157px;fill:#ebebe8;">N<tspan x="1927.28px 1958px 1980.49px 2011.22px " y="653.715px 653.715px 653.715px 653.715px ">Y-01</tspan></text></g></svg>