<?xml version="1.0" encoding="UTF-8" standalone="no"?><!DOCTYPE svg PUBLIC "-//W3C//DTD SVG 1.1//EN" "http://www.w3.org/Graphics/SVG/1.1/DTD/svg11.dtd"><svg width="100%" height="100%" viewBox="0 0 2927 1225" version="1.1" xmlns="http://www.w3.org/2000/svg" xmlns:xlink="http://www.w3.org/1999/xlink" xml:space="preserve" xmlns:serif="http://www.serif.com/" style="fill-rule:evenodd;clip-rule:evenodd;stroke-linecap:round;stroke-linejoin:round;stroke-miterlimit:1.5;"><rect id="house-flips" x="-0" y="0" width="2926.67" height="1225" style="fill:none;"/><clipPath id="_clip1"><rect x="-0" y="0" width="2926.67" height="1225"/></clipPath><g clip-path="url(#_clip1)"><rect x="-45.27" y="-10.326" width="3025.98" height="1343.93" style="fill:#1f3138;"/><rect x="681.907" y="566.791" width="202.327" height="202.327" style="fill:#9c1515;stroke:#ebebe8;stroke-width:6.25px;"/><rect x="137.238" y="924.223" width="202.327" height="202.327" style="fill:#9c1515;stroke:#ebebe8;stroke-width:6.25px;"/><rect x="2593.21" y="719.183" width="202.327" height="202.327" style="fill:#337fd8;stroke:#ebebe8;stroke-width:6.25px;"/><rect x="954.241" y="566.791" width="202.327" height="202.327" style="fill:#9c1515;stroke:#ebebe8;stroke-width:6.25px;"/><rect x="409.572" y="924.223" width="202.327" height="202.327" style="fill:#9c1515;stroke:#ebebe8;stroke-width:6.25px;"/><rect x="137.238" y="566.791" width="202.327" height="202.327" style="fill:#9c1515;stroke:#ebebe8;stroke-width:6.25px;"/><rect x="2043.73" y="719.183" width="202.327" height="202.327" style="fill:#337fd8;stroke:#ebebe8;stroke-width:6.25px;"/><rect x="954.241" y="924.223" width="202.327" height="202.327" style="fill:#9c1515;stroke:#ebebe8;stroke-width:6.25px;"/><rect x="409.572" y="566.791" width="202.327" height="202.327" style="fill:#9c1515;stroke:#ebebe8;stroke-width:6.25px;"/><rect x="2316.07" y="719.183" width="202.327" height="202.327" style="fill:#337fd8;stroke:#ebebe8;stroke-width:6.25px;"/><rect x="1226.58" y="924.223" width="202.327" height="202.327" style="fill:#9c1515;stroke:#ebebe8;stroke-width:6.25px;"/><rect x="1226.58" y="566.791" width="202.327" height="202.327" style="fill:#9c1515;stroke:#ebebe8;stroke-width:6.25px;"/><rect x="681.907" y="924.223" width="202.327" height="202.327" style="fill:#9c1515;stroke:#ebebe8;stroke-width:6.25px;"/><text x="164.393px" y="131.863px" style="font-family:'HelveticaNeue-Light', 'Helvetica Neue';font-weight:300;font-size:70.793px;fill:#ebebe8;">T<tspan x="203.126px 240.535px 276.69px 296.056px 342.521px 378.677px 418.663px 456.072px 496.059px 508.946px 521.834px 557.989px 594.144px 631.553px 665.061px 684.428px 721.837px 757.992px 790.246px 826.401px 845.767px 876.698px 889.585px 929.572px 969.558px 1005.71px 1045.7px 1065.07px 1103.8px 1142.53px 1161.9px 1195.41px 1231.56px 1267.72px 1288.34px 1321.84px 1341.21px 1374.72px 1413.45px 1432.82px 1450.86px 1487.02px 1502.55px 1521.92px 1541.28px 1592.9px 1630.31px 1643.2px 1656.09px 1692.24px 1711.61px 1732.23px 1769.64px 1805.79px 1825.16px 1872.88px 1909.03px 1967.06px 2005.8px 2041.95px 2063.89px 2100.05px 2120.67px 2154.18px 2173.55px 2210.95px 2247.11px 2279.36px 2315.52px 2334.88px 2365.82px 2378.7px 2418.69px 2458.68px 2494.83px 2534.82px 2554.18px 2574.8px 2612.21px 2632.9px 2669.06px 2705.21px " y="131.863px 131.863px 131.863px 131.863px 131.863px 131.863px 131.863px 131.863px 131.863px 131.863px 131.863px 131.863px 131.863px 131.863px 131.863px 131.863px 131.863px 131.863px 131.863px 131.863px 131.863px 131.863px 131.863px 131.863px 131.863px 131.863px 131.863px 131.863px 131.863px 131.863px 131.863px 131.863px 131.863px 131.863px 131.863px 131.863px 131.863px 131.863px 131.863px 131.863px 131.863px 131.863px 131.863px 131.863px 131.863px 131.863px 131.863px 131.863px 131.863px 131.863px 131.863px 131.863px 131.863px 131.863px 131.863px 131.863px 131.863px 131.863px 131.863px 131.863px 131.863px 131.863px 131.863px 131.863px 131.863px 131.863px 131.863px 131.863px 131.863px 131.863px 131.863px 131.863px 131.863px 131.863px 131.863px 131.863px 131.863px 131.863px 131.863px 131.863px 131.863px 131.863px ">he Republicans have ﬂipped 12 seats so far, while the Democrats have ﬂipped three.</tspan></text><g transform="matrix(1.41586,0,0,1.41586,-322.678,-1753.66)"><g transform="matrix(0.984035,0,0,1,10.5527,0)"><text x="661.004px" y="1406.41px" style="font-family:'HelveticaNeue', 'Helvetica Neue';font-size:32px;fill:#ebebe8;">Key Florida races in Miami-Dade</text></g><g transform="matrix(0.984035,0,0,1,10.5811,0)"><text x="662.783px" y="1439.31px" style="font-family:'HelveticaNeue', 'Helvetica Neue';font-size:32px;fill:#ebebe8;">County followed the Pr<tspan x="989.311px 1006.5px " y="1439.31px 1439.31px ">es</tspan>idential</text></g><g transform="matrix(0.984035,0,0,1,10.6364,0)"><text x="666.247px" y="1472.2px" style="font-family:'HelveticaNeue', 'Helvetica Neue';font-size:32px;fill:#ebebe8;">race and ﬂipped to Republicans</text></g></g><g transform="matrix(1.41586,0,0,1.41586,1069.84,-1641.48)"><g transform="matrix(0.984035,0,0,1,10.3245,0)"><text x="646.708px" y="1406.41px" style="font-family:'HelveticaNeue', 'Helvetica Neue';font-size:32px;fill:#ebebe8;">After narr<tspan x="779.444px 797.812px " y="1406.41px 1406.41px ">ow</tspan>ly missing out in 2018,</text></g><g transform="matrix(0.984035,0,0,1,10.0545,0)"><text x="629.798px" y="1439.31px" style="font-family:'HelveticaNeue', 'Helvetica Neue';font-size:32px;fill:#ebebe8;">Democrat Car<tspan x="829.542px 847.91px " y="1439.31px 1439.31px ">ol</tspan>yn Bor<tspan x="948.07px 967.046px " y="1439.31px 1439.31px ">de</tspan>aux secur<tspan x="1122.92px 1140.1px " y="1439.31px 1439.31px ">ed</tspan></text></g><g transform="matrix(0.984035,0,0,1,10.9486,0)"><text x="685.802px" y="1472.2px" style="font-family:'HelveticaNeue', 'Helvetica Neue';font-size:32px;fill:#ebebe8;">her victory in GA-07 this year</text></g></g><text x="159.909px" y="546.661px" style="font-family:'HelveticaNeue-Bold', 'Helvetica Neue';font-weight:700;font-size:56.635px;fill:#ebebe8;">C<tspan x="201.205px 239.38px 262.063px 293.049px " y="546.661px 546.661px 546.661px 546.661px ">A-39</tspan></text><text x="167.148px" y="695.734px" style="font-family:'HelveticaNeue-Bold', 'Helvetica Neue';font-weight:700;font-size:70.793px;fill:#ebebe8;">+<tspan x="208.946px 247.679px 267.045px " y="695.734px 695.734px 695.734px ">1.2</tspan></text><text x="446.153px" y="695.734px" style="font-family:'HelveticaNeue-Bold', 'Helvetica Neue';font-weight:700;font-size:70.793px;fill:#ebebe8;">+<tspan x="487.951px 526.683px 546.05px " y="695.734px 695.734px 695.734px ">2.1</tspan></text><text x="710.903px" y="695.734px" style="font-family:'HelveticaNeue-Bold', 'Helvetica Neue';font-weight:700;font-size:70.793px;fill:#ebebe8;">+<tspan x="752.701px 791.433px 810.8px " y="695.734px 695.734px 695.734px ">3.3</tspan></text><text x="992.032px" y="695.734px" style="font-family:'HelveticaNeue-Bold', 'Helvetica Neue';font-weight:700;font-size:70.793px;fill:#ebebe8;">+<tspan x="1033.83px 1072.56px 1091.93px " y="695.734px 695.734px 695.734px ">2.7</tspan></text><text x="1263.96px" y="692.863px" style="font-family:'HelveticaNeue-Bold', 'Helvetica Neue';font-weight:700;font-size:70.793px;fill:#ebebe8;">+<tspan x="1305.76px 1344.5px 1363.86px " y="692.863px 692.863px 692.863px ">2.6</tspan></text><text x="2075.18px" y="848.126px" style="font-family:'HelveticaNeue-Bold', 'Helvetica Neue';font-weight:700;font-size:70.793px;fill:#ebebe8;">+<tspan x="2116.98px 2155.71px 2175.08px " y="848.126px 848.126px 848.126px ">2.8</tspan></text><text x="2330.16px" y="848.126px" style="font-family:'HelveticaNeue-Bold', 'Helvetica Neue';font-weight:700;font-size:70.793px;fill:#ebebe8;">+<tspan x="2371.96px 2410.69px 2449.42px 2468.79px " y="848.126px 848.126px 848.126px 848.126px ">28.1</tspan></text><text x="167.148px" y="1051.4px" style="font-family:'HelveticaNeue-Bold', 'Helvetica Neue';font-weight:700;font-size:70.793px;fill:#ebebe8;">+<tspan x="208.946px 247.679px 267.045px " y="1051.4px 1051.4px 1051.4px ">5.9</tspan></text><text x="418.404px" y="1051.4px" style="font-family:'HelveticaNeue-Bold', 'Helvetica Neue';font-weight:700;font-size:70.793px;fill:#ebebe8;">+<tspan x="460.202px 498.934px 537.667px 557.033px " y="1051.4px 1051.4px 1051.4px 1051.4px ">13.6</tspan></text><text x="710.903px" y="1051.4px" style="font-family:'HelveticaNeue-Bold', 'Helvetica Neue';font-weight:700;font-size:70.793px;fill:#ebebe8;">+<tspan x="752.701px 791.433px 810.8px " y="1051.4px 1051.4px 1051.4px ">7.5</tspan></text><text x="981.951px" y="1051.4px" style="font-family:'HelveticaNeue-Bold', 'Helvetica Neue';font-weight:700;font-size:70.793px;fill:#ebebe8;">+<tspan x="1023.75px 1062.48px 1081.85px " y="1051.4px 1051.4px 1051.4px ">4.1</tspan></text><text x="1253.96px" y="1051.4px" style="font-family:'HelveticaNeue-Bold', 'Helvetica Neue';font-weight:700;font-size:70.793px;fill:#ebebe8;">+<tspan x="1295.76px 1334.49px 1353.85px " y="1051.4px 1051.4px 1051.4px ">1.3</tspan></text><text x="2604.97px" y="845.624px" style="font-family:'HelveticaNeue-Bold', 'Helvetica Neue';font-weight:700;font-size:70.793px;fill:#ebebe8;">+<tspan x="2646.77px 2685.5px 2724.23px 2743.6px " y="845.624px 845.624px 845.624px 845.624px ">24.5</tspan></text><text x="431.569px" y="546.661px" style="font-family:'HelveticaNeue-Bold', 'Helvetica Neue';font-weight:700;font-size:56.635px;fill:#ebebe8;">C<tspan x="472.865px 511.04px 533.722px 564.709px " y="546.661px 546.661px 546.661px 546.661px ">A-48</tspan></text><text x="710.671px" y="546.661px" style="font-family:'HelveticaNeue-Bold', 'Helvetica Neue';font-weight:700;font-size:56.635px;fill:#ebebe8;">F<tspan x="743.72px 776.768px 799.45px 830.436px " y="546.661px 546.661px 546.661px 546.661px ">L-26</tspan></text><text x="981.586px" y="546.661px" style="font-family:'HelveticaNeue-Bold', 'Helvetica Neue';font-weight:700;font-size:56.635px;fill:#ebebe8;">F<tspan x="1014.63px 1047.68px 1070.37px 1101.35px " y="546.661px 546.661px 546.661px 546.661px ">L-27</tspan></text><text x="1262.91px" y="546.661px" style="font-family:'HelveticaNeue-Bold', 'Helvetica Neue';font-weight:700;font-size:56.635px;fill:#ebebe8;">I<tspan x="1279.35px 1317.53px 1340.21px 1371.2px " y="546.661px 546.661px 546.661px 546.661px ">A-01</tspan></text><text x="2062.56px" y="699.053px" style="font-family:'HelveticaNeue-Bold', 'Helvetica Neue';font-weight:700;font-size:56.635px;fill:#ebebe8;">G<tspan x="2104.86px 2143.04px 2165.72px 2196.7px " y="699.053px 699.053px 699.053px 699.053px ">A-07</tspan></text><text x="2335.65px" y="699.053px" style="font-family:'HelveticaNeue-Bold', 'Helvetica Neue';font-weight:700;font-size:56.635px;fill:#ebebe8;">N<tspan x="2376.95px 2418.24px 2440.93px 2471.91px " y="699.053px 699.053px 699.053px 699.053px ">C-02</tspan></text><text x="166.151px" y="907.613px" style="font-family:'HelveticaNeue-Bold', 'Helvetica Neue';font-weight:700;font-size:56.635px;fill:#ebebe8;">M<tspan x="216.698px 233.139px 255.821px 286.807px " y="907.613px 907.613px 907.613px 907.613px ">I-03</tspan></text><text x="425.383px" y="907.613px" style="font-family:'HelveticaNeue-Bold', 'Helvetica Neue';font-weight:700;font-size:56.635px;fill:#ebebe8;">M<tspan x="475.93px 517.226px 539.909px 570.895px " y="907.613px 907.613px 907.613px 907.613px ">N-07</tspan></text><text x="697.798px" y="907.613px" style="font-family:'HelveticaNeue-Bold', 'Helvetica Neue';font-weight:700;font-size:56.635px;fill:#ebebe8;">N<tspan x="739.094px 789.641px 812.324px 843.31px " y="907.613px 907.613px 907.613px 907.613px ">M-02</tspan></text><text x="972.836px" y="907.613px" style="font-family:'HelveticaNeue-Bold', 'Helvetica Neue';font-weight:700;font-size:56.635px;fill:#ebebe8;">O<tspan x="1016.2px 1056.43px 1079.11px 1110.1px " y="907.613px 907.613px 907.613px 907.613px ">K-05</tspan></text><text x="1251.49px" y="907.613px" style="font-family:'HelveticaNeue-Bold', 'Helvetica Neue';font-weight:700;font-size:56.635px;fill:#ebebe8;">S<tspan x="1287.66px 1328.95px 1351.64px 1382.62px " y="907.613px 907.613px 907.613px 907.613px ">C-01</tspan></text><rect x="1507.04" y="924.223" width="202.327" height="202.327" style="fill:#9c1515;stroke:#ebebe8;stroke-width:6.25px;"/><text x="1534.43px" y="1044.47px" style="font-family:'HelveticaNeue-Bold', 'Helvetica Neue';font-weight:700;font-size:70.793px;fill:#ebebe8;">+<tspan x="1576.22px 1614.96px 1634.32px " y="1044.47px 1044.47px 1044.47px ">1.0</tspan></text><text x="1536.61px" y="907.613px" style="font-family:'HelveticaNeue-Bold', 'Helvetica Neue';font-weight:700;font-size:56.635px;fill:#ebebe8;">U<tspan x="1577.91px 1604.77px 1627.45px 1658.44px " y="907.613px 907.613px 907.613px 907.613px ">T-04</tspan></text><rect x="1504.8" y="566.197" width="202.327" height="202.327" style="fill:#9c1515;stroke:#ebebe8;stroke-width:6.25px;"/><text x="1512.81px" y="692.861px" style="font-family:'HelveticaNeue-Bold', 'Helvetica Neue';font-weight:700;font-size:70.793px;fill:#ebebe8;">+<tspan x="1554.61px 1593.34px 1632.08px 1651.44px " y="692.861px 692.861px 692.861px 692.861px ">15.8</tspan></text><text x="1532.3px" y="549.587px" style="font-family:'HelveticaNeue-Bold', 'Helvetica Neue';font-weight:700;font-size:56.635px;fill:#ebebe8;">N<tspan x="1573.6px 1604.58px 1627.27px 1658.25px " y="549.587px 549.587px 549.587px 549.587px ">Y-11</tspan></text><text x="2610.98px" y="699.053px" style="font-family:'HelveticaNeue-Bold', 'Helvetica Neue';font-weight:700;font-size:56.635px;fill:#ebebe8;">N<tspan x="2652.27px 2693.57px 2716.25px 2747.24px " y="699.053px 699.053px 699.053px 699.053px ">C-06</tspan></text><path d="M827.785,451.442l-23.143,26.729l-26.729,-23.143" style="fill:none;stroke:#ebebe8;stroke-width:8.33px;stroke-linejoin:miter;stroke-miterlimit:10;"/><path d="M853.456,367.694c-0,0 -53.869,23.23 -48.814,110.477" style="fill:none;stroke:#ebebe8;stroke-width:8.33px;"/><path d="M1087.61,456.962l-24.593,25.4l-25.401,-24.592" style="fill:none;stroke:#ebebe8;stroke-width:8.33px;stroke-linejoin:miter;stroke-miterlimit:10;"/><path d="M1015.94,371.045c0,0 44.738,39.116 47.08,111.317" style="fill:none;stroke:#ebebe8;stroke-width:8.33px;"/><path d="M2130.25,590.995l28.163,21.373l21.374,-28.163" style="fill:none;stroke:#ebebe8;stroke-width:8.33px;stroke-linejoin:miter;stroke-miterlimit:10;"/><path d="M2158.41,612.368c-1.791,-17.51 -3.019,-72.066 39.865,-131.541" style="fill:none;stroke:#ebebe8;stroke-width:8.33px;"/></g></svg>