<?xml version="1.0" encoding="UTF-8" standalone="no"?><!DOCTYPE svg PUBLIC "-//W3C//DTD SVG 1.1//EN" "http://www.w3.org/Graphics/SVG/1.1/DTD/svg11.dtd"><svg width="100%" height="100%" viewBox="0 0 1334 1626" version="1.1" xmlns="http://www.w3.org/2000/svg" xmlns:xlink="http://www.w3.org/1999/xlink" xml:space="preserve" xmlns:serif="http://www.serif.com/" style="fill-rule:evenodd;clip-rule:evenodd;stroke-linecap:round;stroke-linejoin:round;stroke-miterlimit:1.5;"><rect id="house-uncalled-mobile" x="0" y="0" width="1333.33" height="1625.35" style="fill:none;"/><clipPath id="_clip1"><rect x="0" y="0" width="1333.33" height="1625.35"/></clipPath><g clip-path="url(#_clip1)"><g><rect x="-27.081" y="-9.434" width="1385.64" height="1648.98" style="fill:#1f3138;"/><g><g><rect x="118.535" y="397.463" width="164.327" height="139.684" style="fill:#808080;"/><rect x="118.535" y="373.775" width="164.327" height="164.327" style="fill:none;stroke:#ebebe8;stroke-width:6.25px;"/></g><path d="M79.772,423.082l15,-15l15,15" style="fill:none;stroke:#ebebe8;stroke-width:8.33px;stroke-linejoin:miter;stroke-miterlimit:10;"/><path d="M94.772,539.121l0,-131.039" style="fill:none;stroke:#ebebe8;stroke-width:8.33px;"/><g transform="matrix(1.14995,0,0,1.14995,-820.534,-1150.81)"><g transform="matrix(0.984035,0,0,1,13.4,0)"><text x="839.349px" y="1406.41px" style="font-family:'HelveticaNeue-Bold', 'Helvetica Neue';font-weight:700;font-size:30px;fill:#ebebe8;">curr<tspan x="897.159px 914.379px " y="1406.41px 1406.41px ">en</tspan>t</text></g><g transform="matrix(0.984035,0,0,1,13.7367,0)"><text x="860.441px" y="1437.28px" style="font-family:'HelveticaNeue-Bold', 'Helvetica Neue';font-weight:700;font-size:30px;fill:#ebebe8;">lead</text></g></g><text x="168.588px" y="359.706px" style="font-family:'HelveticaNeue-Bold', 'Helvetica Neue';font-weight:700;font-size:34.498px;fill:#ebebe8;">s<tspan x="186.817px 206.303px 225.789px " y="359.706px 359.706px 359.706px ">eat</tspan></text><g transform="matrix(7.04139e-17,-1.14995,1.14995,7.04139e-17,-1569.86,1500.5)"><g transform="matrix(0.984035,0,0,1,13.9921,0)"><text x="876.437px" y="1406.41px" style="font-family:'HelveticaNeue-Bold', 'Helvetica Neue';font-weight:700;font-size:28px;fill:#ebebe8;">%</text></g><g transform="matrix(0.984035,0,0,1,13.3525,0)"><text x="836.375px" y="1426.41px" style="font-family:'HelveticaNeue-Bold', 'Helvetica Neue';font-weight:700;font-size:28px;fill:#ebebe8;">counted</text></g></g></g><g transform="matrix(3.35229,0,0,3.35229,-86.4163,-4643.73)"><g transform="matrix(0.984035,0,0,1,0.540511,0)"><text x="33.857px" y="1406.41px" style="font-family:'HelveticaNeue-Light', 'Helvetica Neue';font-weight:300;font-size:16px;fill:#ebebe8;">Ther<tspan x="64.401px 72.705px " y="1406.41px 1406.41px ">e </tspan>ar<tspan x="90.209px 98.513px " y="1406.41px 1406.41px ">e </tspan>14 seats still to be called. Some ar<tspan x="339.185px 347.489px " y="1406.41px 1406.41px ">e </tspan>very close</text></g><g transform="matrix(0.984035,0,0,1,0.540511,0)"><text x="33.857px" y="1426.41px" style="font-family:'HelveticaNeue-Light', 'Helvetica Neue';font-weight:300;font-size:16px;fill:#ebebe8;">and counting continues, but Republicans ar<tspan x="333.185px 341.489px " y="1426.41px 1426.41px ">e </tspan>on track</text></g><g transform="matrix(0.984035,0,0,1,0.540511,0)"><text x="33.857px" y="1446.41px" style="font-family:'HelveticaNeue-Light', 'Helvetica Neue';font-weight:300;font-size:16px;fill:#ebebe8;">to pick up mor<tspan x="134.033px 142.337px " y="1446.41px 1446.41px ">e </tspan>of them than Democrats.</text></g></g><g><rect x="690.182" y="378.321" width="163.213" height="159.901" style="fill:#9c1515;"/><rect x="690.182" y="375.908" width="163.213" height="163.213" style="fill:none;stroke:#ebebe8;stroke-width:6.25px;"/></g><g><rect x="473.511" y="711.32" width="163.213" height="138.737" style="fill:#9c1515;"/><rect x="473.511" y="687.794" width="163.213" height="163.213" style="fill:none;stroke:#ebebe8;stroke-width:6.25px;"/></g><g><rect x="259.916" y="1041.38" width="163.213" height="125.636" style="fill:#9c1515;"/><rect x="259.916" y="1004.77" width="163.213" height="163.213" style="fill:none;stroke:#ebebe8;stroke-width:6.25px;"/></g><g><g><rect x="902.238" y="381.519" width="163.213" height="156.703" style="fill:#337fd8;"/></g><rect x="902.238" y="375.908" width="163.213" height="163.213" style="fill:none;stroke:#ebebe8;stroke-width:6.25px;"/></g><g><rect x="687.105" y="714.598" width="163.213" height="135.459" style="fill:#337fd8;"/><rect x="687.105" y="687.794" width="163.213" height="163.213" style="fill:none;stroke:#ebebe8;stroke-width:6.25px;"/></g><g><rect x="473.511" y="1046.24" width="163.213" height="120.782" style="fill:#9c1515;"/><rect x="473.511" y="1004.77" width="163.213" height="163.213" style="fill:none;stroke:#ebebe8;stroke-width:6.25px;"/></g><g><rect x="478.126" y="378.321" width="163.213" height="159.901" style="fill:#9c1515;"/><rect x="478.126" y="375.908" width="163.213" height="163.213" style="fill:none;stroke:#ebebe8;stroke-width:6.25px;"/></g><text x="526.12px" y="475.682px" style="font-family:'HelveticaNeue-Bold', 'Helvetica Neue';font-weight:700;font-size:53.637px;fill:#ebebe8;">+<tspan x="557.788px " y="475.682px ">4</tspan></text><text x="702.567px" y="474.982px" style="font-family:'HelveticaNeue-Bold', 'Helvetica Neue';font-weight:700;font-size:53.637px;fill:#ebebe8;">+<tspan x="734.235px 763.581px 778.254px 807.6px " y="474.982px 474.982px 474.982px 474.982px ">0.52</tspan></text><g><rect x="46.322" y="703.177" width="163.213" height="146.88" style="fill:#9c1515;"/><rect x="46.322" y="687.794" width="163.213" height="163.213" style="fill:none;stroke:#ebebe8;stroke-width:6.25px;"/></g><g><rect x="1114.3" y="721.094" width="163.213" height="128.949" style="fill:#9c1515;"/><rect x="1114.3" y="687.794" width="163.213" height="163.213" style="fill:none;stroke:#ebebe8;stroke-width:6.25px;"/></g><g><rect x="259.916" y="704.776" width="163.213" height="145.281" style="fill:#9c1515;"/><rect x="259.916" y="687.794" width="163.213" height="163.213" style="fill:none;stroke:#ebebe8;stroke-width:6.25px;"/></g><g><rect x="46.322" y="1038.07" width="163.213" height="128.949" style="fill:#337fd8;"/><rect x="46.322" y="1004.77" width="163.213" height="163.213" style="fill:none;stroke:#ebebe8;stroke-width:6.25px;"/></g><g><rect x="1114.3" y="383.118" width="163.213" height="155.104" style="fill:#9c1515;"/><rect x="1114.3" y="375.908" width="163.213" height="163.213" style="fill:none;stroke:#ebebe8;stroke-width:6.25px;"/></g><g><rect x="900.7" y="719.51" width="163.213" height="130.548" style="fill:#9c1515;"/><rect x="900.7" y="687.794" width="163.213" height="163.213" style="fill:none;stroke:#ebebe8;stroke-width:6.25px;"/></g><g><rect x="900.7" y="1004.77" width="163.213" height="163.213" style="fill:#dcdcdc;"/><rect x="900.7" y="1004.77" width="163.213" height="163.213" style="fill:none;stroke:#ebebe8;stroke-width:6.25px;"/></g><text x="486.277px" y="362.115px" style="font-family:'HelveticaNeue-Bold', 'Helvetica Neue';font-weight:700;font-size:53.637px;fill:#ebebe8;">C<tspan x="525.388px 561.542px 583.024px 612.37px " y="362.115px 362.115px 362.115px 362.115px ">A-21</tspan></text><text x="696.299px" y="362.115px" style="font-family:'HelveticaNeue-Bold', 'Helvetica Neue';font-weight:700;font-size:53.637px;fill:#ebebe8;">U<tspan x="735.409px 760.849px 782.33px 811.676px " y="362.115px 362.115px 362.115px 362.115px ">T-04</tspan></text><text x="909.779px" y="362.115px" style="font-family:'HelveticaNeue-Bold', 'Helvetica Neue';font-weight:700;font-size:53.637px;fill:#ebebe8;">N<tspan x="948.889px 978.235px 999.716px 1029.06px " y="362.115px 362.115px 362.115px 362.115px ">J-07</tspan></text><text x="1118.61px" y="362.115px" style="font-family:'HelveticaNeue-Bold', 'Helvetica Neue';font-weight:700;font-size:53.637px;fill:#ebebe8;">C<tspan x="1157.72px 1193.88px 1215.36px 1244.7px " y="362.115px 362.115px 362.115px 362.115px ">A-25</tspan></text><text x="51.074px" y="677.492px" style="font-family:'HelveticaNeue-Bold', 'Helvetica Neue';font-weight:700;font-size:53.637px;fill:#ebebe8;">N<tspan x="90.184px 119.53px 141.011px 170.357px " y="677.492px 677.492px 677.492px 677.492px ">Y-24</tspan></text><text x="281.841px" y="676.794px" style="font-family:'HelveticaNeue-Bold', 'Helvetica Neue';font-weight:700;font-size:53.637px;fill:#ebebe8;">I<tspan x="297.411px 333.566px 355.047px 384.393px " y="676.794px 676.794px 676.794px 676.794px ">A-02</tspan></text><text x="486.461px" y="677.492px" style="font-family:'HelveticaNeue-Bold', 'Helvetica Neue';font-weight:700;font-size:53.637px;fill:#ebebe8;">N<tspan x="525.571px 554.917px 576.398px 605.744px " y="677.492px 677.492px 677.492px 677.492px ">Y-11</tspan></text><text x="701.714px" y="676.794px" style="font-family:'HelveticaNeue-Bold', 'Helvetica Neue';font-weight:700;font-size:53.637px;fill:#ebebe8;">N<tspan x="740.824px 770.17px 791.651px 820.997px " y="676.794px 676.794px 676.794px 676.794px ">Y-19</tspan></text><text x="906.717px" y="677.492px" style="font-family:'HelveticaNeue-Bold', 'Helvetica Neue';font-weight:700;font-size:53.637px;fill:#ebebe8;">N<tspan x="945.827px 975.173px 996.655px 1026px " y="677.492px 677.492px 677.492px 677.492px ">Y-22</tspan></text><text x="51.884px" y="995.211px" style="font-family:'HelveticaNeue-Bold', 'Helvetica Neue';font-weight:700;font-size:53.637px;fill:#ebebe8;">N<tspan x="90.994px 120.34px 141.821px 171.167px " y="995.211px 995.211px 995.211px 995.211px ">Y-18</tspan></text><text x="1122.36px" y="676.794px" style="font-family:'HelveticaNeue-Bold', 'Helvetica Neue';font-weight:700;font-size:53.637px;fill:#ebebe8;">N<tspan x="1161.47px 1190.81px 1212.3px 1241.64px " y="676.794px 676.794px 676.794px 676.794px ">Y-02</tspan></text><text x="272.159px" y="995.211px" style="font-family:'HelveticaNeue-Bold', 'Helvetica Neue';font-weight:700;font-size:53.637px;fill:#ebebe8;">N<tspan x="311.269px 340.615px 362.096px 391.442px " y="995.211px 995.211px 995.211px 995.211px ">Y-01</tspan></text><text x="482.508px" y="995.211px" style="font-family:'HelveticaNeue-Bold', 'Helvetica Neue';font-weight:700;font-size:53.637px;fill:#ebebe8;">N<tspan x="521.618px 550.964px 572.445px 601.791px " y="995.211px 995.211px 995.211px 995.211px ">Y-03</tspan></text><text x="907.115px" y="995.208px" style="font-family:'HelveticaNeue-Bold', 'Helvetica Neue';font-weight:700;font-size:53.637px;fill:#ebebe8;">L<tspan x="938.414px 974.568px 996.05px 1025.4px " y="995.208px 995.208px 995.208px 995.208px ">A-05</tspan></text><text x="955.501px" y="475.682px" style="font-family:'HelveticaNeue-Bold', 'Helvetica Neue';font-weight:700;font-size:53.637px;fill:#ebebe8;">+<tspan x="987.169px " y="475.682px ">1</tspan></text><text x="1154.13px" y="475.682px" style="font-family:'HelveticaNeue-Bold', 'Helvetica Neue';font-weight:700;font-size:53.637px;fill:#ebebe8;">+<tspan x="1185.8px 1215.14px " y="475.682px 475.682px ">11</tspan></text><text x="82.402px" y="795.299px" style="font-family:'HelveticaNeue-Bold', 'Helvetica Neue';font-weight:700;font-size:53.637px;fill:#ebebe8;">+<tspan x="114.07px 143.416px " y="795.299px 795.299px ">19</tspan></text><text x="277.102px" y="795.299px" style="font-family:'HelveticaNeue-Bold', 'Helvetica Neue';font-weight:700;font-size:53.637px;fill:#ebebe8;">+<tspan x="308.77px 338.116px 352.789px 382.135px " y="795.299px 795.299px 795.299px 795.299px ">0.01</tspan></text><text x="937.384px" y="795.272px" style="font-family:'HelveticaNeue-Bold', 'Helvetica Neue';font-weight:700;font-size:53.637px;fill:#ebebe8;">+<tspan x="969.052px 998.398px " y="795.272px 795.272px ">11</tspan></text><text x="1151.09px" y="795.299px" style="font-family:'HelveticaNeue-Bold', 'Helvetica Neue';font-weight:700;font-size:53.637px;fill:#ebebe8;">+<tspan x="1182.76px 1212.1px " y="795.299px 795.299px ">16</tspan></text><text x="510.743px" y="795.299px" style="font-family:'HelveticaNeue-Bold', 'Helvetica Neue';font-weight:700;font-size:53.637px;fill:#ebebe8;">+<tspan x="542.411px 571.757px " y="795.299px 795.299px ">16</tspan></text><text x="736.236px" y="795.272px" style="font-family:'HelveticaNeue-Bold', 'Helvetica Neue';font-weight:700;font-size:53.637px;fill:#ebebe8;">+<tspan x="767.904px " y="795.272px ">4</tspan></text><text x="94.096px" y="1116.25px" style="font-family:'HelveticaNeue-Bold', 'Helvetica Neue';font-weight:700;font-size:53.637px;fill:#ebebe8;">+<tspan x="125.764px " y="1116.25px ">4</tspan></text><text x="296.086px" y="1116.27px" style="font-family:'HelveticaNeue-Bold', 'Helvetica Neue';font-weight:700;font-size:53.637px;fill:#ebebe8;">+<tspan x="327.755px 357.1px " y="1116.27px 1116.27px ">23</tspan></text><text x="485.579px" y="1116.27px" style="font-family:'HelveticaNeue-Bold', 'Helvetica Neue';font-weight:700;font-size:53.637px;fill:#ebebe8;">+<tspan x="517.248px 546.593px 561.266px 590.612px " y="1116.27px 1116.27px 1116.27px 1116.27px ">0.33</tspan></text><g transform="matrix(3.35229,0,0,3.35229,-1989.68,-3272.88)"><g transform="matrix(0.984035,0,0,1,13.4422,0)"><text x="841.996px" y="1406.41px" style="font-family:'HelveticaNeue', 'Helvetica Neue';font-size:14px;fill:#ebebe8;">LA-05 will go to</text></g><g transform="matrix(0.984035,0,0,1,13.4947,0)"><text x="845.281px" y="1420.8px" style="font-family:'HelveticaNeue', 'Helvetica Neue';font-size:14px;fill:#ebebe8;">a run-oﬀ as no</text></g><g transform="matrix(0.984035,0,0,1,13.3626,0)"><text x="837.009px" y="1435.19px" style="font-family:'HelveticaNeue', 'Helvetica Neue';font-size:14px;fill:#ebebe8;">candidate gained</text></g><g transform="matrix(0.984035,0,0,1,13.4257,0)"><text x="840.962px" y="1449.59px" style="font-family:'HelveticaNeue', 'Helvetica Neue';font-size:14px;fill:#ebebe8;">50% of the vote</text></g></g><path d="M962.15,1234.45l25,-25l25,25" style="fill:none;stroke:#ebebe8;stroke-width:8.33px;stroke-linejoin:miter;stroke-miterlimit:10;"/><path d="M987.15,1364.67l0,-155.211" style="fill:none;stroke:#ebebe8;stroke-width:8.33px;"/></g></g></svg>