<?xml version="1.0" encoding="UTF-8" standalone="no"?><!DOCTYPE svg PUBLIC "-//W3C//DTD SVG 1.1//EN" "http://www.w3.org/Graphics/SVG/1.1/DTD/svg11.dtd"><svg width="100%" height="100%" viewBox="0 0 1334 1626" version="1.1" xmlns="http://www.w3.org/2000/svg" xmlns:xlink="http://www.w3.org/1999/xlink" xml:space="preserve" xmlns:serif="http://www.serif.com/" style="fill-rule:evenodd;clip-rule:evenodd;stroke-linecap:round;stroke-linejoin:round;stroke-miterlimit:1.5;"><rect id="house-uncalled-mobile" x="0" y="0" width="1333.33" height="1625.35" style="fill:none;"/><clipPath id="_clip1"><rect x="0" y="0" width="1333.33" height="1625.35"/></clipPath><g clip-path="url(#_clip1)"><rect x="-27.081" y="-9.434" width="1385.64" height="1648.98" style="fill:#1f3138;"/><rect x="118.535" y="527.376" width="164.327" height="139.684" style="fill:#808080;"/><rect x="118.535" y="503.689" width="164.327" height="164.327" style="fill:none;stroke:#ebebe8;stroke-width:6.25px;"/><path d="M79.772,552.995l15,-15l15,15" style="fill:none;stroke:#ebebe8;stroke-width:8.33px;stroke-linejoin:miter;stroke-miterlimit:10;"/><path d="M94.772,669.034l0,-131.039" style="fill:none;stroke:#ebebe8;stroke-width:8.33px;"/><g transform="matrix(1.14995,0,0,1.14995,-820.534,-1020.9)"><g transform="matrix(0.984035,0,0,1,13.4,0)"><text x="839.349px" y="1406.41px" style="font-family:'HelveticaNeue-Bold', 'Helvetica Neue';font-weight:700;font-size:30px;fill:#ebebe8;">curr<tspan x="897.159px 914.379px " y="1406.41px 1406.41px ">en</tspan>t</text></g><g transform="matrix(0.984035,0,0,1,13.7367,0)"><text x="860.441px" y="1437.28px" style="font-family:'HelveticaNeue-Bold', 'Helvetica Neue';font-weight:700;font-size:30px;fill:#ebebe8;">lead</text></g></g><text x="168.588px" y="489.619px" style="font-family:'HelveticaNeue-Bold', 'Helvetica Neue';font-weight:700;font-size:34.498px;fill:#ebebe8;">s<tspan x="186.817px 206.303px 225.789px " y="489.619px 489.619px 489.619px ">eat</tspan></text><g transform="matrix(7.04139e-17,-1.14995,1.14995,7.04139e-17,-1569.86,1630.42)"><g transform="matrix(0.984035,0,0,1,13.9921,0)"><text x="876.437px" y="1406.41px" style="font-family:'HelveticaNeue-Bold', 'Helvetica Neue';font-weight:700;font-size:28px;fill:#ebebe8;">%</text></g><g transform="matrix(0.984035,0,0,1,13.3525,0)"><text x="836.375px" y="1426.41px" style="font-family:'HelveticaNeue-Bold', 'Helvetica Neue';font-weight:700;font-size:28px;fill:#ebebe8;">counted</text></g></g><g transform="matrix(3.35229,0,0,3.35229,-86.4163,-4643.73)"><g transform="matrix(0.984035,0,0,1,0.540511,0)"><text x="33.857px" y="1406.41px" style="font-family:'HelveticaNeue-Light', 'Helvetica Neue';font-weight:300;font-size:16px;fill:#ebebe8;">Ther<tspan x="64.401px 72.705px " y="1406.41px 1406.41px ">e </tspan>ar<tspan x="90.209px 98.513px " y="1406.41px 1406.41px ">e </tspan>6 seats still to be called. Some ar<tspan x="330.289px 338.593px " y="1406.41px 1406.41px ">e </tspan>very close</text></g><g transform="matrix(0.984035,0,0,1,0.540511,0)"><text x="33.857px" y="1426.41px" style="font-family:'HelveticaNeue-Light', 'Helvetica Neue';font-weight:300;font-size:16px;fill:#ebebe8;">and counting continues, but Republicans ar<tspan x="333.185px 341.489px " y="1426.41px 1426.41px ">e </tspan>on track</text></g><g transform="matrix(0.984035,0,0,1,0.540511,0)"><text x="33.857px" y="1446.41px" style="font-family:'HelveticaNeue-Light', 'Helvetica Neue';font-weight:300;font-size:16px;fill:#ebebe8;">to pick up mor<tspan x="134.033px 142.337px " y="1446.41px 1446.41px ">e </tspan>of them than Democrats.</text></g></g><rect x="707.854" y="827.005" width="163.213" height="155.833" style="fill:#9c1515;"/><rect x="707.854" y="819.626" width="163.213" height="163.213" style="fill:none;stroke:#ebebe8;stroke-width:6.25px;"/><text x="720.096px" y="810.067px" style="font-family:'HelveticaNeue-Bold', 'Helvetica Neue';font-weight:700;font-size:53.637px;fill:#ebebe8;">N<tspan x="759.207px 788.552px 810.034px 839.38px " y="810.067px 810.067px 810.067px 810.067px ">Y-01</tspan></text><text x="744.024px" y="931.128px" style="font-family:'HelveticaNeue-Bold', 'Helvetica Neue';font-weight:700;font-size:53.637px;fill:#ebebe8;">+<tspan x="775.692px 805.038px " y="931.128px 931.128px ">23</tspan></text><rect x="478.126" y="508.234" width="163.213" height="159.901" style="fill:#9c1515;"/><rect x="478.126" y="505.821" width="163.213" height="163.213" style="fill:none;stroke:#ebebe8;stroke-width:6.25px;"/><text x="504.111px" y="605.596px" style="font-family:'HelveticaNeue-Bold', 'Helvetica Neue';font-weight:700;font-size:53.637px;fill:#ebebe8;">+<tspan x="535.779px 565.125px 579.798px " y="605.596px 605.596px 605.596px ">1.1</tspan></text><rect x="931.141" y="513.218" width="163.213" height="155.833" style="fill:#9c1515;"/><rect x="931.141" y="505.838" width="163.213" height="163.213" style="fill:none;stroke:#ebebe8;stroke-width:6.25px;"/><rect x="707.854" y="513.031" width="163.213" height="155.104" style="fill:#9c1515;"/><rect x="707.854" y="505.821" width="163.213" height="163.213" style="fill:none;stroke:#ebebe8;stroke-width:6.25px;"/><rect x="478.126" y="825.086" width="163.213" height="155.833" style="fill:#9c1515;"/><rect x="478.126" y="817.707" width="163.213" height="163.213" style="fill:none;stroke:#ebebe8;stroke-width:6.25px;"/><text x="484.143px" y="807.405px" style="font-family:'HelveticaNeue-Bold', 'Helvetica Neue';font-weight:700;font-size:53.637px;fill:#ebebe8;">N<tspan x="523.253px 552.599px 574.081px 603.426px " y="807.405px 807.405px 807.405px 807.405px ">Y-22</tspan></text><text x="492.801px" y="925.185px" style="font-family:'HelveticaNeue-Bold', 'Helvetica Neue';font-weight:700;font-size:53.637px;fill:#ebebe8;">+<tspan x="524.469px 553.815px 568.488px 597.833px " y="925.185px 925.185px 925.185px 925.185px ">0.09</tspan></text><rect x="931.141" y="819.628" width="163.213" height="163.213" style="fill:#dcdcdc;"/><rect x="931.141" y="819.628" width="163.213" height="163.213" style="fill:none;stroke:#ebebe8;stroke-width:6.25px;"/><text x="937.556px" y="810.067px" style="font-family:'HelveticaNeue-Bold', 'Helvetica Neue';font-weight:700;font-size:53.637px;fill:#ebebe8;">L<tspan x="968.855px 1005.01px 1026.49px 1055.84px " y="810.067px 810.067px 810.067px 810.067px ">A-05</tspan></text><text x="486.277px" y="492.028px" style="font-family:'HelveticaNeue-Bold', 'Helvetica Neue';font-weight:700;font-size:53.637px;fill:#ebebe8;">C<tspan x="525.388px 561.542px 583.024px 612.37px " y="492.028px 492.028px 492.028px 492.028px ">A-21</tspan></text><text x="712.171px" y="492.028px" style="font-family:'HelveticaNeue-Bold', 'Helvetica Neue';font-weight:700;font-size:53.637px;fill:#ebebe8;">C<tspan x="751.281px 787.436px 808.917px 838.263px " y="492.028px 492.028px 492.028px 492.028px ">A-25</tspan></text><text x="953.066px" y="494.839px" style="font-family:'HelveticaNeue-Bold', 'Helvetica Neue';font-weight:700;font-size:53.637px;fill:#ebebe8;">I<tspan x="968.636px 1004.79px 1026.27px 1055.62px " y="494.839px 494.839px 494.839px 494.839px ">A-02</tspan></text><text x="725.681px" y="605.596px" style="font-family:'HelveticaNeue-Bold', 'Helvetica Neue';font-weight:700;font-size:53.637px;fill:#ebebe8;">+<tspan x="757.349px 786.695px 801.368px 830.714px " y="605.596px 605.596px 605.596px 605.596px ">0.12</tspan></text><text x="948.327px" y="613.344px" style="font-family:'HelveticaNeue-Bold', 'Helvetica Neue';font-weight:700;font-size:53.637px;fill:#ebebe8;">&lt;<tspan x="979.995px 1009.34px 1024.01px 1053.36px " y="613.344px 613.344px 613.344px 613.344px ">0.01</tspan></text><g transform="matrix(3.35229,0,0,3.35229,-1961.28,-3447.21)"><g transform="matrix(0.984035,0,0,1,13.4422,0)"><text x="841.996px" y="1406.41px" style="font-family:'HelveticaNeue', 'Helvetica Neue';font-size:14px;fill:#ebebe8;">LA-05 will go to</text></g><g transform="matrix(0.984035,0,0,1,13.4947,0)"><text x="845.281px" y="1420.8px" style="font-family:'HelveticaNeue', 'Helvetica Neue';font-size:14px;fill:#ebebe8;">a run-oﬀ as no</text></g><g transform="matrix(0.984035,0,0,1,13.3626,0)"><text x="837.009px" y="1435.19px" style="font-family:'HelveticaNeue', 'Helvetica Neue';font-size:14px;fill:#ebebe8;">candidate gained</text></g><g transform="matrix(0.984035,0,0,1,13.4257,0)"><text x="840.962px" y="1449.59px" style="font-family:'HelveticaNeue', 'Helvetica Neue';font-size:14px;fill:#ebebe8;">50% of the vote</text></g></g><path d="M990.551,1060.13l25,-25l25,25" style="fill:none;stroke:#ebebe8;stroke-width:8.33px;stroke-linejoin:miter;stroke-miterlimit:10;"/><path d="M1015.55,1190.34l-0,-155.211" style="fill:none;stroke:#ebebe8;stroke-width:8.33px;"/></g></svg>