<?xml version="1.0" encoding="UTF-8" standalone="no"?><!DOCTYPE svg PUBLIC "-//W3C//DTD SVG 1.1//EN" "http://www.w3.org/Graphics/SVG/1.1/DTD/svg11.dtd"><svg width="100%" height="100%" viewBox="0 0 400 931" version="1.1" xmlns="http://www.w3.org/2000/svg" xmlns:xlink="http://www.w3.org/1999/xlink" xml:space="preserve" xmlns:serif="http://www.serif.com/" style="fill-rule:evenodd;clip-rule:evenodd;stroke-linecap:round;stroke-linejoin:round;stroke-miterlimit:1.5;"><rect id="Artboard1" x="0" y="0" width="400" height="930.286" style="fill:none;"/><clipPath id="_clip1"><rect x="0" y="0" width="400" height="930.286"/></clipPath><g clip-path="url(#_clip1)"><rect x="-14.577" y="-11.386" width="453.985" height="1275.48" style="fill:#1f3138;"/><text x="73.016px" y="22.772px" style="font-family:'HelveticaNeue-Bold', 'Helvetica Neue';font-weight:700;font-size:16px;fill:#ebebe8;">Not speciﬁed/Up to local oﬃcials</text><text x="161.928px" y="168.272px" style="font-family:'HelveticaNeue-Bold', 'Helvetica Neue';font-weight:700;font-size:16px;fill:#ebebe8;">2 weeks +</text><text x="172.416px" y="313.859px" style="font-family:'HelveticaNeue-Bold', 'Helvetica Neue';font-weight:700;font-size:16px;fill:#ebebe8;">1 week</text><text x="158.193px" y="406.631px" style="font-family:'HelveticaNeue-Bold', 'Helvetica Neue';font-weight:700;font-size:16px;fill:#ebebe8;">Day befor<tspan x="231.985px " y="406.631px ">e</tspan></text><text x="152.6px" y="502.307px" style="font-family:'HelveticaNeue-Bold', 'Helvetica Neue';font-weight:700;font-size:16px;fill:#ebebe8;">Election day</text><text x="157.304px" y="822.915px" style="font-family:'HelveticaNeue-Bold', 'Helvetica Neue';font-weight:700;font-size:16px;fill:#ebebe8;">1 week after</text><g><g><circle cx="143.257" cy="55.049" r="22.808" style="fill:#787878;stroke:#ebebe8;stroke-width:1px;"/><circle cx="143.257" cy="106.754" r="22.808" style="fill:#787878;stroke:#ebebe8;stroke-width:1px;"/><circle cx="203.467" cy="54.656" r="22.808" style="fill:#787878;stroke:#ebebe8;stroke-width:1px;"/><circle cx="203.467" cy="106.361" r="22.808" style="fill:#787878;stroke:#ebebe8;stroke-width:1px;"/><circle cx="262.423" cy="54.582" r="22.808" style="fill:#787878;stroke:#ebebe8;stroke-width:1px;"/><circle cx="262.423" cy="106.287" r="22.808" style="fill:#787878;stroke:#ebebe8;stroke-width:1px;"/><text x="131.309px" y="61.834px" style="font-family:'HelveticaNeue-Bold', 'Helvetica Neue';font-weight:700;font-size:17.72px;fill:#ebebe8;">KS</text><text x="130.857px" y="113.23px" style="font-family:'HelveticaNeue-Bold', 'Helvetica Neue';font-weight:700;font-size:17.72px;fill:#ebebe8;">KY</text><text x="192.069px" y="60.751px" style="font-family:'HelveticaNeue-Bold', 'Helvetica Neue';font-weight:700;font-size:17.72px;fill:#ebebe8;">LA</text><text x="190.881px" y="113.395px" style="font-family:'HelveticaNeue-Bold', 'Helvetica Neue';font-weight:700;font-size:17.72px;fill:#ebebe8;">OH</text><text x="249.341px" y="61.194px" style="font-family:'HelveticaNeue-Bold', 'Helvetica Neue';font-weight:700;font-size:17.72px;fill:#ebebe8;">OK</text><text x="250.573px" y="113.687px" style="font-family:'HelveticaNeue-Bold', 'Helvetica Neue';font-weight:700;font-size:17.72px;fill:#ebebe8;">UT</text></g><g><circle cx="202.242" cy="249.749" r="22.808" style="fill:#625770;stroke:#ebebe8;stroke-width:1px;"/><circle cx="263.471" cy="249.76" r="22.808" style="fill:#625770;stroke:#ebebe8;stroke-width:1px;"/><circle cx="141.237" cy="250.254" r="22.808" style="fill:#625770;stroke:#ebebe8;stroke-width:1px;"/><circle cx="113.439" cy="202.368" r="22.808" style="fill:#625770;stroke:#ebebe8;stroke-width:1px;"/><circle cx="173.499" cy="202.487" r="22.808" style="fill:#625770;stroke:#ebebe8;stroke-width:1px;"/><circle cx="233.402" cy="201.876" r="22.808" style="fill:#625770;stroke:#ebebe8;stroke-width:1px;"/><circle cx="293.483" cy="201.359" r="22.808" style="fill:#625770;stroke:#ebebe8;stroke-width:1px;"/><text x="101.175px" y="209.152px" style="font-family:'HelveticaNeue-Bold', 'Helvetica Neue';font-weight:700;font-size:17.72px;fill:#ebebe8;">AZ</text><text x="160.119px" y="208.963px" style="font-family:'HelveticaNeue-Bold', 'Helvetica Neue';font-weight:700;font-size:17.72px;fill:#ebebe8;">CA</text><text x="219.215px" y="207.971px" style="font-family:'HelveticaNeue-Bold', 'Helvetica Neue';font-weight:700;font-size:17.72px;fill:#ebebe8;">CO</text><text x="283.195px" y="208.393px" style="font-family:'HelveticaNeue-Bold', 'Helvetica Neue';font-weight:700;font-size:17.72px;fill:#ebebe8;">FL</text><text x="126.191px" y="256.867px" style="font-family:'HelveticaNeue-Bold', 'Helvetica Neue';font-weight:700;font-size:17.72px;fill:#ebebe8;">MD</text><text x="189.57px" y="257.149px" style="font-family:'HelveticaNeue-Bold', 'Helvetica Neue';font-weight:700;font-size:17.72px;fill:#ebebe8;">NV</text><text x="249.816px" y="256.763px" style="font-family:'HelveticaNeue-Bold', 'Helvetica Neue';font-weight:700;font-size:17.72px;fill:#ebebe8;">NC</text></g><g><path d="M87.535,344.468c0,-12.588 10.22,-22.807 22.808,-22.807c12.588,-0 22.808,10.219 22.808,22.807c-0,12.588 -10.22,22.808 -22.808,22.808c-12.588,0 -22.808,-10.22 -22.808,-22.808Z" style="fill:#625770;stroke:#ebebe8;stroke-width:1px;"/><path d="M149.462,344.468c0,-12.588 10.22,-22.807 22.808,-22.807c12.588,-0 22.808,10.219 22.808,22.807c0,12.588 -10.22,22.808 -22.808,22.808c-12.588,0 -22.808,-10.22 -22.808,-22.808Z" style="fill:#625770;stroke:#ebebe8;stroke-width:1px;"/><path d="M211.39,344.468c-0,-12.588 10.22,-22.807 22.808,-22.807c12.588,-0 22.807,10.219 22.807,22.807c0,12.588 -10.219,22.808 -22.807,22.808c-12.588,0 -22.808,-10.22 -22.808,-22.808Z" style="fill:#625770;stroke:#ebebe8;stroke-width:1px;"/><path d="M273.317,344.468c-0,-12.588 10.22,-22.807 22.808,-22.807c12.588,-0 22.808,10.219 22.808,22.807c-0,12.588 -10.22,22.808 -22.808,22.808c-12.588,0 -22.808,-10.22 -22.808,-22.808Z" style="fill:#625770;stroke:#ebebe8;stroke-width:1px;"/><text x="98.211px" y="349.864px" style="font-family:'HelveticaNeue-Bold', 'Helvetica Neue';font-weight:700;font-size:17.72px;fill:#ebebe8;">DE</text><text x="163.241px" y="350.44px" style="font-family:'HelveticaNeue-Bold', 'Helvetica Neue';font-weight:700;font-size:17.72px;fill:#ebebe8;">HI</text><text x="222.616px" y="350.28px" style="font-family:'HelveticaNeue-Bold', 'Helvetica Neue';font-weight:700;font-size:17.72px;fill:#ebebe8;">NJ</text><text x="281.892px" y="350.303px" style="font-family:'HelveticaNeue-Bold', 'Helvetica Neue';font-weight:700;font-size:17.72px;fill:#ebebe8;">OR</text></g><g><path d="M115.292,437.809c-0,-12.588 10.22,-22.808 22.808,-22.808c12.588,-0 22.808,10.22 22.808,22.808c-0,12.588 -10.22,22.808 -22.808,22.808c-12.588,-0 -22.808,-10.22 -22.808,-22.808Z" style="fill:#625770;stroke:#ebebe8;stroke-width:1px;"/><path d="M177.219,437.809c0,-12.588 10.22,-22.808 22.808,-22.808c12.588,-0 22.808,10.22 22.808,22.808c-0,12.588 -10.22,22.808 -22.808,22.808c-12.588,-0 -22.808,-10.22 -22.808,-22.808Z" style="fill:#625770;stroke:#ebebe8;stroke-width:1px;"/><path d="M239.146,437.809c0,-12.588 10.22,-22.808 22.808,-22.808c12.588,-0 22.808,10.22 22.808,22.808c-0,12.588 -10.22,22.808 -22.808,22.808c-12.588,-0 -22.808,-10.22 -22.808,-22.808Z" style="fill:#625770;stroke:#ebebe8;stroke-width:1px;"/><text x="128.537px" y="443.195px" style="font-family:'HelveticaNeue-Bold', 'Helvetica Neue';font-weight:700;font-size:17.72px;fill:#ebebe8;">IA</text><text x="185.566px" y="443.665px" style="font-family:'HelveticaNeue-Bold', 'Helvetica Neue';font-weight:700;font-size:17.72px;fill:#ebebe8;">MT</text><text x="248.468px" y="443.859px" style="font-family:'HelveticaNeue-Bold', 'Helvetica Neue';font-weight:700;font-size:17.72px;fill:#ebebe8;">NE</text></g><g><path d="M40.693,703.218c-0,-12.588 10.22,-22.807 22.808,-22.807c12.588,-0 22.808,10.219 22.808,22.807c-0,12.588 -10.22,22.808 -22.808,22.808c-12.588,0 -22.808,-10.22 -22.808,-22.808Z" style="fill:#583684;stroke:#ebebe8;stroke-width:1px;"/><path d="M8.992,647.638c0,-12.588 10.22,-22.808 22.808,-22.808c12.588,0 22.808,10.22 22.808,22.808c-0,12.588 -10.22,22.808 -22.808,22.808c-12.588,-0 -22.808,-10.22 -22.808,-22.808Z" style="fill:#583684;stroke:#ebebe8;stroke-width:1px;"/><path d="M101.633,703.218c-0,-12.588 10.22,-22.807 22.808,-22.807c12.588,-0 22.808,10.219 22.808,22.807c-0,12.588 -10.22,22.808 -22.808,22.808c-12.588,0 -22.808,-10.22 -22.808,-22.808Z" style="fill:#583684;stroke:#ebebe8;stroke-width:1px;"/><path d="M70.919,647.638c0,-12.588 10.22,-22.808 22.808,-22.808c12.588,0 22.808,10.22 22.808,22.808c0,12.588 -10.22,22.808 -22.808,22.808c-12.588,-0 -22.808,-10.22 -22.808,-22.808Z" style="fill:#583684;stroke:#ebebe8;stroke-width:1px;"/><path d="M8.992,760.083c0,-12.588 10.22,-22.808 22.808,-22.808c12.588,-0 22.808,10.22 22.808,22.808c-0,12.588 -10.22,22.808 -22.808,22.808c-12.588,-0 -22.808,-10.22 -22.808,-22.808Z" style="fill:#583684;stroke:#ebebe8;stroke-width:1px;"/><path d="M256.701,647.638c0,-12.588 10.22,-22.808 22.808,-22.808c12.588,0 22.808,10.22 22.808,22.808c-0,12.588 -10.22,22.808 -22.808,22.808c-12.588,-0 -22.808,-10.22 -22.808,-22.808Z" style="fill:#583684;stroke:#ebebe8;stroke-width:1px;"/><path d="M70.919,760.083c0,-12.588 10.22,-22.808 22.808,-22.808c12.588,-0 22.808,10.22 22.808,22.808c0,12.588 -10.22,22.808 -22.808,22.808c-12.588,-0 -22.808,-10.22 -22.808,-22.808Z" style="fill:#583684;stroke:#ebebe8;stroke-width:1px;"/><path d="M132.847,760.083c-0,-12.588 10.22,-22.808 22.808,-22.808c12.588,-0 22.807,10.22 22.807,22.808c0,12.588 -10.219,22.808 -22.807,22.808c-12.588,-0 -22.808,-10.22 -22.808,-22.808Z" style="fill:#583684;stroke:#ebebe8;stroke-width:1px;"/><path d="M194.774,760.083c-0,-12.588 10.22,-22.808 22.808,-22.808c12.588,-0 22.808,10.22 22.808,22.808c-0,12.588 -10.22,22.808 -22.808,22.808c-12.588,-0 -22.808,-10.22 -22.808,-22.808Z" style="fill:#583684;stroke:#ebebe8;stroke-width:1px;"/><path d="M256.701,760.083c0,-12.588 10.22,-22.808 22.808,-22.808c12.588,-0 22.808,10.22 22.808,22.808c-0,12.588 -10.22,22.808 -22.808,22.808c-12.588,-0 -22.808,-10.22 -22.808,-22.808Z" style="fill:#583684;stroke:#ebebe8;stroke-width:1px;"/><path d="M318.628,647.638c0,-12.588 10.22,-22.808 22.808,-22.808c12.588,0 22.808,10.22 22.808,22.808c0,12.588 -10.22,22.808 -22.808,22.808c-12.588,-0 -22.808,-10.22 -22.808,-22.808Z" style="fill:#583684;stroke:#ebebe8;stroke-width:1px;"/><path d="M162.573,703.218c-0,-12.588 10.219,-22.807 22.807,-22.807c12.588,-0 22.808,10.219 22.808,22.807c0,12.588 -10.22,22.808 -22.808,22.808c-12.588,0 -22.807,-10.22 -22.807,-22.808Z" style="fill:#583684;stroke:#ebebe8;stroke-width:1px;"/><path d="M132.847,647.638c-0,-12.588 10.22,-22.808 22.808,-22.808c12.588,0 22.807,10.22 22.807,22.808c0,12.588 -10.219,22.808 -22.807,22.808c-12.588,-0 -22.808,-10.22 -22.808,-22.808Z" style="fill:#583684;stroke:#ebebe8;stroke-width:1px;"/><path d="M8.992,531.709c0,-12.588 10.22,-22.808 22.808,-22.808c12.588,0 22.808,10.22 22.808,22.808c-0,12.588 -10.22,22.808 -22.808,22.808c-12.588,0 -22.808,-10.22 -22.808,-22.808Z" style="fill:#583684;stroke:#ebebe8;stroke-width:1px;"/><path d="M70.919,531.709c0,-12.588 10.22,-22.808 22.808,-22.808c12.588,0 22.808,10.22 22.808,22.808c0,12.588 -10.22,22.808 -22.808,22.808c-12.588,0 -22.808,-10.22 -22.808,-22.808Z" style="fill:#583684;stroke:#ebebe8;stroke-width:1px;"/><path d="M132.847,531.709c-0,-12.588 10.22,-22.808 22.808,-22.808c12.588,0 22.807,10.22 22.807,22.808c0,12.588 -10.219,22.808 -22.807,22.808c-12.588,0 -22.808,-10.22 -22.808,-22.808Z" style="fill:#583684;stroke:#ebebe8;stroke-width:1px;"/><path d="M223.512,703.218c0,-12.588 10.22,-22.807 22.808,-22.807c12.588,-0 22.808,10.219 22.808,22.807c0,12.588 -10.22,22.808 -22.808,22.808c-12.588,0 -22.808,-10.22 -22.808,-22.808Z" style="fill:#583684;stroke:#ebebe8;stroke-width:1px;"/><path d="M284.452,703.218c0,-12.588 10.22,-22.807 22.808,-22.807c12.588,-0 22.808,10.219 22.808,22.807c-0,12.588 -10.22,22.808 -22.808,22.808c-12.588,0 -22.808,-10.22 -22.808,-22.808Z" style="fill:#583684;stroke:#ebebe8;stroke-width:1px;"/><path d="M345.392,703.218c0,-12.588 10.22,-22.807 22.808,-22.807c12.588,-0 22.808,10.219 22.808,22.807c-0,12.588 -10.22,22.808 -22.808,22.808c-12.588,0 -22.808,-10.22 -22.808,-22.808Z" style="fill:#583684;stroke:#ebebe8;stroke-width:1px;"/><path d="M318.628,760.083c0,-12.588 10.22,-22.808 22.808,-22.808c12.588,-0 22.808,10.22 22.808,22.808c0,12.588 -10.22,22.808 -22.808,22.808c-12.588,-0 -22.808,-10.22 -22.808,-22.808Z" style="fill:#583684;stroke:#ebebe8;stroke-width:1px;"/><path d="M194.774,647.638c-0,-12.588 10.22,-22.808 22.808,-22.808c12.588,0 22.808,10.22 22.808,22.808c-0,12.588 -10.22,22.808 -22.808,22.808c-12.588,-0 -22.808,-10.22 -22.808,-22.808Z" style="fill:#583684;stroke:#ebebe8;stroke-width:1px;"/><path d="M101.633,587.895c-0,-12.588 10.22,-22.808 22.808,-22.808c12.588,-0 22.808,10.22 22.808,22.808c-0,12.588 -10.22,22.808 -22.808,22.808c-12.588,-0 -22.808,-10.22 -22.808,-22.808Z" style="fill:#583684;stroke:#ebebe8;stroke-width:1px;"/><path d="M162.573,588.226c-0,-12.588 10.219,-22.808 22.807,-22.808c12.588,-0 22.808,10.22 22.808,22.808c0,12.588 -10.22,22.807 -22.808,22.807c-12.588,0 -22.807,-10.219 -22.807,-22.807Z" style="fill:#583684;stroke:#ebebe8;stroke-width:1px;"/><path d="M40.693,588.226c-0,-12.588 10.22,-22.808 22.808,-22.808c12.588,-0 22.808,10.22 22.808,22.808c-0,12.588 -10.22,22.807 -22.808,22.807c-12.588,0 -22.808,-10.219 -22.808,-22.807Z" style="fill:#583684;stroke:#ebebe8;stroke-width:1px;"/><path d="M345.392,587.873c0,-12.588 10.22,-22.808 22.808,-22.808c12.588,-0 22.808,10.22 22.808,22.808c-0,12.588 -10.22,22.808 -22.808,22.808c-12.588,-0 -22.808,-10.22 -22.808,-22.808Z" style="fill:#583684;stroke:#ebebe8;stroke-width:1px;"/><text x="55.117px" y="593.452px" style="font-family:'HelveticaNeue-Bold', 'Helvetica Neue';font-weight:700;font-size:17.72px;fill:#ebebe8;">IL</text><g><text x="114.786px" y="711.062px" style="font-family:'HelveticaNeue-Bold', 'Helvetica Neue';font-weight:700;font-size:17.72px;fill:#ebebe8;">RI</text><text x="50.314px" y="709.801px" style="font-family:'HelveticaNeue-Bold', 'Helvetica Neue';font-weight:700;font-size:17.72px;fill:#ebebe8;">P<tspan x="60.822px " y="709.801px ">A</tspan></text><text x="174.655px" y="710.484px" style="font-family:'HelveticaNeue-Bold', 'Helvetica Neue';font-weight:700;font-size:17.72px;fill:#ebebe8;">SC</text><text x="236.219px" y="709.664px" style="font-family:'HelveticaNeue-Bold', 'Helvetica Neue';font-weight:700;font-size:17.72px;fill:#ebebe8;">SD</text><text x="297.487px" y="710.702px" style="font-family:'HelveticaNeue-Bold', 'Helvetica Neue';font-weight:700;font-size:17.72px;fill:#ebebe8;">TN</text><text x="354.231px" y="709.309px" style="font-family:'HelveticaNeue-Bold', 'Helvetica Neue';font-weight:700;font-size:17.72px;fill:#ebebe8;">TX*</text></g><path d="M223.512,587.391c0,-12.588 10.22,-22.808 22.808,-22.808c12.588,0 22.808,10.22 22.808,22.808c0,12.588 -10.22,22.808 -22.808,22.808c-12.588,-0 -22.808,-10.22 -22.808,-22.808Z" style="fill:#583684;stroke:#ebebe8;stroke-width:1px;"/><path d="M284.452,587.722c0,-12.588 10.22,-22.808 22.808,-22.808c12.588,0 22.808,10.22 22.808,22.808c-0,12.588 -10.22,22.808 -22.808,22.808c-12.588,-0 -22.808,-10.22 -22.808,-22.808Z" style="fill:#583684;stroke:#ebebe8;stroke-width:1px;"/><text x="17.318px" y="652.865px" style="font-family:'HelveticaNeue-Bold', 'Helvetica Neue';font-weight:700;font-size:17.72px;fill:#ebebe8;">MS</text><text x="78.278px" y="652.431px" style="font-family:'HelveticaNeue-Bold', 'Helvetica Neue';font-weight:700;font-size:17.72px;fill:#ebebe8;">MO</text><text x="142.727px" y="653.499px" style="font-family:'HelveticaNeue-Bold', 'Helvetica Neue';font-weight:700;font-size:17.72px;fill:#ebebe8;">NH</text><text x="201.662px" y="652.551px" style="font-family:'HelveticaNeue-Bold', 'Helvetica Neue';font-weight:700;font-size:17.72px;fill:#ebebe8;">NM</text><text x="266.243px" y="652.524px" style="font-family:'HelveticaNeue-Bold', 'Helvetica Neue';font-weight:700;font-size:17.72px;fill:#ebebe8;">NY</text><path d="M196.646,532.522c-0,-12.588 10.219,-22.808 22.807,-22.808c12.588,0 22.808,10.22 22.808,22.808c0,12.588 -10.22,22.808 -22.808,22.808c-12.588,0 -22.807,-10.22 -22.807,-22.808Z" style="fill:#583684;stroke:#ebebe8;stroke-width:1px;"/><path d="M258.573,532.522c-0,-12.588 10.22,-22.808 22.808,-22.808c12.588,0 22.808,10.22 22.808,22.808c-0,12.588 -10.22,22.808 -22.808,22.808c-12.588,0 -22.808,-10.22 -22.808,-22.808Z" style="fill:#583684;stroke:#ebebe8;stroke-width:1px;"/><path d="M320.5,532.522c0,-12.588 10.22,-22.808 22.808,-22.808c12.588,0 22.808,10.22 22.808,22.808c-0,12.588 -10.22,22.808 -22.808,22.808c-12.588,0 -22.808,-10.22 -22.808,-22.808Z" style="fill:#583684;stroke:#ebebe8;stroke-width:1px;"/><g><text x="141.079px" y="767.249px" style="font-family:'HelveticaNeue-Bold', 'Helvetica Neue';font-weight:700;font-size:17.72px;fill:#ebebe8;">W<tspan x="157.381px " y="767.249px ">A</tspan></text><text x="202.891px" y="767.222px" style="font-family:'HelveticaNeue-Bold', 'Helvetica Neue';font-weight:700;font-size:17.72px;fill:#ebebe8;">WV</text><text x="268.587px" y="767.777px" style="font-family:'HelveticaNeue-Bold', 'Helvetica Neue';font-weight:700;font-size:17.72px;fill:#ebebe8;">WI</text><text x="326.926px" y="766.93px" style="font-family:'HelveticaNeue-Bold', 'Helvetica Neue';font-weight:700;font-size:17.72px;fill:#ebebe8;">WY</text><text x="82.194px" y="766.96px" style="font-family:'HelveticaNeue-Bold', 'Helvetica Neue';font-weight:700;font-size:17.72px;fill:#ebebe8;">V<tspan x="92.542px " y="766.96px ">A</tspan></text><text x="20.699px" y="766.528px" style="font-family:'HelveticaNeue-Bold', 'Helvetica Neue';font-weight:700;font-size:17.72px;fill:#ebebe8;">VT</text></g><text x="327.097px" y="653.038px" style="font-family:'HelveticaNeue-Bold', 'Helvetica Neue';font-weight:700;font-size:17.72px;fill:#ebebe8;">ND</text><text x="115.666px" y="594.605px" style="font-family:'HelveticaNeue-Bold', 'Helvetica Neue';font-weight:700;font-size:17.72px;fill:#ebebe8;">IN</text><text x="171.511px" y="594.303px" style="font-family:'HelveticaNeue-Bold', 'Helvetica Neue';font-weight:700;font-size:17.72px;fill:#ebebe8;">ME</text><text x="232.182px" y="592.965px" style="font-family:'HelveticaNeue-Bold', 'Helvetica Neue';font-weight:700;font-size:17.72px;fill:#ebebe8;">MA</text><text x="297.242px" y="594.303px" style="font-family:'HelveticaNeue-Bold', 'Helvetica Neue';font-weight:700;font-size:17.72px;fill:#ebebe8;">MI</text><text x="352.889px" y="594.465px" style="font-family:'HelveticaNeue-Bold', 'Helvetica Neue';font-weight:700;font-size:17.72px;fill:#ebebe8;">MN</text><text x="20.336px" y="538.659px" style="font-family:'HelveticaNeue-Bold', 'Helvetica Neue';font-weight:700;font-size:17.72px;fill:#ebebe8;">AL</text><text x="81.8px" y="539.12px" style="font-family:'HelveticaNeue-Bold', 'Helvetica Neue';font-weight:700;font-size:17.72px;fill:#ebebe8;">AR</text><text x="143.214px" y="539.32px" style="font-family:'HelveticaNeue-Bold', 'Helvetica Neue';font-weight:700;font-size:17.72px;fill:#ebebe8;">CT</text><text x="204.875px" y="538.318px" style="font-family:'HelveticaNeue-Bold', 'Helvetica Neue';font-weight:700;font-size:17.72px;fill:#ebebe8;">DC</text><text x="265.773px" y="538.859px" style="font-family:'HelveticaNeue-Bold', 'Helvetica Neue';font-weight:700;font-size:17.72px;fill:#ebebe8;">GA</text><text x="333.074px" y="539.071px" style="font-family:'HelveticaNeue-Bold', 'Helvetica Neue';font-weight:700;font-size:17.72px;fill:#ebebe8;">ID</text></g><g><circle cx="200.905" cy="854.499" r="22.808" style="fill:#30006f;stroke:#ebebe8;stroke-width:1px;"/><text x="188.608px" y="859.663px" style="font-family:'HelveticaNeue-Bold', 'Helvetica Neue';font-weight:700;font-size:17.72px;fill:#ebebe8;">AK</text></g></g><path d="M6.69,136.993l385.892,0" style="fill:none;stroke:#ebebe8;stroke-width:1.5px;"/><path d="M6.69,281.978l385.892,-0" style="fill:none;stroke:#ebebe8;stroke-width:1.5px;"/><path d="M6.69,374.705l385.892,0" style="fill:none;stroke:#ebebe8;stroke-width:1.5px;"/><path d="M7.506,470.517l385.892,-0" style="fill:none;stroke:#ebebe8;stroke-width:1.5px;"/><path d="M7.506,791.121l385.892,-0" style="fill:none;stroke:#ebebe8;stroke-width:1.5px;"/><g transform="matrix(0.900197,0,0,0.900197,140.075,853.658)"><text x="-150.945px" y="62.331px" style="font-family:'HelveticaNeue', 'Helvetica Neue';font-size:17.774px;fill:#ebebe8;">*Counties in T<tspan x="-41.974px -32.429px " y="62.331px 62.331px ">ex</tspan>as with populations of &gt;100,000 can</text><text x="-150.945px" y="80.602px" style="font-family:'HelveticaNeue', 'Helvetica Neue';font-size:17.774px;fill:#ebebe8;">start counting befor<tspan x="4.772px 14.316px " y="80.602px 80.602px ">e </tspan>election day<tspan x="114.063px " y="80.602px ">.</tspan></text></g></g></svg>