<?xml version="1.0" encoding="UTF-8" standalone="no"?><!DOCTYPE svg PUBLIC "-//W3C//DTD SVG 1.1//EN" "http://www.w3.org/Graphics/SVG/1.1/DTD/svg11.dtd"><svg width="100%" height="100%" viewBox="0 0 5000 3334" version="1.1" xmlns="http://www.w3.org/2000/svg" xmlns:xlink="http://www.w3.org/1999/xlink" xml:space="preserve" xmlns:serif="http://www.serif.com/" style="fill-rule:evenodd;clip-rule:evenodd;stroke-linecap:round;stroke-linejoin:round;stroke-miterlimit:1.5;"><rect id="Artboard2" x="0" y="-0" width="5000" height="3333.33" style="fill:none;"/><clipPath id="_clip1"><rect x="0" y="-0" width="5000" height="3333.33"/></clipPath><g clip-path="url(#_clip1)"><rect x="-97.487" y="-153.667" width="5216.41" height="3649.51" style="fill:#1f3138;"/><g><rect x="607.978" y="68.839" width="2379.71" height="1799.08" style="fill:#1f3138;fill-opacity:0.5;"/><rect x="804.209" y="405.179" width="240.753" height="240.793" style="fill:#124683;fill-opacity:0.5;"/><rect x="804.209" y="693.593" width="240.753" height="240.793" style="fill:#124683;fill-opacity:0.5;"/><rect x="804.209" y="982.007" width="240.753" height="240.793" style="fill:#124683;fill-opacity:0.5;"/><rect x="804.209" y="1270.42" width="240.753" height="240.793" style="fill:#124683;fill-opacity:0.5;"/><rect x="804.209" y="1558.84" width="240.753" height="240.793" style="fill:#124683;fill-opacity:0.5;"/><rect x="555.595" y="405.179" width="114.231" height="240.793" style="fill:url(#_Linear2);"/><rect x="555.595" y="693.593" width="114.231" height="240.793" style="fill:url(#_Linear3);"/><rect x="555.595" y="982.007" width="114.231" height="240.793" style="fill:url(#_Linear4);"/><rect x="555.595" y="1270.42" width="114.231" height="240.793" style="fill:url(#_Linear5);"/><rect x="555.595" y="1558.84" width="114.231" height="240.793" style="fill:url(#_Linear6);"/><rect x="1093.53" y="405.179" width="240.753" height="240.793" style="fill:#124683;fill-opacity:0.5;"/><rect x="1093.53" y="693.593" width="240.753" height="240.793" style="fill:#124683;fill-opacity:0.5;"/><rect x="1093.53" y="982.007" width="240.753" height="240.793" style="fill:#124683;fill-opacity:0.5;"/><rect x="1093.53" y="1270.42" width="240.753" height="240.793" style="fill:#124683;fill-opacity:0.5;"/><rect x="1093.53" y="1558.84" width="240.753" height="240.793" style="fill:#124683;fill-opacity:0.5;"/><rect x="1377.61" y="405.179" width="240.753" height="240.793" style="fill:#8ebdf3;fill-opacity:0.5;"/><rect x="1377.61" y="693.593" width="240.753" height="240.793" style="fill:#8ebdf3;fill-opacity:0.5;"/><rect x="1377.61" y="982.007" width="240.753" height="240.793" style="fill:#8ebdf3;fill-opacity:0.5;"/><rect x="1377.61" y="1270.42" width="240.753" height="240.793" style="fill:#dcdcdc;"/><rect x="1377.61" y="1558.84" width="240.753" height="240.793" style="fill:#dcdcdc;"/><rect x="1666.93" y="405.179" width="240.753" height="240.793" style="fill:#dcdcdc;"/><rect x="1666.93" y="693.593" width="240.753" height="240.793" style="fill:#dcdcdc;"/><rect x="1666.93" y="982.007" width="240.753" height="240.793" style="fill:#dcdcdc;"/><rect x="1666.93" y="1270.42" width="240.753" height="240.793" style="fill:#dcdcdc;"/><rect x="1666.93" y="1558.84" width="240.753" height="240.793" style="fill:#dcdcdc;"/><rect x="1951.98" y="405.179" width="240.753" height="240.793" style="fill:#e79090;fill-opacity:0.5;"/><rect x="1951.98" y="693.593" width="240.753" height="240.793" style="fill:#e79090;fill-opacity:0.5;"/><rect x="1951.98" y="982.007" width="240.753" height="240.793" style="fill:#e79090;fill-opacity:0.5;"/><rect x="1951.98" y="1270.42" width="240.753" height="240.793" style="fill:#e79090;fill-opacity:0.5;"/><rect x="1951.98" y="1558.84" width="240.753" height="240.793" style="fill:#c74343;fill-opacity:0.5;"/><rect x="2236.05" y="405.179" width="240.753" height="240.793" style="fill:#c74343;fill-opacity:0.5;"/><rect x="2236.05" y="693.593" width="240.753" height="240.793" style="fill:#9c1515;fill-opacity:0.5;"/><rect x="2236.05" y="982.007" width="240.753" height="240.793" style="fill:#9c1515;fill-opacity:0.5;"/><rect x="2236.05" y="1270.42" width="240.753" height="240.793" style="fill:#9c1515;fill-opacity:0.5;"/><rect x="2236.05" y="1558.84" width="240.753" height="240.793" style="fill:#9c1515;fill-opacity:0.5;"/><rect x="2525.38" y="405.179" width="240.753" height="240.793" style="fill:#9c1515;fill-opacity:0.5;"/><rect x="2525.38" y="693.593" width="240.753" height="240.793" style="fill:#9c1515;fill-opacity:0.5;"/><rect x="2525.38" y="982.007" width="240.753" height="240.793" style="fill:#9c1515;fill-opacity:0.5;"/><rect x="2525.38" y="1270.42" width="240.753" height="240.793" style="fill:#9c1515;fill-opacity:0.5;"/><rect x="2525.38" y="1558.84" width="240.753" height="240.793" style="fill:#9c1515;fill-opacity:0.5;"/><rect x="2924.43" y="405.179" width="142.285" height="240.793" style="fill:url(#_Linear7);"/><rect x="2924.43" y="693.593" width="142.285" height="240.793" style="fill:url(#_Linear8);"/><rect x="2924.43" y="982.007" width="142.285" height="240.793" style="fill:url(#_Linear9);"/><rect x="2924.43" y="1270.42" width="142.285" height="240.793" style="fill:url(#_Linear10);"/><rect x="2924.43" y="1558.84" width="142.285" height="240.793" style="fill:url(#_Linear11);"/><path d="M1641.44,321.66l0,1509.48" style="fill:none;stroke:#ebebe8;stroke-width:20.83px;"/><path d="M1641.44,232.187l0,1598.95" style="fill:none;stroke:#ebebe8;stroke-width:20.83px;"/><text x="1563.24px" y="192.811px" style="font-family:'Arial-BoldMT', 'Arial', sans-serif;font-weight:700;font-size:151.248px;fill:#ebebe8;">50</text><rect x="4043.76" y="921.551" width="400.647" height="407.215" style="fill:#9c1515;"/><rect x="4042.39" y="2857.28" width="400.647" height="407.215" style="fill:#9c1515;"/><rect x="3560.92" y="2366.99" width="400.647" height="407.215" style="fill:#dcdcdc;"/><rect x="4042.39" y="1403.37" width="400.647" height="407.215" style="fill:#9c1515;"/><rect x="4042.39" y="1885.18" width="400.647" height="407.215" style="fill:#9c1515;"/><rect x="4042.39" y="2366.99" width="400.647" height="407.215" style="fill:#9c1515;"/><rect x="3560.92" y="2857.28" width="400.647" height="407.215" style="fill:#dcdcdc;"/><text x="4108.64px" y="2627.64px" style="font-family:'HelveticaNeue-Bold', 'Helvetica Neue';font-weight:700;font-size:188.309px;fill:#ebebe8;">N<tspan x="4245.95px " y="2627.64px ">C</tspan></text><text x="3624.53px" y="3133.02px" style="font-family:'HelveticaNeue-Bold', 'Helvetica Neue';font-weight:700;font-size:188.309px;fill:#121212;">G<tspan x="3765.17px " y="3133.02px ">A</tspan></text><text x="3628.09px" y="2631.77px" style="font-family:'HelveticaNeue-Bold', 'Helvetica Neue';font-weight:700;font-size:188.309px;fill:#121212;">G<tspan x="3768.74px " y="2631.77px ">A</tspan></text><text x="4159.39px" y="1192.33px" style="font-family:'HelveticaNeue-Bold', 'Helvetica Neue';font-weight:700;font-size:188.309px;fill:#ebebe8;">I<tspan x="4214.05px " y="1192.33px ">A</tspan></text><text x="4115.68px" y="3128.92px" style="font-family:'HelveticaNeue-Bold', 'Helvetica Neue';font-weight:700;font-size:188.309px;fill:#ebebe8;">S<tspan x="4235.94px " y="3128.92px ">C</tspan></text><text x="4100.17px" y="2154.35px" style="font-family:'HelveticaNeue-Bold', 'Helvetica Neue';font-weight:700;font-size:188.309px;fill:#ebebe8;">M<tspan x="4268.24px " y="2154.35px ">T</tspan></text><text x="4094.48px" y="1664.03px" style="font-family:'HelveticaNeue-Bold', 'Helvetica Neue';font-weight:700;font-size:188.309px;fill:#ebebe8;">M<tspan x="4262.55px " y="1664.03px ">E</tspan></text><g transform="matrix(4.16667,0,0,4.16667,-299.179,-3397.26)"><g transform="matrix(0.984035,0,0,1,3.25962,0)"><text x="204.176px" y="1406.41px" style="font-family:'HelveticaNeue-Bold', 'Helvetica Neue';font-weight:700;font-size:54px;fill:#ebebe8;">Republicans have won</text></g><g transform="matrix(0.984035,0,0,1,3.25962,0)"><text x="204.176px" y="1471.41px" style="font-family:'HelveticaNeue-Bold', 'Helvetica Neue';font-weight:700;font-size:54px;fill:#ebebe8;">ï¬ve of the seven toss-up</text></g><g transform="matrix(0.984035,0,0,1,3.25962,0)"><text x="204.176px" y="1536.41px" style="font-family:'HelveticaNeue-Bold', 'Helvetica Neue';font-weight:700;font-size:54px;fill:#ebebe8;">seats so far</text></g></g></g><rect x="751.661" y="352.621" width="2065.71" height="1492.67" style="fill:none;stroke:#ebebe8;stroke-opacity:0.5;stroke-width:20.83px;"/></g><defs><linearGradient id="_Linear2" x1="0" y1="0" x2="1" y2="0" gradientUnits="userSpaceOnUse" gradientTransform="matrix(114.231,0,0,240.793,555.595,525.575)"><stop offset="0" style="stop-color:#337fd8;stop-opacity:0"/><stop offset="1" style="stop-color:#124683;stop-opacity:0.5"/></linearGradient><linearGradient id="_Linear3" x1="0" y1="0" x2="1" y2="0" gradientUnits="userSpaceOnUse" gradientTransform="matrix(114.231,0,0,240.793,555.595,813.99)"><stop offset="0" style="stop-color:#337fd8;stop-opacity:0"/><stop offset="1" style="stop-color:#124683;stop-opacity:0.5"/></linearGradient><linearGradient id="_Linear4" x1="0" y1="0" x2="1" y2="0" gradientUnits="userSpaceOnUse" gradientTransform="matrix(114.231,0,0,240.793,555.595,1102.4)"><stop offset="0" style="stop-color:#337fd8;stop-opacity:0"/><stop offset="1" style="stop-color:#124683;stop-opacity:0.5"/></linearGradient><linearGradient id="_Linear5" x1="0" y1="0" x2="1" y2="0" gradientUnits="userSpaceOnUse" gradientTransform="matrix(114.231,0,0,240.793,555.595,1390.82)"><stop offset="0" style="stop-color:#337fd8;stop-opacity:0"/><stop offset="1" style="stop-color:#124683;stop-opacity:0.5"/></linearGradient><linearGradient id="_Linear6" x1="0" y1="0" x2="1" y2="0" gradientUnits="userSpaceOnUse" gradientTransform="matrix(114.231,0,0,240.793,555.595,1679.23)"><stop offset="0" style="stop-color:#337fd8;stop-opacity:0"/><stop offset="1" style="stop-color:#124683;stop-opacity:0.5"/></linearGradient><linearGradient id="_Linear7" x1="0" y1="0" x2="1" y2="0" gradientUnits="userSpaceOnUse" gradientTransform="matrix(142.285,0,0,240.793,2924.43,525.575)"><stop offset="0" style="stop-color:#9c1515;stop-opacity:0.5"/><stop offset="1" style="stop-color:#9c1515;stop-opacity:0"/></linearGradient><linearGradient id="_Linear8" x1="0" y1="0" x2="1" y2="0" gradientUnits="userSpaceOnUse" gradientTransform="matrix(142.285,0,0,240.793,2924.43,813.99)"><stop offset="0" style="stop-color:#9c1515;stop-opacity:0.5"/><stop offset="1" style="stop-color:#9c1515;stop-opacity:0"/></linearGradient><linearGradient id="_Linear9" x1="0" y1="0" x2="1" y2="0" gradientUnits="userSpaceOnUse" gradientTransform="matrix(142.285,0,0,240.793,2924.43,1102.4)"><stop offset="0" style="stop-color:#9c1515;stop-opacity:0.5"/><stop offset="1" style="stop-color:#9c1515;stop-opacity:0"/></linearGradient><linearGradient id="_Linear10" x1="0" y1="0" x2="1" y2="0" gradientUnits="userSpaceOnUse" gradientTransform="matrix(142.285,0,0,240.793,2924.43,1390.82)"><stop offset="0" style="stop-color:#9c1515;stop-opacity:0.5"/><stop offset="1" style="stop-color:#9c1515;stop-opacity:0"/></linearGradient><linearGradient id="_Linear11" x1="0" y1="0" x2="1" y2="0" gradientUnits="userSpaceOnUse" gradientTransform="matrix(142.285,0,0,240.793,2924.43,1679.23)"><stop offset="0" style="stop-color:#9c1515;stop-opacity:0.5"/><stop offset="1" style="stop-color:#9c1515;stop-opacity:0"/></linearGradient></defs></svg>