<?xml version="1.0" encoding="UTF-8" standalone="no"?><!DOCTYPE svg PUBLIC "-//W3C//DTD SVG 1.1//EN" "http://www.w3.org/Graphics/SVG/1.1/DTD/svg11.dtd"><svg width="100%" height="100%" viewBox="0 0 5000 3334" version="1.1" xmlns="http://www.w3.org/2000/svg" xmlns:xlink="http://www.w3.org/1999/xlink" xml:space="preserve" xmlns:serif="http://www.serif.com/" style="fill-rule:evenodd;clip-rule:evenodd;stroke-linecap:round;stroke-linejoin:round;stroke-miterlimit:1.5;"><rect id="Artboard1" x="0" y="0" width="5000" height="3333.33" style="fill:none;"/><clipPath id="_clip1"><rect x="0" y="0" width="5000" height="3333.33"/></clipPath><g clip-path="url(#_clip1)"><rect x="-192.113" y="-156.6" width="5216.41" height="3649.51" style="fill:#1f3138;"/><g><rect x="1189.28" y="370.642" width="319.039" height="319.093" style="fill:#124683;"/><rect x="1189.28" y="752.841" width="319.039" height="319.093" style="fill:#124683;"/><rect x="1189.28" y="1135.04" width="319.039" height="319.093" style="fill:#124683;"/><rect x="1189.28" y="1517.24" width="319.039" height="319.093" style="fill:#124683;"/><rect x="1189.28" y="1899.44" width="319.039" height="319.093" style="fill:#124683;"/><rect x="857.243" y="370.642" width="151.376" height="319.093" style="fill:url(#_Linear2);"/><rect x="857.243" y="752.841" width="151.376" height="319.093" style="fill:url(#_Linear3);"/><rect x="857.243" y="1135.04" width="151.376" height="319.093" style="fill:url(#_Linear4);"/><rect x="857.243" y="1517.24" width="151.376" height="319.093" style="fill:url(#_Linear5);"/><rect x="857.243" y="1899.44" width="151.376" height="319.093" style="fill:url(#_Linear6);"/><rect x="1572.69" y="370.642" width="319.039" height="319.093" style="fill:#124683;"/><rect x="1572.69" y="752.841" width="319.039" height="319.093" style="fill:#124683;"/><rect x="1572.69" y="1135.04" width="319.039" height="319.093" style="fill:#124683;"/><rect x="1572.69" y="1517.24" width="319.039" height="319.093" style="fill:#124683;"/><rect x="1572.69" y="1899.44" width="319.039" height="319.093" style="fill:#124683;"/><rect x="1949.14" y="370.642" width="319.039" height="319.093" style="fill:#8ebdf3;"/><rect x="1949.14" y="752.841" width="319.039" height="319.093" style="fill:#8ebdf3;"/><rect x="1949.14" y="1135.04" width="319.039" height="319.093" style="fill:#8ebdf3;"/><rect x="1949.14" y="1517.24" width="319.039" height="319.093" style="fill:#dcdcdc;"/><rect x="1949.14" y="1899.44" width="319.039" height="319.093" style="fill:#dcdcdc;"/><rect x="2332.54" y="370.642" width="319.039" height="319.093" style="fill:#dcdcdc;"/><rect x="2332.54" y="752.841" width="319.039" height="319.093" style="fill:#dcdcdc;"/><rect x="2332.54" y="1135.04" width="319.039" height="319.093" style="fill:#dcdcdc;"/><rect x="2332.54" y="1517.24" width="319.039" height="319.093" style="fill:#dcdcdc;"/><rect x="2332.54" y="1899.44" width="319.039" height="319.093" style="fill:#dcdcdc;"/><rect x="2710.27" y="370.642" width="319.039" height="319.093" style="fill:#e79090;"/><rect x="2710.27" y="752.841" width="319.039" height="319.093" style="fill:#e79090;"/><rect x="2710.27" y="1135.04" width="319.039" height="319.093" style="fill:#e79090;"/><rect x="2710.27" y="1517.24" width="319.039" height="319.093" style="fill:#e79090;"/><rect x="2710.27" y="1899.44" width="319.039" height="319.093" style="fill:#c74343;"/><rect x="3086.72" y="370.642" width="319.039" height="319.093" style="fill:#c74343;"/><rect x="3086.72" y="752.841" width="319.039" height="319.093" style="fill:#9c1515;"/><rect x="3086.72" y="1135.04" width="319.039" height="319.093" style="fill:#9c1515;"/><rect x="3086.72" y="1517.24" width="319.039" height="319.093" style="fill:#9c1515;"/><rect x="3086.72" y="1899.44" width="319.039" height="319.093" style="fill:#9c1515;"/><rect x="3470.13" y="370.642" width="319.039" height="319.093" style="fill:#9c1515;"/><rect x="3470.13" y="752.841" width="319.039" height="319.093" style="fill:#9c1515;"/><rect x="3470.13" y="1135.04" width="319.039" height="319.093" style="fill:#9c1515;"/><rect x="3470.13" y="1517.24" width="319.039" height="319.093" style="fill:#9c1515;"/><rect x="3470.13" y="1899.44" width="319.039" height="319.093" style="fill:#9c1515;"/><rect x="3958.77" y="370.642" width="188.553" height="319.093" style="fill:url(#_Linear7);"/><rect x="3958.77" y="752.841" width="188.553" height="319.093" style="fill:url(#_Linear8);"/><rect x="3958.77" y="1135.04" width="188.553" height="319.093" style="fill:url(#_Linear9);"/><rect x="3958.77" y="1517.24" width="188.553" height="319.093" style="fill:url(#_Linear10);"/><rect x="3958.77" y="1899.44" width="188.553" height="319.093" style="fill:url(#_Linear11);"/><path d="M2298.76,210.318l0,2049.97" style="fill:none;stroke:#ebebe8;stroke-width:20.83px;"/><text x="2192.04px" y="161.058px" style="font-family:'Arial-BoldMT', 'Arial', sans-serif;font-weight:700;font-size:200.43px;fill:#ebebe8;">50</text></g><text x="395.196px" y="2654.94px" style="font-family:'HelveticaNeue-Bold', 'Helvetica Neue';font-weight:700;font-size:225px;fill:#ebebe8;">3<tspan x="518.299px 641.401px 702.953px 821.849px 948.937px 1076.03px 1153.96px 1272.86px 1334.41px 1514.63px 1641.72px 1723.87px 1850.95px 1912.5px 2043.8px 2179.08px 2240.63px 2314.36px 2449.64px 2535.77px 2597.32px 2679.46px 2806.55px 2896.66px 3023.75px 3080.87px 3207.96px 3335.05px 3412.99px 3470.11px 3605.39px 3736.68px 3798.24px 3855.36px 3986.65px 4048.2px 4171.31px 4294.41px 4417.51px " y="2654.94px 2654.94px 2654.94px 2654.94px 2654.94px 2654.94px 2654.94px 2654.94px 2654.94px 2654.94px 2654.94px 2654.94px 2654.94px 2654.94px 2654.94px 2654.94px 2654.94px 2654.94px 2654.94px 2654.94px 2654.94px 2654.94px 2654.94px 2654.94px 2654.94px 2654.94px 2654.94px 2654.94px 2654.94px 2654.94px 2654.94px 2654.94px 2654.94px 2654.94px 2654.94px 2654.94px 2654.94px 2654.94px 2654.94px ">5 seats were up for re-election in 2020</tspan></text><g transform="matrix(4.16667,0,0,4.16667,-535.358,-2803.16)"><g transform="matrix(0.984035,0,0,1,3.25962,0)"><text x="204.176px" y="1406.41px" style="font-family:'HelveticaNeue-Bold', 'Helvetica Neue';font-weight:700;font-size:54px;fill:#ebebe8;">Seven of these wer<tspan x="694.334px 725.33px " y="1406.41px 1406.41px ">e </tspan>classed as</text></g><g transform="matrix(0.984035,0,0,1,16.206,0)"><text x="1015.11px" y="1406.41px" style="font-family:'HelveticaNeue-Bold', 'Helvetica Neue';font-weight:700;font-size:54px;fill:#dcdcdc;">toss-ups</text></g></g><rect x="1120.95" y="319.302" width="2722.97" height="1949.35" style="fill:none;stroke:#ebebe8;stroke-width:20.83px;"/></g><defs><linearGradient id="_Linear2" x1="0" y1="0" x2="1" y2="0" gradientUnits="userSpaceOnUse" gradientTransform="matrix(151.376,0,0,319.093,857.243,530.188)"><stop offset="0" style="stop-color:#337fd8;stop-opacity:0"/><stop offset="1" style="stop-color:#124683;stop-opacity:1"/></linearGradient><linearGradient id="_Linear3" x1="0" y1="0" x2="1" y2="0" gradientUnits="userSpaceOnUse" gradientTransform="matrix(151.376,0,0,319.093,857.243,912.387)"><stop offset="0" style="stop-color:#337fd8;stop-opacity:0"/><stop offset="1" style="stop-color:#124683;stop-opacity:1"/></linearGradient><linearGradient id="_Linear4" x1="0" y1="0" x2="1" y2="0" gradientUnits="userSpaceOnUse" gradientTransform="matrix(151.376,0,0,319.093,857.243,1294.59)"><stop offset="0" style="stop-color:#337fd8;stop-opacity:0"/><stop offset="1" style="stop-color:#124683;stop-opacity:1"/></linearGradient><linearGradient id="_Linear5" x1="0" y1="0" x2="1" y2="0" gradientUnits="userSpaceOnUse" gradientTransform="matrix(151.376,0,0,319.093,857.243,1676.79)"><stop offset="0" style="stop-color:#337fd8;stop-opacity:0"/><stop offset="1" style="stop-color:#124683;stop-opacity:1"/></linearGradient><linearGradient id="_Linear6" x1="0" y1="0" x2="1" y2="0" gradientUnits="userSpaceOnUse" gradientTransform="matrix(151.376,0,0,319.093,857.243,2058.98)"><stop offset="0" style="stop-color:#337fd8;stop-opacity:0"/><stop offset="1" style="stop-color:#124683;stop-opacity:1"/></linearGradient><linearGradient id="_Linear7" x1="0" y1="0" x2="1" y2="0" gradientUnits="userSpaceOnUse" gradientTransform="matrix(188.553,0,0,319.093,3958.77,530.188)"><stop offset="0" style="stop-color:#9c1515;stop-opacity:1"/><stop offset="1" style="stop-color:#9c1515;stop-opacity:0"/></linearGradient><linearGradient id="_Linear8" x1="0" y1="0" x2="1" y2="0" gradientUnits="userSpaceOnUse" gradientTransform="matrix(188.553,0,0,319.093,3958.77,912.387)"><stop offset="0" style="stop-color:#9c1515;stop-opacity:1"/><stop offset="1" style="stop-color:#9c1515;stop-opacity:0"/></linearGradient><linearGradient id="_Linear9" x1="0" y1="0" x2="1" y2="0" gradientUnits="userSpaceOnUse" gradientTransform="matrix(188.553,0,0,319.093,3958.77,1294.59)"><stop offset="0" style="stop-color:#9c1515;stop-opacity:1"/><stop offset="1" style="stop-color:#9c1515;stop-opacity:0"/></linearGradient><linearGradient id="_Linear10" x1="0" y1="0" x2="1" y2="0" gradientUnits="userSpaceOnUse" gradientTransform="matrix(188.553,0,0,319.093,3958.77,1676.79)"><stop offset="0" style="stop-color:#9c1515;stop-opacity:1"/><stop offset="1" style="stop-color:#9c1515;stop-opacity:0"/></linearGradient><linearGradient id="_Linear11" x1="0" y1="0" x2="1" y2="0" gradientUnits="userSpaceOnUse" gradientTransform="matrix(188.553,0,0,319.093,3958.77,2058.98)"><stop offset="0" style="stop-color:#9c1515;stop-opacity:1"/><stop offset="1" style="stop-color:#9c1515;stop-opacity:0"/></linearGradient></defs></svg>