<?xml version="1.0" encoding="UTF-8" standalone="no"?><!DOCTYPE svg PUBLIC "-//W3C//DTD SVG 1.1//EN" "http://www.w3.org/Graphics/SVG/1.1/DTD/svg11.dtd"><svg width="100%" height="100%" viewBox="0 0 5000 3334" version="1.1" xmlns="http://www.w3.org/2000/svg" xmlns:xlink="http://www.w3.org/1999/xlink" xml:space="preserve" xmlns:serif="http://www.serif.com/" style="fill-rule:evenodd;clip-rule:evenodd;stroke-linejoin:round;stroke-miterlimit:1.5;"><rect id="Artboard3" x="0" y="0" width="5000" height="3333.33" style="fill:none;"/><clipPath id="_clip1"><rect x="0" y="0" width="5000" height="3333.33"/></clipPath><g clip-path="url(#_clip1)"><rect x="-118.17" y="-138.104" width="5216.41" height="3649.51" style="fill:#1f3138;"/><g><rect x="138.337" y="542.703" width="4720.14" height="775.636" style="fill:#dcdcdc;"/><rect x="2498.47" y="542.703" width="2360" height="775.636" style="fill:#9c1515;"/><rect x="138.337" y="542.703" width="2265.6" height="775.636" style="fill:#337fd8;"/></g><text x="4505.18px" y="1015.09px" style="font-family:'HelveticaNeue-Bold', 'Helvetica Neue';font-weight:700;font-size:250px;fill:#ebebe8;">5<tspan x="4641.96px " y="1015.09px ">0</tspan></text><text x="229.389px" y="1015.09px" style="font-family:'HelveticaNeue-Bold', 'Helvetica Neue';font-weight:700;font-size:250px;fill:#ebebe8;">4<tspan x="366.17px " y="1015.09px ">8</tspan></text><text x="2382.95px" y="319.991px" style="font-family:'HelveticaNeue-Bold', 'Helvetica Neue';font-weight:700;font-size:250px;fill:#ebebe8;">2</text><path d="M2450.71,358.884l0,185.442" style="fill:none;stroke:#ebebe8;stroke-width:20.83px;"/><g transform="matrix(4.16667,0,0,4.16667,-466.499,-3909.08)"><g transform="matrix(0.984035,0,0,1,3.25962,0)"><text x="204.176px" y="1406.41px" style="font-family:'HelveticaNeue-Bold', 'Helvetica Neue';font-weight:700;font-size:54px;fill:#ebebe8;">The Democrats need to win both of</text></g><g transform="matrix(0.984035,0,0,1,3.25962,0)"><text x="204.176px" y="1471.41px" style="font-family:'HelveticaNeue-Bold', 'Helvetica Neue';font-weight:700;font-size:54px;fill:#ebebe8;">Geor<tspan x="328.646px 361.64px " y="1471.41px 1471.41px ">gi</tspan>a&apos;s Senate seats to gain a</text></g><g transform="matrix(0.984035,0,0,1,3.25962,0)"><text x="204.176px" y="1536.41px" style="font-family:'HelveticaNeue-Bold', 'Helvetica Neue';font-weight:700;font-size:54px;fill:#ebebe8;">majority thr<tspan x="500.15px 533.144px " y="1536.41px 1536.41px ">ou</tspan>gh VP Kamala Harris.</text></g><g transform="matrix(0.984035,0,0,1,3.25962,0)"><text x="204.176px" y="1666.41px" style="font-family:'HelveticaNeue-Bold', 'Helvetica Neue';font-weight:700;font-size:54px;fill:#ebebe8;">Republicans need just one for a majority<tspan x="1240.06px " y="1666.41px ">.</tspan></text></g></g></g></svg>