<?xml version="1.0" encoding="UTF-8" standalone="no"?><!DOCTYPE svg PUBLIC "-//W3C//DTD SVG 1.1//EN" "http://www.w3.org/Graphics/SVG/1.1/DTD/svg11.dtd"><svg width="100%" height="100%" viewBox="0 0 5834 1667" version="1.1" xmlns="http://www.w3.org/2000/svg" xmlns:xlink="http://www.w3.org/1999/xlink" xml:space="preserve" xmlns:serif="http://www.serif.com/" style="fill-rule:evenodd;clip-rule:evenodd;stroke-linejoin:round;stroke-miterlimit:2;"><rect x="-8.508" y="-31.921" width="5850.57" height="1733.86" style="fill:#1f3138;"/><path id="AZ" d="M1230.52,596.31l-1.25,6.25l2.083,4.167l78.75,44.583l50.417,31.667l61.25,35.833l70,41.667l51.25,10l105.833,11.25l25,-165l29.167,-221.25l18.333,-129.167l-102.5,-15l-252.916,-45.833l-0.834,4.583l-10.833,68.75l-8.75,15.834l-11.667,-0.834l-5,-10.833l-10.833,-1.667l-5,-4.583l-4.583,0.417l-8.75,7.083l-1.25,28.333l-1.25,6.25l-2.084,52.084l-6.25,10l-1.666,13.75l11.666,20.833l4.584,22.917l2.916,4.583l4.584,3.75l-1.667,10l-7.083,5l-14.167,6.667l-6.667,7.5l-6.666,15l-2.084,20.416l-12.5,12.084l-7.916,3.75l-0.417,24.166l-2.5,6.667l2.083,3.333l16.25,1.667l-3.75,12.5l-7.083,10l-15.417,1.667l-10.833,9.166Z" style="fill:#9c1515;fill-rule:nonzero;stroke:#ebebe8;stroke-width:4.17px;"/><text x="1435.75px" y="496.455px" style="font-family:'HelveticaNeue-Bold', 'Helvetica Neue';font-weight:700;font-size:91.667px;fill:#ebebe8;">AZ</text><g transform="matrix(4.16667,0,0,4.16667,-595.488,783.354)"><text x="201.729px" y="66.896px" style="font-family:'HelveticaNeue', 'Helvetica Neue';font-size:18px;fill:#ebebe8;">All won by</text><text x="201.729px" y="85.4px" style="font-family:'HelveticaNeue', 'Helvetica Neue';font-size:18px;fill:#ebebe8;">T<tspan x="210.405px 216.399px " y="85.4px 85.4px ">ru</tspan>mp in 2016</text></g><path d="M715.971,784.553l16.493,20.763l-20.763,16.493" style="fill:none;stroke:#ebebe8;stroke-width:6.25px;stroke-linecap:round;stroke-linejoin:miter;stroke-miterlimit:10;"/><path d="M469.775,946.8c0,0 19.934,-168.283 262.689,-141.484" style="fill:none;stroke:#ebebe8;stroke-width:6.25px;stroke-linecap:round;stroke-miterlimit:1.5;"/><path id="FL" d="M4831.42,792.245l-21.667,-2.917l-2.916,3.333l6.25,18.334l-1.667,21.666l-17.083,-4.166l-0.834,-11.667l-17.083,0l-22.083,2.917l-135,7.916l-34.167,-1.25l-7.083,-7.083l-10.417,-17.5l-24.583,0l-27.5,2.083l-147.5,17.5l-1.25,11.667l6.666,6.667l12.084,8.333l1.25,35l13.75,-2.5l25,-8.75l25,-2.083l18.333,-2.5l31.667,7.5l33.75,16.25l6.666,6.25l12.084,4.583l6.666,7.917l1.25,11.25l13.334,-5.417l16.25,0l15,-7.917l15.416,-15l12.917,0.834l2.083,-4.584l-3.333,-4.166l0.833,-7.917l16.667,-3.333l10.833,-0l12.084,6.25l17.5,6.25l10,15.416l11.25,4.167l4.583,14.167l14.167,6.666l6.666,10.834l7.917,2.5l21.667,5.416l5.416,12.917l12.5,15.417l0,39.583l-6.25,19.583l1.25,11.25l5.417,20l7.5,16.667l3.333,-2.083l6.25,-18.75l-10.833,-4.167l-1.25,-2.5l6.667,-2.5l18.75,4.167l0.833,6.666l-13.333,22.917l-8.75,10l15,15.417l10.833,12.916l12.083,22.084l12.084,16.25l8.75,20.833l7.5,1.25l6.666,-8.75l7.5,4.583l10.834,16.667l2.5,15l12.916,18.333l3.334,-5.416l16.25,1.25l15,9.583l14.166,21.667l3.334,14.166l1.25,12.084l4.583,4.166l5.417,2.084l10,-4.167l6.25,-6.667l16.25,-0.833l12.916,-6.25l11.25,-13.333l-2.083,-7.917l-1.25,-10l2.5,-7.917l-1.25,-7.916l10,-5.417l1.25,-14.167l-2.5,-7.5l-2.083,-50l-5.417,-31.666l-18.75,-34.167l-15,-24.167l-10.833,-22.083l-12.084,-12.083l-12.083,-30.834l2.917,-5.833l4.583,-5.417l-6.667,-12.083l-16.666,-15.417l-20,-22.916l-15.417,-26.25l-22.083,-39.167l-15.417,-40.417l-9.583,-30.416l-21.667,-1.25Zm73.75,552.916l10,-2.5l5.417,-0.833l6.25,-9.583l9.583,-6.667l5.417,2.083l7.083,1.25l1.667,4.584l-14.584,5l-17.5,6.25l-9.583,5l-3.75,-4.584Zm56.25,-20.833l5,4.583l11.25,-8.75l22.083,-17.5l15.417,-16.25l10.417,-27.5l4.166,-7.083l0.834,-14.167l-2.917,2.084l-4.167,11.666l-6.25,19.167l-13.333,22.083l-18.333,17.5l-14.167,7.917l-10,6.25Z" style="fill:#9c1515;fill-rule:nonzero;stroke:#ebebe8;stroke-width:4.17px;"/><path id="GA" d="M4771.27,541.86l-23.333,-2.917l-5.834,6.667l6.667,19.583l-1.25,16.25l-9.167,-2.5l-0.833,-12.5l-21.667,0l-22.083,2.917l-134.583,7.917l-32.084,-1.25l-5.833,-5l-10.417,-17.917l-3.333,-13.75l-6.667,-3.75l-2.083,-2.083l3.75,-9.167l-1.667,-22.917l-6.666,-18.75l3.333,-20.416l7.083,-20l-0.833,-10.417l-7.917,-2.917l-1.666,-13.333l-11.667,-14.583l-7.917,-25.834l-6.25,-29.166l-7.083,-20l-15.833,-66.667l-14.584,-33.333l-3.333,-22.084l0.417,-9.583l13.75,-1.25l56.666,-6.667l77.5,-8.333l26.25,-4.583l2.084,5.833l-9.167,3.75l-3.75,9.167l1.667,8.333l5.833,6.667l17.917,11.25l13.333,-0.417l13.333,19.583l2.5,6.667l9.584,11.667l2.083,7.083l19.583,7.5l12.5,9.167l9.584,12.5l9.583,5.416l8.333,7.5l5.834,11.25l8.75,7.917l17.083,7.5l11.25,25l7.083,21.25l11.667,2.917l8.75,7.916l8.333,23.75l12.084,6.667l7.083,-3.333l1.667,5l-13.75,25.833l2.083,10.833l-6.25,17.5l-9.583,41.667l3.333,26.25l-21.25,-1.25Z" style="fill:#9c1515;fill-rule:nonzero;stroke:#ebebe8;stroke-width:4.17px;"/><path id="IA" d="M4495.76,1319.18l8.75,8.75l1.25,2.917l-8.333,12.5l1.25,16.666l10.833,17.084l12.917,6.666l10,1.25l3.75,7.5l0.833,10l10.417,4.167l3.75,4.583l2.083,6.667l15.834,13.75l2.5,7.917l-2.917,12.5l-7.083,15.416l-2.5,10l-8.75,6.667l-6.667,2.083l-23.75,6.25l-6.667,20l3.334,7.5l7.083,6.25l-0.833,14.584l-7.917,5.833l-2.917,7.5l0,10l-5.833,1.667l-7.083,5.833l-2.084,7.083l1.667,7.084l-5.417,4.166l-9.583,-11.25l-5.833,-11.666l-34.584,3.333l-41.666,2.5l-205,5l-6.667,-17.917l-1.667,-27.916l-5.833,-17.5l-2.917,-21.667l-9.166,-15.417l-4.167,-19.166l-11.25,-32.5l-4.583,-23.334l-5.834,-7.916l-5.416,-12.084l7.083,-15.833l5,-25.417l-11.25,-9.166l-1.25,-10l2.917,-10l7.5,-1.25l254.583,-2.5l88.333,-2.917l3.75,13.75Z" style="fill:#9c1515;fill-rule:nonzero;stroke:#ebebe8;stroke-width:4.17px;"/><path id="MI" d="M3661.4,1177.35l79.583,-7.917l0.834,4.583l41.25,-6.25l50,-7.083l0.416,-2.5l0.834,-6.25l8.75,-15.417l8.333,-7.083l-0.833,-21.25l6.666,-6.667l4.584,-1.25l0.833,-15l6.25,-12.5l4.583,2.5l0.834,2.5l3.333,0.834l7.917,-4.167l-1.667,-37.917l-13.333,-34.166l-9.584,-37.917l-10,-13.333l-10.833,-7.5l-6.667,4.583l-16.25,7.5l-7.916,20.833l-11.25,15.417l-4.584,2.5l-6.25,-2.5c0,-0 -10.833,-6.25 -10,-8.75c0.834,-2.5 2.084,-20.833 2.084,-20.833l14.166,-5.417l3.334,-14.167l2.5,-10.833l10,-6.667l-1.25,-41.666l-6.667,-9.584l-5.417,-3.333l-3.333,-8.75l3.333,-3.333l6.667,1.25l0.833,-6.667l-10.833,-9.167l-5.417,-10.833l-10.833,-0l-18.75,-6.25l-22.917,-14.167l-11.25,0l-2.5,2.5l-4.166,-2.083l-12.917,-9.583l-12.083,7.5l-12.084,9.583l1.25,15l4.167,1.25l8.75,2.083l2.083,3.334l-10.833,3.333l-10.833,1.25l-6.25,7.5l-1.25,8.75l1.25,6.667l1.25,22.916l-15,8.75l-2.5,-0.833l-0,-17.5l5.416,-10l2.5,-10l-3.333,-3.333l-7.917,3.333l-4.166,17.5l-11.25,4.583l-7.5,7.917l-0.834,4.167l2.5,3.333l-2.5,10.833l-9.583,2.084l0,4.583l3.333,10l-4.583,25.417l-6.667,16.666l2.5,19.584l2.084,4.583l-3.334,10l-1.25,3.333l-1.25,11.25l15,25l12.084,27.084l6.25,20l-3.334,19.583l-4.166,25l-10,21.667l-1.25,11.25l-13.334,12.916l54.167,-4.166Zm-138.75,-301.667l-5.417,-4.583l-7.5,-43.334l-15.416,-5.416l-7.084,-9.584l-52.5,-11.666l-11.666,-4.584l-33.75,-9.166l-32.5,-4.167l-16.25,-22.083l2.916,-2.084l11.25,-3.333l15,-9.583l0,-4.167l2.5,-2.5l25,-4.167l10,-7.916l18.334,-8.75l0.833,-5.417l7.917,-12.083l7.5,-3.334l5.416,-7.5l9.584,-9.583l18.333,-10l19.583,-2.083l4.584,4.583l-1.25,4.167l-15.417,4.166l-6.25,12.917l-9.583,3.333l-2.084,10l-10,13.334l-1.25,10.833l3.334,2.083l4.166,-4.583l15,-12.083l5.417,5.416l9.583,0l13.334,4.167l6.25,4.583l6.25,12.917l11.25,11.25l16.25,-0.833l6.25,-4.167l6.666,5.417l6.667,2.083l5.417,-3.333l4.583,-0l6.667,-4.167l16.666,-15l14.167,-4.583l27.5,-1.25l18.75,-7.917l10.833,-5.417l6.25,0.834l0,23.75l2.084,1.25l12.083,3.333l7.917,-2.083l25.416,-6.667l4.584,-4.583l6.25,2.083l-0,29.167l13.333,12.916l5.417,2.5l5.416,4.167l-5.416,1.25l-3.334,-1.25l-15.416,-2.083l-8.75,2.5l-9.584,-0.834l-13.333,6.25l-7.5,0l-24.167,-5.416l-21.666,0.833l-7.917,10.833l-29.167,2.5l-10,3.334l-4.583,12.916l-5.417,4.584l-2.083,-0.834l-6.25,-6.666l-18.75,10l-2.5,-0l-4.583,-6.667l-3.334,0.833l-7.916,18.334l-4.167,16.666l-13.333,28.75l-5.417,-3.333Zm-123.333,-235.417l7.5,-8.75l9.166,-3.333l22.5,-16.25l9.584,-2.5l2.083,2.083l-21.25,21.25l-13.75,7.917l-8.75,3.75l-7.083,-4.167Zm359.166,133.75l2.5,10.417l13.334,0.833l5.416,-5c0,0 -0.416,-6.25 -1.666,-6.666c-1.25,-0.834 -6.667,-7.917 -6.667,-7.917l-9.167,0.833l-6.666,0.834l-1.25,4.583l4.166,2.083Z" style="fill:#9c1515;fill-rule:nonzero;stroke:#ebebe8;stroke-width:4.17px;"/><path id="NC" d="M2998.4,393.851l-52.917,-32.083l-12.916,-3.333l-69.167,8.75l-6.667,-12.5l-11.666,-9.167l-69.584,2.083l-30.833,3.75l-38.333,18.75l-28.334,11.25l-27.083,5l-55.833,5.834l0.416,-17.084l7.084,-5.416l11.25,-2.917l2.916,-15.833l16.25,-10.417l16.25,-6.25l18.75,-15.417l18.334,-9.583l2.916,-13.333l17.084,-15.834l2.916,4.167l10.417,0.833l10,-15l7.083,-1.666l10.834,1.25l7.5,-16.667l10.416,-10l2.084,-7.5l0.416,-14.583l18.334,0.416l160.416,-23.333l239.584,-51.25l8.333,20l15,27.083l10,10l2.5,9.584l-10,0.833l3.333,2.5l-1.25,17.5l-10.833,5.417l-2.5,8.75l-5.417,12.083l-15.416,6.667l-10,-1.25l-6.25,-0.834l-6.667,-5.416l1.25,5.416l-0,4.167l7.917,0l3.333,5.417l-7.917,26.25l17.5,-0l2.5,6.666l9.584,-9.583l5.416,-2.083l-7.916,15l-12.917,20l-5.417,-0l-4.583,-2.084l-11.25,2.5l-21.667,10l-27.083,22.084l-14.167,19.583l-7.916,27.083l-2.084,10l-19.583,2.084l-21.25,6.25l-42.5,-34.584Zm205.417,-109.166l10.833,-10.417l13.333,-10.833l6.25,-2.5l0.834,-8.334l-2.5,-25.416l-6.25,-9.584l-2.5,-7.916l2.916,-0.834l11.25,22.917l1.667,18.333l-0.833,14.167l-14.167,6.25l-11.667,10l-4.583,5l-4.583,-0.833Z" style="fill:#9c1515;fill-rule:nonzero;stroke:#ebebe8;stroke-width:4.17px;"/><path id="OH" d="M1242.44,1285.6l7.084,64.584l20,171.25l16.25,-0.834l9.583,-3.333l15,7.5l7.083,17.5l22.5,0.417l7.5,8.333l7.084,-0l10,-5.833l12.916,2.083l6.25,5.417l7.5,-8.334l9.584,-5.833l10,-1.667l2.5,11.25l6.666,4.167l10.834,8.333l3.333,0.834l8.333,-0.417l5,-2.5l0,-8.75l7.084,-6.25l0.416,-20l4.584,-17.5l7.916,-5.417l4.167,2.917l4.167,4.583l2.916,0.834l1.667,-1.667l-3.75,-11.25l-0,-9.167l4.583,-5.833l10.417,-15l5.417,-6.25l9.166,2.083l8.75,-6.25l12.5,-13.75l9.167,-15.416l0.833,-22.5l2.084,-20.834l-0,-19.166l-5,-13.334l5,-7.5l5.416,-5l-2.5,-11.666l-17.916,-106.667l-25.834,15.417l-16.25,9.583l-14.166,15.417l-16.667,16.25l-13.333,3.333l-12.084,2.083l-22.916,10.834l-8.75,0.833l-14.167,-12.917l-21.667,2.5l-10.833,-6.25l-9.167,-5.416l-96.25,14.166Z" style="fill:#9c1515;fill-rule:nonzero;stroke:#ebebe8;stroke-width:4.17px;"/><path id="PA" d="M3666.14,271.681l5.416,-2.084l23.75,-22.916l2.917,28.75l139.583,-27.084l153.75,-32.5l9.584,9.584l12.916,1.666l8.334,23.334l10,7.916l11.666,1.667l0.417,0.417l-10.833,13.333l-0,12.917l-7.917,12.916l-0.833,7.917l5.416,5.417l-0.833,7.916l-10,4.584l4.167,14.166l0.833,4.584l11.667,1.25l3.75,10.416l24.583,16.25l0,1.667l-12.917,12.5l-6.25,9.167l-7.083,11.666l-11.25,5l-5.833,1.25l-8.75,5.417l-6.667,5.833l-93.333,17.917l-161.25,32.5l-47.084,5.833l-16.25,2.917l-21.25,-93.333l-17.916,-107.917l17.5,-10.833Z" style="fill:#9c1515;fill-rule:nonzero;stroke:#ebebe8;stroke-width:4.17px;"/><path id="TX" d="M1792.19,807.929l154.167,15l122.083,7.917l30.834,-407.083l226.666,10l-7.083,97.083l-4.167,75l0.834,8.333l18.333,17.084l8.333,4.583l7.5,0l2.084,-5l2.916,3.75l10,0.833l4.584,-2.5l-0,-0.833l4.166,2.083l-1.666,15.417l18.75,2.917l10,3.75l17.5,2.916l10.833,7.5l11.667,-7.916l11.25,2.5l9.166,12.916l3.334,0.417l-0,8.75l13.75,4.583l10.416,-8.75l6.25,2.084l8.75,0.416l2.5,8.75l21.667,8.334l9.583,-2.084l7.917,-16.666l0.417,-0l4.583,7.916l19.167,3.75l14.166,5.417l13.334,4.167l10,-5l2.916,-9.584l15,0l8.75,4.167l12.5,-8.333l1.667,-0l2.083,5.833l19.584,0l7.916,-7.5l5.417,1.667l7.083,8.75l13.75,7.916l14.167,4.167l10.417,5.833l11.25,8.334l12.916,-5l8.75,3.333l2.917,83.333l2.917,39.584l2.5,17.083l10.833,18.333l3.75,18.75l17.5,24.584l1.25,12.916l2.5,3.334l-2.917,32.083l-12.083,20l5.417,10.833l-2.084,10l-3.333,30l-5.417,12.5l1.25,17.5l-23.333,6.667l-41.25,18.75l-4.167,7.917l-10.833,7.916l-8.75,6.25l-5.417,3.334l-23.75,22.083l-11.25,8.75l-22.083,13.333l-23.75,10l-26.25,14.167l-7.5,6.25l-24.167,15l-14.166,2.5l-16.25,22.917l-16.667,1.25l-4.167,7.916l9.584,7.917l-6.25,22.917l-5.417,18.75l-4.583,16.25l-3.334,18.75l3.334,10l7.5,29.166l4.166,25.417l7.5,11.25l-4.166,6.25l-12.917,7.917l-23.75,-16.25l-22.917,-4.584l-5.416,2.084l-13.334,-2.5l-17.5,-12.917l-21.666,-4.583l-31.667,-14.167l-8.75,-16.25l-5.417,-27.083l-13.333,-7.917l-2.5,-9.583l2.5,-2.5l1.25,-14.167l-5.417,-2.5l-2.5,-4.167l5.417,-18.333l-6.667,-9.583l-13.333,-5.417l-14.167,-18.333l-15,-27.5l-17.5,-10.834l0.834,-7.916l-22.084,-51.25l-3.333,-17.5l-7.5,-7.917l-0.833,-6.25l-25,-22.083l-10.834,-12.917l0,-4.583l-10.833,-8.75l-28.333,-4.584l-30.834,-2.5l-12.916,-9.583l-18.75,7.5l-15,6.25l-9.584,13.333l-4.166,15.417l-18.334,25.417l-10,10l-10.833,-4.167l-7.5,-4.583l-7.917,-2.5l-16.25,-9.584l0,-2.5l-7.5,-7.916l-21.666,-8.75l-30.834,-32.5l-9.583,-19.584l0,-33.75l-13.333,-27.083l-2.084,-11.25l-6.666,-4.167l-4.584,-8.75l-20.833,-8.75l-5.417,-6.666l-29.583,-32.917l-5.417,-13.333l-19.583,-9.584l-6.25,-18.333l-10.833,-12.083l-7.084,-2.084l-2.5,-22.5Zm726.667,590.417l-2.5,-29.583l-11.25,-30l-2.5,-29.167l6.25,-34.167l13.75,-28.75l14.583,-22.5l13.334,-15l2.5,0.834l-20,27.5l-18.334,27.083l-8.333,27.5l-1.25,21.667l3.75,25.416l10.833,30l2.084,21.667l0.833,6.25l-3.75,1.25Z" style="fill:#9c1515;fill-rule:nonzero;stroke:#ebebe8;stroke-width:4.17px;"/><path id="WI" d="M3058.75,1190.02l12.083,2.083l12.083,-2.5l30.834,-13.333l12.083,-7.917l8.75,-3.333l7.917,6.25l-4.584,4.583l-7.916,12.917l-2.5,7.916l4.166,2.5l7.5,-4.166l4.584,-0.834l11.25,3.334l2.5,4.583l4.583,0.833l2.5,-4.583l16.667,22.083l34.166,5l34.167,9.167l10.833,4.583l51.25,10.834l6.667,9.583l15,5l7.083,42.5l6.667,5.833l6.25,3.75l-4.583,9.584l-7.5,6.666l-8.75,19.584l-5.417,10l0.833,7.5l6.25,1.25l4.584,-7.917l6.25,-3.333l3.333,-9.584l7.917,-7.5l11.25,-16.666l17.5,-26.25l3.333,-2.084l1.25,4.167l-0.833,9.583l-12.084,28.334l-11.25,23.75l-2.083,13.333l-2.5,10.833l3.333,5.417l-0.833,11.25l-7.917,10l-2.083,7.5l2.5,15l2.5,14.167l-6.25,10.833l-3.333,12.083l-4.167,12.917l4.583,10l2.5,25.417l6.667,18.75l-0.833,12.5l-66.25,7.5l-72.917,4.166l-52.917,0l-2.916,-6.25l-12.084,-1.666l-10.833,-5.417l-9.583,-15.417l-1.25,-15l8.333,-12.083l-2.083,-5.833l-8.75,-9.167l-3.334,-13.75l-2.5,-28.333l-8.75,-10.417l-29.166,-18.75l-15.834,-22.5l-14.166,-4.167l-9.167,-11.666l-13.333,-0l-12.084,-13.75l-2.083,-27.084l0.417,-15.833l6.25,-12.917l-3.334,-13.333l-10.416,-11.667l7.5,-22.5l21.666,-15.833l6.667,-7.917l-0.833,-33.75l0.833,-11.666l10,-11.667l4.167,2.917Z" style="fill:#9c1515;fill-rule:nonzero;stroke:#ebebe8;stroke-width:4.17px;"/><text x="1324.63px" y="1429.6px" style="font-family:'HelveticaNeue-Bold', 'Helvetica Neue';font-weight:700;font-size:91.667px;fill:#ebebe8;">OH</text><text x="4842.31px" y="1077.36px" style="font-family:'HelveticaNeue-Bold', 'Helvetica Neue';font-weight:700;font-size:91.667px;fill:#ebebe8;">FL</text><text x="4551.61px" y="422.989px" style="font-family:'HelveticaNeue-Bold', 'Helvetica Neue';font-weight:700;font-size:91.667px;fill:#ebebe8;">GA</text><text x="2318.09px" y="977.189px" style="font-family:'HelveticaNeue-Bold', 'Helvetica Neue';font-weight:700;font-size:91.667px;fill:#ebebe8;">TX</text><text x="2937.33px" y="309.483px" style="font-family:'HelveticaNeue-Bold', 'Helvetica Neue';font-weight:700;font-size:91.667px;fill:#ebebe8;">NC</text><text x="3152.59px" y="1417.46px" style="font-family:'HelveticaNeue-Bold', 'Helvetica Neue';font-weight:700;font-size:91.667px;fill:#ebebe8;">WI</text><text x="4295.48px" y="1480.36px" style="font-family:'HelveticaNeue-Bold', 'Helvetica Neue';font-weight:700;font-size:91.667px;fill:#ebebe8;">IA</text><text x="3797.42px" y="381.55px" style="font-family:'HelveticaNeue-Bold', 'Helvetica Neue';font-weight:700;font-size:91.667px;fill:#ebebe8;">P<tspan x="3851.78px " y="381.55px ">A</tspan></text><text x="3679.03px" y="1089.74px" style="font-family:'HelveticaNeue-Bold', 'Helvetica Neue';font-weight:700;font-size:91.667px;fill:#ebebe8;">MI</text></svg>