<?xml version="1.0" encoding="UTF-8" standalone="no"?><!DOCTYPE svg PUBLIC "-//W3C//DTD SVG 1.1//EN" "http://www.w3.org/Graphics/SVG/1.1/DTD/svg11.dtd"><svg width="100%" height="100%" viewBox="0 0 1667 2500" version="1.1" xmlns="http://www.w3.org/2000/svg" xmlns:xlink="http://www.w3.org/1999/xlink" xml:space="preserve" xmlns:serif="http://www.serif.com/" style="fill-rule:evenodd;clip-rule:evenodd;stroke-linejoin:round;stroke-miterlimit:2;"><rect id="Artboard1" x="0" y="-0" width="1666.67" height="2500" style="fill:none;"/><clipPath id="_clip1"><rect x="0" y="-0" width="1666.67" height="2500"/></clipPath><g clip-path="url(#_clip1)"><rect x="-80.975" y="-121.467" width="1893.37" height="2731.54" style="fill:#1f3138;"/><g><path id="NC" d="M933.933,1089.08l-44.685,-27.093l-10.908,-2.815l-58.407,7.389l-5.63,-10.555l-9.852,-7.741l-58.759,1.759l-26.037,3.167l-32.371,15.833l-23.926,9.5l-22.87,4.222l-47.149,4.926l0.352,-14.426l5.982,-4.574l9.5,-2.463l2.463,-13.37l13.722,-8.796l13.722,-5.278l15.834,-13.019l15.481,-8.092l2.463,-11.26l14.426,-13.37l2.463,3.518l8.797,0.704l8.444,-12.667l5.982,-1.407l9.148,1.056l6.333,-14.075l8.796,-8.444l1.76,-6.333l0.352,-12.315l15.481,0.352l135.464,-19.704l202.315,-43.278l7.037,16.889l12.667,22.87l8.444,8.445l2.111,8.092l-8.444,0.704l2.815,2.111l-1.056,14.778l-9.148,4.574l-2.111,7.389l-4.574,10.204l-13.019,5.629l-8.444,-1.055l-5.278,-0.704l-5.63,-4.574l1.056,4.574l-0,3.519l6.685,-0l2.815,4.574l-6.685,22.167l14.778,-0l2.111,5.629l8.092,-8.092l4.574,-1.76l-6.685,12.667l-10.907,16.889l-4.574,-0l-3.871,-1.759l-9.5,2.111l-18.296,8.444l-22.871,18.648l-11.963,16.538l-6.685,22.87l-1.759,8.444l-16.537,1.76l-17.945,5.278l-35.889,-29.204Zm173.464,-92.186l9.148,-8.796l11.259,-9.148l5.278,-2.111l0.704,-7.037l-2.111,-21.464l-5.278,-8.092l-2.111,-6.685l2.463,-0.704l9.5,19.352l1.407,15.481l-0.703,11.963l-11.963,5.278l-9.852,8.445l-3.871,4.222l-3.87,-0.704Z" style="fill:#9c1515;fill-rule:nonzero;stroke:#ebebe8;stroke-width:4.17px;"/><text x="871.801px" y="1022.93px" style="font-family:'HelveticaNeue-Bold', 'Helvetica Neue';font-weight:700;font-size:91.667px;fill:#ebebe8;">NC</text></g><g><path id="OH" d="M1186.01,1338.29l5.982,54.537l16.889,144.612l13.722,-0.704l8.093,-2.815l12.666,6.334l5.982,14.777l19,0.352l6.333,7.037l5.982,0l8.444,-4.926l10.908,1.76l5.277,4.574l6.334,-7.037l8.092,-4.926l8.445,-1.408l2.111,9.5l5.63,3.519l9.148,7.037l2.815,0.704l7.037,-0.352l4.222,-2.111l-0,-7.389l5.981,-5.278l0.352,-16.889l3.871,-14.778l6.685,-4.574l3.518,2.463l3.519,3.87l2.463,0.704l1.407,-1.407l-3.166,-9.5l-0,-7.741l3.87,-4.926l8.796,-12.667l4.574,-5.277l7.741,1.759l7.389,-5.278l10.556,-11.611l7.741,-13.019l0.703,-19l1.76,-17.592l-0,-16.186l-4.223,-11.259l4.223,-6.333l4.574,-4.223l-2.112,-9.851l-15.129,-90.075l-21.815,13.019l-13.722,8.092l-11.963,13.019l-14.074,13.722l-11.26,2.815l-10.204,1.759l-19.351,9.148l-7.389,0.704l-11.963,-10.907l-18.297,2.111l-9.148,-5.278l-7.741,-4.574l-81.278,11.963Z" style="fill:#9c1515;fill-rule:nonzero;stroke:#ebebe8;stroke-width:4.17px;"/><text x="1244.59px" y="1464.98px" style="font-family:'HelveticaNeue-Bold', 'Helvetica Neue';font-weight:700;font-size:91.667px;fill:#ebebe8;">OH</text></g><g><path id="TX" d="M778.734,1968.38l130.185,12.666l103.093,6.685l26.037,-343.76l191.408,8.444l-5.981,81.982l-3.519,63.334l0.704,7.037l15.482,14.426l7.037,3.87l6.333,0l1.759,-4.222l2.463,3.167l8.445,0.703l3.87,-2.111l0,-0.703l3.519,1.759l-1.408,13.018l15.834,2.463l8.444,3.167l14.778,2.463l9.148,6.333l9.852,-6.685l9.5,2.111l7.741,10.908l2.815,0.352l-0,7.388l11.611,3.871l8.796,-7.389l5.278,1.759l7.389,0.352l2.111,7.389l18.296,7.037l8.093,-1.759l6.685,-14.074l0.352,-0l3.87,6.685l16.186,3.167l11.963,4.574l11.259,3.518l8.444,-4.222l2.463,-8.093l12.667,0l7.389,3.519l10.556,-7.037l1.407,-0l1.759,4.926l16.537,-0l6.686,-6.334l4.574,1.408l5.981,7.389l11.611,6.685l11.963,3.518l8.797,4.926l9.5,7.037l10.907,-4.222l7.389,2.815l2.463,70.371l2.463,33.426l2.111,14.426l9.148,15.481l3.167,15.834l14.778,20.759l1.055,10.907l2.111,2.815l-2.462,27.093l-10.204,16.889l4.574,9.148l-1.759,8.444l-2.815,25.334l-4.574,10.556l1.055,14.777l-19.704,5.63l-34.833,15.833l-3.519,6.686l-9.148,6.685l-7.389,5.278l-4.574,2.814l-20.055,18.649l-9.5,7.389l-18.649,11.259l-20.055,8.444l-22.167,11.963l-6.333,5.278l-20.408,12.667l-11.963,2.111l-13.722,19.352l-14.074,1.055l-3.519,6.686l8.093,6.685l-5.278,19.352l-4.574,15.833l-3.87,13.722l-2.815,15.834l2.815,8.444l6.333,24.63l3.518,21.463l6.334,9.5l-3.519,5.278l-10.907,6.685l-20.056,-13.722l-19.352,-3.871l-4.574,1.76l-11.259,-2.111l-14.778,-10.908l-18.296,-3.87l-26.741,-11.963l-7.389,-13.723l-4.574,-22.87l-11.259,-6.685l-2.112,-8.093l2.112,-2.111l1.055,-11.963l-4.574,-2.111l-2.111,-3.519l4.574,-15.481l-5.63,-8.093l-11.259,-4.574l-11.963,-15.481l-12.667,-23.223l-14.777,-9.148l0.703,-6.685l-18.648,-43.278l-2.815,-14.778l-6.333,-6.685l-0.704,-5.278l-21.111,-18.648l-9.148,-10.907l-0,-3.871l-9.148,-7.389l-23.926,-3.87l-26.038,-2.111l-10.907,-8.093l-15.833,6.333l-12.667,5.278l-8.093,11.26l-3.518,13.018l-15.482,21.463l-8.444,8.445l-9.148,-3.519l-6.334,-3.87l-6.685,-2.111l-13.722,-8.093l-0,-2.111l-6.334,-6.685l-18.296,-7.389l-26.037,-27.445l-8.093,-16.537l0,-28.5l-11.259,-22.87l-1.759,-9.501l-5.63,-3.518l-3.87,-7.389l-17.593,-7.389l-4.574,-5.63l-24.982,-27.796l-4.574,-11.259l-16.537,-8.093l-5.278,-15.481l-9.148,-10.204l-5.981,-1.759l-2.111,-19Zm613.631,498.575l-2.111,-24.981l-9.5,-25.334l-2.111,-24.629l5.278,-28.852l11.611,-24.278l12.315,-19l11.259,-12.667l2.111,0.704l-16.889,23.222l-15.481,22.871l-7.037,23.222l-1.056,18.296l3.167,21.463l9.148,25.334l1.759,18.296l0.704,5.278l-3.167,1.055Z" style="fill:#9c1515;fill-rule:nonzero;stroke:#ebebe8;stroke-width:4.17px;"/><text x="1213.72px" y="2116.4px" style="font-family:'HelveticaNeue-Bold', 'Helvetica Neue';font-weight:700;font-size:91.667px;fill:#ebebe8;">TX</text></g><g><path id="FL" d="M1424.24,104.114l-18.297,-2.463l-2.463,2.815l5.278,15.482l-1.407,18.296l-14.426,-3.519l-0.704,-9.851l-14.426,-0l-18.648,2.463l-114.001,6.685l-28.852,-1.056l-5.981,-5.981l-8.797,-14.778l-20.759,-0l-23.222,1.759l-124.556,14.778l-1.056,9.852l5.63,5.63l10.204,7.037l1.055,29.555l11.611,-2.111l21.112,-7.389l21.111,-1.759l15.481,-2.111l26.741,6.333l28.5,13.722l5.63,5.278l10.204,3.871l5.629,6.685l1.056,9.5l11.259,-4.574l13.722,-0l12.667,-6.685l13.019,-12.667l10.907,0.704l1.759,-3.871l-2.814,-3.518l0.703,-6.686l14.074,-2.814l9.149,-0l10.203,5.277l14.778,5.278l8.445,13.019l9.5,3.518l3.87,11.963l11.963,5.63l5.63,9.148l6.685,2.111l18.296,4.574l4.574,10.908l10.556,13.018l-0,33.426l-5.278,16.538l1.056,9.5l4.574,16.888l6.333,14.075l2.815,-1.76l5.278,-15.833l-9.148,-3.519l-1.056,-2.111l5.63,-2.111l15.833,3.519l0.704,5.629l-11.26,19.352l-7.388,8.445l12.666,13.018l9.148,10.908l10.204,18.648l10.204,13.722l7.389,17.593l6.333,1.055l5.63,-7.388l6.333,3.87l9.148,14.074l2.112,12.667l10.907,15.481l2.815,-4.574l13.722,1.056l12.667,8.092l11.963,18.297l2.815,11.963l1.055,10.204l3.871,3.518l4.574,1.759l8.444,-3.518l5.278,-5.63l13.722,-0.704l10.908,-5.277l9.5,-11.26l-1.76,-6.685l-1.055,-8.444l2.111,-6.686l-1.056,-6.685l8.445,-4.574l1.055,-11.963l-2.111,-6.333l-1.759,-42.223l-4.574,-26.74l-15.833,-28.852l-12.667,-20.408l-9.148,-18.648l-10.204,-10.204l-10.204,-26.037l2.463,-4.926l3.871,-4.574l-5.63,-10.204l-14.074,-13.018l-16.889,-19.352l-13.019,-22.167l-18.648,-33.074l-13.019,-34.13l-8.092,-25.685l-18.296,-1.056Zm62.278,466.909l8.444,-2.111l4.574,-0.703l5.278,-8.093l8.092,-5.63l4.575,1.76l5.981,1.055l1.408,3.87l-12.315,4.223l-14.778,5.278l-8.093,4.222l-3.166,-3.871Zm47.5,-17.592l4.222,3.87l9.5,-7.389l18.648,-14.778l13.019,-13.722l8.796,-23.222l3.519,-5.982l0.703,-11.963l-2.463,1.76l-3.518,9.851l-5.278,16.186l-11.259,18.648l-15.482,14.778l-11.963,6.685l-8.444,5.278Z" style="fill:#9c1515;fill-rule:nonzero;stroke:#ebebe8;stroke-width:4.17px;"/><text x="1424.97px" y="349.97px" style="font-family:'HelveticaNeue-Bold', 'Helvetica Neue';font-weight:700;font-size:91.667px;fill:#ebebe8;">FL</text></g><g><path id="GA" d="M876.749,1594.92l-19.703,-2.463l-4.926,5.629l5.629,16.537l-1.055,13.723l-7.741,-2.111l-0.704,-10.556l-18.296,-0l-18.648,2.463l-113.649,6.685l-27.093,-1.055l-4.926,-4.223l-8.796,-15.129l-2.815,-11.612l-5.629,-3.166l-1.76,-1.759l3.167,-7.741l-1.407,-19.352l-5.63,-15.834l2.815,-17.24l5.981,-16.889l-0.703,-8.797l-6.686,-2.463l-1.407,-11.259l-9.852,-12.315l-6.685,-21.815l-5.278,-24.629l-5.981,-16.889l-13.371,-56.297l-12.315,-28.148l-2.815,-18.648l0.352,-8.093l11.611,-1.055l47.852,-5.63l65.445,-7.037l22.167,-3.871l1.759,4.926l-7.741,3.167l-3.166,7.741l1.407,7.037l4.926,5.63l15.13,9.5l11.259,-0.352l11.259,16.537l2.111,5.629l8.093,9.852l1.759,5.982l16.537,6.333l10.556,7.741l8.093,10.556l8.092,4.574l7.037,6.333l4.926,9.5l7.389,6.685l14.426,6.334l9.5,21.111l5.982,17.944l9.852,2.463l7.389,6.685l7.037,20.056l10.203,5.63l5.982,-2.815l1.407,4.222l-11.611,21.815l1.759,9.148l-5.277,14.778l-8.093,35.185l2.815,22.167l-17.945,-1.055Z" style="fill:#9c1515;fill-rule:nonzero;stroke:#ebebe8;stroke-width:4.17px;"/><text x="680.963px" y="1499.63px" style="font-family:'HelveticaNeue-Bold', 'Helvetica Neue';font-weight:700;font-size:91.667px;fill:#ebebe8;">GA</text></g><g><path id="IA" d="M1078.51,433.398l7.389,7.389l1.056,2.463l-7.037,10.556l1.055,14.074l9.149,14.426l10.907,5.629l8.444,1.056l3.167,6.333l0.704,8.445l8.796,3.518l3.167,3.871l1.759,5.629l13.371,11.611l2.111,6.686l-2.463,10.555l-5.982,13.019l-2.111,8.444l-7.389,5.63l-5.63,1.759l-20.055,5.278l-5.63,16.889l2.815,6.333l5.982,5.278l-0.704,12.315l-6.685,4.926l-2.463,6.333l-0,8.445l-4.926,1.407l-5.982,4.926l-1.759,5.982l1.407,5.981l-4.574,3.519l-8.092,-9.5l-4.926,-9.852l-29.204,2.814l-35.185,2.112l-173.112,4.222l-5.63,-15.13l-1.407,-23.574l-4.926,-14.778l-2.463,-18.296l-7.741,-13.019l-3.518,-16.185l-9.501,-27.445l-3.87,-19.703l-4.926,-6.686l-4.574,-10.203l5.982,-13.371l4.222,-21.463l-9.5,-7.74l-1.056,-8.445l2.463,-8.444l6.334,-1.056l214.982,-2.111l74.593,-2.463l3.166,11.611Z" style="fill:#9c1515;fill-rule:nonzero;stroke:#ebebe8;stroke-width:4.17px;"/><text x="902.398px" y="574.597px" style="font-family:'HelveticaNeue-Bold', 'Helvetica Neue';font-weight:700;font-size:91.667px;fill:#ebebe8;">IA</text></g><g><path id="MI" d="M431.456,2333.39l67.204,-6.685l0.704,3.87l34.833,-5.277l42.223,-5.982l0.352,-2.111l0.703,-5.278l7.389,-13.018l7.037,-5.982l-0.703,-17.944l5.629,-5.63l3.871,-1.056l0.703,-12.666l5.278,-10.556l3.871,2.111l0.703,2.111l2.815,0.704l6.685,-3.518l-1.407,-32.019l-11.259,-28.852l-8.093,-32.019l-8.444,-11.259l-9.149,-6.333l-5.629,3.87l-13.723,6.333l-6.685,17.593l-9.5,13.019l-3.87,2.111l-5.278,-2.111c0,-0 -9.148,-5.278 -8.444,-7.389c0.703,-2.111 1.759,-17.593 1.759,-17.593l11.963,-4.574l2.815,-11.963l2.111,-9.148l8.444,-5.63l-1.055,-35.185l-5.63,-8.093l-4.574,-2.815l-2.815,-7.389l2.815,-2.814l5.63,1.055l0.703,-5.629l-9.148,-7.741l-4.574,-9.148l-9.148,-0l-15.834,-5.278l-19.351,-11.963l-9.501,-0l-2.111,2.111l-3.518,-1.759l-10.908,-8.093l-10.203,6.333l-10.204,8.093l1.055,12.667l3.519,1.055l7.389,1.76l1.759,2.814l-9.148,2.815l-9.148,1.056l-5.278,6.333l-1.056,7.389l1.056,5.63l1.056,19.352l-12.667,7.389l-2.111,-0.704l-0,-14.778l4.574,-8.444l2.111,-8.445l-2.815,-2.815l-6.685,2.815l-3.519,14.778l-9.5,3.87l-6.333,6.685l-0.704,3.519l2.111,2.815l-2.111,9.148l-8.092,1.759l-0,3.871l2.815,8.444l-3.871,21.463l-5.63,14.074l2.112,16.537l1.759,3.871l-2.815,8.444l-1.056,2.815l-1.055,9.5l12.667,21.111l10.203,22.871l5.278,16.889l-2.815,16.537l-3.518,21.111l-8.445,18.296l-1.055,9.5l-11.26,10.908l45.741,-3.519Zm-117.167,-254.741l-4.574,-3.871l-6.333,-36.592l-13.019,-4.575l-5.981,-8.092l-44.334,-9.852l-9.852,-3.87l-28.5,-7.741l-27.444,-3.519l-13.723,-18.648l2.463,-1.759l9.5,-2.815l12.667,-8.093l0,-3.518l2.111,-2.111l21.111,-3.519l8.445,-6.685l15.482,-7.389l0.703,-4.574l6.685,-10.204l6.334,-2.815l4.574,-6.333l8.092,-8.093l15.482,-8.444l16.537,-1.759l3.871,3.87l-1.056,3.519l-13.019,3.518l-5.277,10.908l-8.093,2.814l-1.759,8.445l-8.445,11.259l-1.055,9.148l2.814,1.76l3.519,-3.871l12.667,-10.204l4.574,4.575l8.092,-0l11.26,3.518l5.278,3.87l5.277,10.908l9.5,9.5l13.723,-0.704l5.277,-3.518l5.63,4.574l5.63,1.759l4.574,-2.815l3.87,0l5.63,-3.518l14.074,-12.667l11.963,-3.87l23.222,-1.056l15.834,-6.685l9.148,-4.574l5.278,0.703l-0,20.056l1.759,1.056l10.204,2.814l6.685,-1.759l21.463,-5.629l3.87,-3.871l5.278,1.759l0,24.63l11.259,10.908l4.575,2.111l4.574,3.518l-4.574,1.056l-2.815,-1.056l-13.019,-1.759l-7.389,2.111l-8.092,-0.704l-11.26,5.278l-6.333,0l-20.408,-4.574l-18.296,0.704l-6.685,9.148l-24.63,2.111l-8.444,2.815l-3.871,10.907l-4.574,3.871l-1.759,-0.704l-5.278,-5.63l-15.833,8.445l-2.111,-0l-3.871,-5.63l-2.815,0.704l-6.685,15.481l-3.518,14.075l-11.26,24.277l-4.574,-2.814Zm-104.148,-198.797l6.333,-7.389l7.741,-2.815l19,-13.722l8.093,-2.112l1.759,1.76l-17.945,17.944l-11.611,6.685l-7.389,3.167l-5.981,-3.518Zm303.297,112.944l2.111,8.797l11.26,0.704l4.574,-4.223c-0,0 -0.352,-5.278 -1.408,-5.629c-1.055,-0.704 -5.629,-6.686 -5.629,-6.686l-7.741,0.704l-5.63,0.704l-1.055,3.87l3.518,1.759Z" style="fill:#9c1515;fill-rule:nonzero;stroke:#ebebe8;stroke-width:4.17px;"/><text x="437.772px" y="2264.51px" style="font-family:'HelveticaNeue-Bold', 'Helvetica Neue';font-weight:700;font-size:91.667px;fill:#ebebe8;">MI</text></g><g><path id="PA" d="M77.532,1434.31l4.574,-1.759l20.056,-19.352l2.463,24.278l117.871,-22.871l129.834,-27.444l8.092,8.092l10.908,1.408l7.037,19.704l8.444,6.685l9.852,1.407l0.352,0.352l-9.148,11.259l-0,10.908l-6.685,10.907l-0.704,6.685l4.574,4.575l-0.704,6.685l-8.444,3.87l3.518,11.963l0.704,3.871l9.852,1.055l3.167,8.796l20.759,13.723l-0,1.407l-10.908,10.556l-5.277,7.74l-5.982,9.852l-9.5,4.223l-4.926,1.055l-7.389,4.574l-5.629,4.926l-78.816,15.13l-136.167,27.444l-39.759,4.926l-13.722,2.463l-17.945,-78.815l-15.13,-91.13l14.778,-9.148Z" style="fill:#9c1515;fill-rule:nonzero;stroke:#ebebe8;stroke-width:4.17px;"/><text x="179.284px" y="1532.18px" style="font-family:'HelveticaNeue-Bold', 'Helvetica Neue';font-weight:700;font-size:91.667px;fill:#ebebe8;">P<tspan x="233.642px " y="1532.18px ">A</tspan></text></g><g><path id="WI" d="M1313.02,837.242l10.204,1.759l10.203,-2.111l26.038,-11.259l10.203,-6.686l7.389,-2.814l6.685,5.277l-3.87,3.871l-6.685,10.907l-2.111,6.685l3.518,2.112l6.334,-3.519l3.87,-0.704l9.5,2.815l2.111,3.871l3.871,0.703l2.111,-3.87l14.074,18.648l28.852,4.222l28.852,7.741l9.148,3.871l43.278,9.148l5.629,8.092l12.667,4.223l5.982,35.889l5.629,4.926l5.278,3.166l-3.87,8.093l-6.334,5.629l-7.389,16.538l-4.574,8.444l0.704,6.333l5.278,1.056l3.87,-6.685l5.278,-2.815l2.815,-8.093l6.685,-6.333l9.5,-14.074l14.778,-22.167l2.815,-1.759l1.055,3.518l-0.703,8.093l-10.204,23.926l-9.5,20.056l-1.759,11.259l-2.111,9.148l2.814,4.574l-0.703,9.5l-6.686,8.445l-1.759,6.333l2.111,12.667l2.111,11.963l-5.277,9.148l-2.815,10.204l-3.519,10.907l3.871,8.445l2.111,21.463l5.629,15.833l-0.703,10.556l-55.945,6.333l-61.574,3.519l-44.686,-0l-2.463,-5.278l-10.203,-1.408l-9.149,-4.574l-8.092,-13.018l-1.056,-12.667l7.037,-10.204l-1.759,-4.926l-7.389,-7.741l-2.815,-11.611l-2.111,-23.926l-7.389,-8.796l-24.629,-15.833l-13.371,-19l-11.963,-3.519l-7.741,-9.852l-11.259,0l-10.204,-11.611l-1.759,-22.871l0.352,-13.37l5.278,-10.907l-2.815,-11.26l-8.796,-9.852l6.333,-19l18.296,-13.37l5.63,-6.685l-0.704,-28.5l0.704,-9.852l8.444,-9.852l3.519,2.463Z" style="fill:#9c1515;fill-rule:nonzero;stroke:#ebebe8;stroke-width:4.17px;"/><text x="1383.43px" y="1034.39px" style="font-family:'HelveticaNeue-Bold', 'Helvetica Neue';font-weight:700;font-size:91.667px;fill:#ebebe8;">WI</text></g><g><path id="AZ" d="M51.821,995.523l-1.055,5.278l1.759,3.519l66.5,37.648l42.575,26.741l51.722,30.259l59.111,35.186l43.278,8.444l89.371,9.5l21.111,-139.334l24.63,-186.834l15.481,-109.074l-86.555,-12.667l-213.575,-38.704l-0.704,3.871l-9.148,58.055l-7.389,13.371l-9.852,-0.704l-4.222,-9.148l-9.148,-1.408l-4.223,-3.87l-3.87,0.352l-7.389,5.981l-1.056,23.926l-1.055,5.278l-1.759,43.982l-5.278,8.444l-1.408,11.611l9.852,17.593l3.871,19.352l2.463,3.87l3.87,3.167l-1.407,8.445l-5.982,4.222l-11.963,5.629l-5.63,6.334l-5.629,12.667l-1.759,17.24l-10.556,10.204l-6.685,3.167l-0.352,20.407l-2.111,5.63l1.759,2.815l13.722,1.407l-3.166,10.556l-5.982,8.444l-13.018,1.408l-9.149,7.74Z" style="fill:#9c1515;fill-rule:nonzero;stroke:#ebebe8;stroke-width:4.17px;"/><text x="215.626px" y="916.291px" style="font-family:'HelveticaNeue-Bold', 'Helvetica Neue';font-weight:700;font-size:91.667px;fill:#ebebe8;">AZ</text></g><g transform="matrix(4.16667,0,0,4.16667,-778.221,-164.198)"><text x="201.729px" y="66.896px" style="font-family:'HelveticaNeue', 'Helvetica Neue';font-size:18px;fill:#ebebe8;">All won by</text><text x="201.729px" y="85.4px" style="font-family:'HelveticaNeue', 'Helvetica Neue';font-size:18px;fill:#ebebe8;">T<tspan x="210.405px 216.399px " y="85.4px 85.4px ">ru</tspan>mp in 2016</text></g><path d="M412.774,445.094l9.3,24.832l-24.832,9.3" style="fill:none;stroke:#ebebe8;stroke-width:6.25px;stroke-linecap:round;stroke-linejoin:miter;stroke-miterlimit:10;"/><path d="M290.962,241.42c-0,0 -41.981,148.458 131.112,228.506" style="fill:none;stroke:#ebebe8;stroke-width:6.25px;stroke-linecap:round;stroke-miterlimit:1.5;"/></g></svg>